  0
SECTION
  2
HEADER
  9
$ACADVER
  1
AC1009
  9
$EXTMIN
 10
0.0
 20
0.0
 30
0.0
  9
$EXTMAX
 10
1000.0
 20
1000.0
 30
0.0
  9
$FILLMODE
 70
 0
  9
$SPLFRAME
 70
 1
  0
ENDSEC
  0
SECTION
  2
TABLES
  0
TABLE
  2
LAYER
 70
1
  0
LAYER
  2
0
 70
     0
 62
     7
  6
CONTINUOUS
  0
ENDTAB
  0
ENDSEC
  0
SECTION
  2
ENTITIES
  0
POLYLINE
  8
0
 62
     100
 66
     1
 10
0
 20
0
 30
0.0
 70
     1
 40
0.776
 41
0.776
  0
VERTEX
  8
0
 10
1.5134
 20
0.0288628
 30
0.0
 40
0.0107778
 41
0.0107778
  0
VERTEX
  8
0
 10
1.55854
 20
0.0415582
 30
0.0
 40
0.0107778
 41
0.0107778
  0
VERTEX
  8
0
 10
1.57958
 20
0.05051
 30
0.0
 40
0.0107778
 41
0.0107778
  0
VERTEX
  8
0
 10
1.62147
 20
0.0686849
 30
0.0
 40
0.0107778
 41
0.0107778
  0
VERTEX
  8
0
 10
1.67947
 20
0.0941297
 30
0.0
 40
0.0107778
 41
0.0107778
  0
VERTEX
  8
0
 10
1.74897
 20
0.124729
 30
0.0
 40
0.0107778
 41
0.0107778
  0
VERTEX
  8
0
 10
1.77794
 20
0.137533
 30
0.0
 40
0.0107778
 41
0.0107778
  0
VERTEX
  8
0
 10
1.80507
 20
0.149414
 30
0.0
 40
0.0107778
 41
0.0107778
  0
VERTEX
  8
0
 10
1.82346
 20
0.157661
 30
0.0
 40
0.0107778
 41
0.0107778
  0
VERTEX
  8
0
 10
1.83182
 20
0.161512
 30
0.0
 40
0.0107778
 41
0.0107778
  0
VERTEX
  8
0
 10
1.84338
 20
0.16824
 30
0.0
 40
0.0107778
 41
0.0107778
  0
VERTEX
  8
0
 10
1.86985
 20
0.18316
 30
0.0
 40
0.0107778
 41
0.0107778
  0
VERTEX
  8
0
 10
1.90349
 20
0.202365
 30
0.0
 40
0.0107778
 41
0.0107778
  0
VERTEX
  8
0
 10
1.94054
 20
0.223796
 30
0.0
 40
0.0107778
 41
0.0107778
  0
VERTEX
  8
0
 10
1.97244
 20
0.242567
 30
0.0
 40
0.0107778
 41
0.0107778
  0
VERTEX
  8
0
 10
1.99072
 20
0.253581
 30
0.0
 40
0.0107778
 41
0.0107778
  0
VERTEX
  8
0
 10
1.99892
 20
0.25944
 30
0.0
 40
0.0107778
 41
0.0107778
  0
VERTEX
  8
0
 10
2.01628
 20
0.27219
 30
0.0
 40
0.0107778
 41
0.0107778
  0
VERTEX
  8
0
 10
2.04031
 20
0.289876
 30
0.0
 40
0.0107778
 41
0.0107778
  0
VERTEX
  8
0
 10
2.06842
 20
0.31071
 30
0.0
 40
0.0107778
 41
0.0107778
  0
VERTEX
  8
0
 10
2.09592
 20
0.331381
 30
0.0
 40
0.0107778
 41
0.0107778
  0
VERTEX
  8
0
 10
2.12646
 20
0.35471
 30
0.0
 40
0.0107778
 41
0.0107778
  0
VERTEX
  8
0
 10
2.15847
 20
0.379286
 30
0.0
 40
0.0107778
 41
0.0107778
  0
VERTEX
  8
0
 10
2.19015
 20
0.403917
 30
0.0
 40
0.0107778
 41
0.0107778
  0
VERTEX
  8
0
 10
2.21983
 20
0.427246
 30
0.0
 40
0.0107778
 41
0.0107778
  0
VERTEX
  8
0
 10
2.24588
 20
0.447917
 30
0.0
 40
0.0107778
 41
0.0107778
  0
VERTEX
  8
0
 10
2.2666
 20
0.464681
 30
0.0
 40
0.0107778
 41
0.0107778
  0
VERTEX
  8
0
 10
2.28033
 20
0.476183
 30
0.0
 40
0.0107778
 41
0.0107778
  0
VERTEX
  8
0
 10
2.29904
 20
0.493815
 30
0.0
 40
0.0107778
 41
0.0107778
  0
VERTEX
  8
0
 10
2.32579
 20
0.52029
 30
0.0
 40
0.0107778
 41
0.0107778
  0
VERTEX
  8
0
 10
2.35411
 20
0.549208
 30
0.0
 40
0.0107778
 41
0.0107778
  0
VERTEX
  8
0
 10
2.37765
 20
0.574056
 30
0.0
 40
0.0107778
 41
0.0107778
  0
VERTEX
  8
0
 10
2.40815
 20
0.607747
 30
0.0
 40
0.0107778
 41
0.0107778
  0
VERTEX
  8
0
 10
2.44114
 20
0.644586
 30
0.0
 40
0.0107778
 41
0.0107778
  0
VERTEX
  8
0
 10
2.47244
 20
0.680012
 30
0.0
 40
0.0107778
 41
0.0107778
  0
VERTEX
  8
0
 10
2.49799
 20
0.709364
 30
0.0
 40
0.0107778
 41
0.0107778
  0
VERTEX
  8
0
 10
2.52371
 20
0.740722
 30
0.0
 40
0.0107778
 41
0.0107778
  0
VERTEX
  8
0
 10
2.55063
 20
0.775336
 30
0.0
 40
0.0107778
 41
0.0107778
  0
VERTEX
  8
0
 10
2.58003
 20
0.815539
 30
0.0
 40
0.0107778
 41
0.0107778
  0
VERTEX
  8
0
 10
2.61447
 20
0.863932
 30
0.0
 40
0.0107778
 41
0.0107778
  0
VERTEX
  8
0
 10
2.64486
 20
0.907661
 30
0.0
 40
0.0107778
 41
0.0107778
  0
VERTEX
  8
0
 10
2.662
 20
0.933649
 30
0.0
 40
0.0107778
 41
0.0107778
  0
VERTEX
  8
0
 10
2.6665
 20
0.941732
 30
0.0
 40
0.0107778
 41
0.0107778
  0
VERTEX
  8
0
 10
2.67486
 20
0.956868
 30
0.0
 40
0.0107778
 41
0.0107778
  0
VERTEX
  8
0
 10
2.68587
 20
0.976887
 30
0.0
 40
0.0107778
 41
0.0107778
  0
VERTEX
  8
0
 10
2.69835
 20
0.999567
 30
0.0
 40
0.0107778
 41
0.0107778
  0
VERTEX
  8
0
 10
2.71614
 20
1.03272
 30
0.0
 40
0.0107778
 41
0.0107778
  0
VERTEX
  8
0
 10
2.73247
 20
1.06418
 30
0.0
 40
0.0107778
 41
0.0107778
  0
VERTEX
  8
0
 10
2.75185
 20
1.10314
 30
0.0
 40
0.0107778
 41
0.0107778
  0
VERTEX
  8
0
 10
2.77886
 20
1.15853
 30
0.0
 40
0.0107778
 41
0.0107778
  0
VERTEX
  8
0
 10
2.79824
 20
1.19868
 30
0.0
 40
0.0107778
 41
0.0107778
  0
VERTEX
  8
0
 10
2.8144
 20
1.23231
 30
0.0
 40
0.0107778
 41
0.0107778
  0
VERTEX
  8
0
 10
2.82574
 20
1.25591
 30
0.0
 40
0.0107778
 41
0.0107778
  0
VERTEX
  8
0
 10
2.83046
 20
1.26595
 30
0.0
 40
0.0107778
 41
0.0107778
  0
VERTEX
  8
0
 10
2.83419
 20
1.27642
 30
0.0
 40
0.0107778
 41
0.0107778
  0
VERTEX
  8
0
 10
2.84119
 20
1.29633
 30
0.0
 40
0.0107778
 41
0.0107778
  0
VERTEX
  8
0
 10
2.85038
 20
1.3227
 30
0.0
 40
0.0107778
 41
0.0107778
  0
VERTEX
  8
0
 10
2.86068
 20
1.35254
 30
0.0
 40
0.0107778
 41
0.0107778
  0
VERTEX
  8
0
 10
2.87104
 20
1.38292
 30
0.0
 40
0.0107778
 41
0.0107778
  0
VERTEX
  8
0
 10
2.88049
 20
1.41069
 30
0.0
 40
0.0107778
 41
0.0107778
  0
VERTEX
  8
0
 10
2.88797
 20
1.433
 30
0.0
 40
0.0107778
 41
0.0107778
  0
VERTEX
  8
0
 10
2.89253
 20
1.44672
 30
0.0
 40
0.0107778
 41
0.0107778
  0
VERTEX
  8
0
 10
2.96442
 20
1.76079
 30
0.0
 40
0.0107778
 41
0.0107778
  0
VERTEX
  8
0
 10
2.96929
 20
1.79758
 30
0.0
 40
0.0107778
 41
0.0107778
  0
VERTEX
  8
0
 10
2.97228
 20
1.83333
 30
0.0
 40
0.0107778
 41
0.0107778
  0
VERTEX
  8
0
 10
2.97504
 20
1.87185
 30
0.0
 40
0.0107778
 41
0.0107778
  0
VERTEX
  8
0
 10
2.97894
 20
1.92318
 30
0.0
 40
0.0107778
 41
0.0107778
  0
VERTEX
  8
0
 10
2.98356
 20
1.98372
 30
0.0
 40
0.0107778
 41
0.0107778
  0
VERTEX
  8
0
 10
2.98356
 20
2.1199
 30
0.0
 40
0.0107778
 41
0.0107778
  0
VERTEX
  8
0
 10
2.9784
 20
2.1811
 30
0.0
 40
0.0107778
 41
0.0107778
  0
VERTEX
  8
0
 10
2.97331
 20
2.24078
 30
0.0
 40
0.0107778
 41
0.0107778
  0
VERTEX
  8
0
 10
2.96967
 20
2.28196
 30
0.0
 40
0.0107778
 41
0.0107778
  0
VERTEX
  8
0
 10
2.96733
 20
2.30713
 30
0.0
 40
0.0107778
 41
0.0107778
  0
VERTEX
  8
0
 10
2.96604
 20
2.31874
 30
0.0
 40
0.0107778
 41
0.0107778
  0
VERTEX
  8
0
 10
2.9529
 20
2.35639
 30
0.0
 40
0.0107778
 41
0.0107778
  0
VERTEX
  8
0
 10
2.94922
 20
2.36247
 30
0.0
 40
0.0107778
 41
0.0107778
  0
VERTEX
  8
0
 10
2.95111
 20
2.37131
 30
0.0
 40
0.0107778
 41
0.0107778
  0
VERTEX
  8
0
 10
2.9535
 20
2.39551
 30
0.0
 40
0.0107778
 41
0.0107778
  0
VERTEX
  8
0
 10
2.94965
 20
2.42953
 30
0.0
 40
0.0107778
 41
0.0107778
  0
VERTEX
  8
0
 10
2.91992
 20
2.58703
 30
0.0
 40
0.0107778
 41
0.0107778
  0
VERTEX
  8
0
 10
2.88525
 20
2.7161
 30
0.0
 40
0.0107778
 41
0.0107778
  0
VERTEX
  8
0
 10
2.85433
 20
2.80138
 30
0.0
 40
0.0107778
 41
0.0107778
  0
VERTEX
  8
0
 10
2.81125
 20
2.90121
 30
0.0
 40
0.0107778
 41
0.0107778
  0
VERTEX
  8
0
 10
2.79536
 20
2.93604
 30
0.0
 40
0.0107778
 41
0.0107778
  0
VERTEX
  8
0
 10
2.7794
 20
2.97119
 30
0.0
 40
0.0107778
 41
0.0107778
  0
VERTEX
  8
0
 10
2.76432
 20
3.00407
 30
0.0
 40
0.0107778
 41
0.0107778
  0
VERTEX
  8
0
 10
2.75483
 20
3.02289
 30
0.0
 40
0.0107778
 41
0.0107778
  0
VERTEX
  8
0
 10
2.74744
 20
3.0339
 30
0.0
 40
0.0107778
 41
0.0107778
  0
VERTEX
  8
0
 10
2.73872
 20
3.04324
 30
0.0
 40
0.0107778
 41
0.0107778
  0
VERTEX
  8
0
 10
2.70269
 20
3.06722
 30
0.0
 40
0.0107778
 41
0.0107778
  0
VERTEX
  8
0
 10
2.66
 20
3.07374
 30
0.0
 40
0.0107778
 41
0.0107778
  0
VERTEX
  8
0
 10
2.63781
 20
3.07053
 30
0.0
 40
0.0107778
 41
0.0107778
  0
VERTEX
  8
0
 10
2.60444
 20
3.05865
 30
0.0
 40
0.0107778
 41
0.0107778
  0
VERTEX
  8
0
 10
2.50765
 20
3.02268
 30
0.0
 40
0.0107778
 41
0.0107778
  0
VERTEX
  8
0
 10
2.4299
 20
2.99886
 30
0.0
 40
0.0107778
 41
0.0107778
  0
VERTEX
  8
0
 10
2.3585
 20
2.98383
 30
0.0
 40
0.0107778
 41
0.0107778
  0
VERTEX
  8
0
 10
2.28088
 20
2.97433
 30
0.0
 40
0.0107778
 41
0.0107778
  0
VERTEX
  8
0
 10
2.22483
 20
2.97011
 30
0.0
 40
0.0107778
 41
0.0107778
  0
VERTEX
  8
0
 10
2.17567
 20
2.96864
 30
0.0
 40
0.0107778
 41
0.0107778
  0
VERTEX
  8
0
 10
2.12651
 20
2.97011
 30
0.0
 40
0.0107778
 41
0.0107778
  0
VERTEX
  8
0
 10
2.07047
 20
2.97433
 30
0.0
 40
0.0107778
 41
0.0107778
  0
VERTEX
  8
0
 10
1.90761
 20
3.00032
 30
0.0
 40
0.0107778
 41
0.0107778
  0
VERTEX
  8
0
 10
1.76644
 20
3.04704
 30
0.0
 40
0.0107778
 41
0.0107778
  0
VERTEX
  8
0
 10
1.72944
 20
3.06401
 30
0.0
 40
0.0107778
 41
0.0107778
  0
VERTEX
  8
0
 10
1.68875
 20
3.08469
 30
0.0
 40
0.0107778
 41
0.0107778
  0
VERTEX
  8
0
 10
1.63992
 20
3.11149
 30
0.0
 40
0.0107778
 41
0.0107778
  0
VERTEX
  8
0
 10
1.5785
 20
3.14675
 30
0.0
 40
0.0107778
 41
0.0107778
  0
VERTEX
  8
0
 10
1.55246
 20
3.16157
 30
0.0
 40
0.0107778
 41
0.0107778
  0
VERTEX
  8
0
 10
1.53787
 20
3.16928
 30
0.0
 40
0.0107778
 41
0.0107778
  0
VERTEX
  8
0
 10
1.50043
 20
3.17676
 30
0.0
 40
0.0107778
 41
0.0107778
  0
VERTEX
  8
0
 10
1.46262
 20
3.17171
 30
0.0
 40
0.0107778
 41
0.0107778
  0
VERTEX
  8
0
 10
1.45583
 20
3.16922
 30
0.0
 40
0.0107778
 41
0.0107778
  0
VERTEX
  8
0
 10
1.44754
 20
3.16515
 30
0.0
 40
0.0107778
 41
0.0107778
  0
VERTEX
  8
0
 10
1.43446
 20
3.15799
 30
0.0
 40
0.0107778
 41
0.0107778
  0
VERTEX
  8
0
 10
1.41357
 20
3.146
 30
0.0
 40
0.0107778
 41
0.0107778
  0
VERTEX
  8
0
 10
1.3157
 20
3.09201
 30
0.0
 40
0.0107778
 41
0.0107778
  0
VERTEX
  8
0
 10
1.23389
 20
3.05285
 30
0.0
 40
0.0107778
 41
0.0107778
  0
VERTEX
  8
0
 10
1.15842
 20
3.02453
 30
0.0
 40
0.0107778
 41
0.0107778
  0
VERTEX
  8
0
 10
1.07975
 20
3.00276
 30
0.0
 40
0.0107778
 41
0.0107778
  0
VERTEX
  8
0
 10
0.996257
 20
2.98671
 30
0.0
 40
0.0107778
 41
0.0107778
  0
VERTEX
  8
0
 10
0.905219
 20
2.97526
 30
0.0
 40
0.0107778
 41
0.0107778
  0
VERTEX
  8
0
 10
0.816026
 20
2.96946
 30
0.0
 40
0.0107778
 41
0.0107778
  0
VERTEX
  8
0
 10
0.738172
 20
2.97011
 30
0.0
 40
0.0107778
 41
0.0107778
  0
VERTEX
  8
0
 10
0.666178
 20
2.97726
 30
0.0
 40
0.0107778
 41
0.0107778
  0
VERTEX
  8
0
 10
0.602376
 20
2.98915
 30
0.0
 40
0.0107778
 41
0.0107778
  0
VERTEX
  8
0
 10
0.552192
 20
3.00239
 30
0.0
 40
0.0107778
 41
0.0107778
  0
VERTEX
  8
0
 10
0.496311
 20
3.01893
 30
0.0
 40
0.0107778
 41
0.0107778
  0
VERTEX
  8
0
 10
0.439507
 20
3.03728
 30
0.0
 40
0.0107778
 41
0.0107778
  0
VERTEX
  8
0
 10
0.386828
 20
3.05583
 30
0.0
 40
0.0107778
 41
0.0107778
  0
VERTEX
  8
0
 10
0.365831
 20
3.06332
 30
0.0
 40
0.0107778
 41
0.0107778
  0
VERTEX
  8
0
 10
0.352376
 20
3.06754
 30
0.0
 40
0.0107778
 41
0.0107778
  0
VERTEX
  8
0
 10
0.32921
 20
3.06956
 30
0.0
 40
0.0107778
 41
0.0107778
  0
VERTEX
  8
0
 10
0.306099
 20
3.06754
 30
0.0
 40
0.0107778
 41
0.0107778
  0
VERTEX
  8
0
 10
0.266058
 20
3.04899
 30
0.0
 40
0.0107778
 41
0.0107778
  0
VERTEX
  8
0
 10
0.236111
 20
3.01394
 30
0.0
 40
0.0107778
 41
0.0107778
  0
VERTEX
  8
0
 10
0.224067
 20
2.99132
 30
0.0
 40
0.0107778
 41
0.0107778
  0
VERTEX
  8
0
 10
0.208117
 20
2.95865
 30
0.0
 40
0.0107778
 41
0.0107778
  0
VERTEX
  8
0
 10
0.190647
 20
2.92111
 30
0.0
 40
0.0107778
 41
0.0107778
  0
VERTEX
  8
0
 10
0.174154
 20
2.88374
 30
0.0
 40
0.0107778
 41
0.0107778
  0
VERTEX
  8
0
 10
0.121962
 20
2.74669
 30
0.0
 40
0.0107778
 41
0.0107778
  0
VERTEX
  8
0
 10
0.0782335
 20
2.59158
 30
0.0
 40
0.0107778
 41
0.0107778
  0
VERTEX
  8
0
 10
0.0668946
 20
2.54378
 30
0.0
 40
0.0107778
 41
0.0107778
  0
VERTEX
  8
0
 10
0.05523
 20
2.49132
 30
0.0
 40
0.0107778
 41
0.0107778
  0
VERTEX
  8
0
 10
0.0453017
 20
2.44347
 30
0.0
 40
0.0107778
 41
0.0107778
  0
VERTEX
  8
0
 10
0.0390625
 20
2.40924
 30
0.0
 40
0.0107778
 41
0.0107778
  0
VERTEX
  8
0
 10
0.0406901
 20
2.37131
 30
0.0
 40
0.0107778
 41
0.0107778
  0
VERTEX
  8
0
 10
0.0425347
 20
2.36247
 30
0.0
 40
0.0107778
 41
0.0107778
  0
VERTEX
  8
0
 10
0.0388456
 20
2.35639
 30
0.0
 40
0.0107778
 41
0.0107778
  0
VERTEX
  8
0
 10
0.0252821
 20
2.31532
 30
0.0
 40
0.0107778
 41
0.0107778
  0
VERTEX
  8
0
 10
0.0242513
 20
2.29676
 30
0.0
 40
0.0107778
 41
0.0107778
  0
VERTEX
  8
0
 10
0.0226237
 20
2.25928
 30
0.0
 40
0.0107778
 41
0.0107778
  0
VERTEX
  8
0
 10
0.0205621
 20
2.21457
 30
0.0
 40
0.0107778
 41
0.0107778
  0
VERTEX
  8
0
 10
0.0185004
 20
2.1785
 30
0.0
 40
0.0107778
 41
0.0107778
  0
VERTEX
  8
0
 10
0.0173611
 20
2.15924
 30
0.0
 40
0.0107778
 41
0.0107778
  0
VERTEX
  8
0
 10
0.0167643
 20
2.13536
 30
0.0
 40
0.0107778
 41
0.0107778
  0
VERTEX
  8
0
 10
0.0164931
 20
2.09776
 30
0.0
 40
0.0107778
 41
0.0107778
  0
VERTEX
  8
0
 10
0.0164388
 20
2.037
 30
0.0
 40
0.0107778
 41
0.0107778
  0
VERTEX
  8
0
 10
0.0165474
 20
1.96718
 30
0.0
 40
0.0107778
 41
0.0107778
  0
VERTEX
  8
0
 10
0.0171442
 20
1.92426
 30
0.0
 40
0.0107778
 41
0.0107778
  0
VERTEX
  8
0
 10
0.0185547
 20
1.89583
 30
0.0
 40
0.0107778
 41
0.0107778
  0
VERTEX
  8
0
 10
0.0211589
 20
1.86936
 30
0.0
 40
0.0107778
 41
0.0107778
  0
VERTEX
  8
0
 10
0.0368924
 20
1.75857
 30
0.0
 40
0.0107778
 41
0.0107778
  0
VERTEX
  8
0
 10
0.0668403
 20
1.59608
 30
0.0
 40
0.0107778
 41
0.0107778
  0
VERTEX
  8
0
 10
0.0781793
 20
1.54025
 30
0.0
 40
0.0107778
 41
0.0107778
  0
VERTEX
  8
0
 10
0.0888672
 20
1.49522
 30
0.0
 40
0.0107778
 41
0.0107778
  0
VERTEX
  8
0
 10
0.101508
 20
1.45107
 30
0.0
 40
0.0107778
 41
0.0107778
  0
VERTEX
  8
0
 10
0.118761
 20
1.39762
 30
0.0
 40
0.0107778
 41
0.0107778
  0
VERTEX
  8
0
 10
0.161242
 20
1.27957
 30
0.0
 40
0.0107778
 41
0.0107778
  0
VERTEX
  8
0
 10
0.204047
 20
1.18262
 30
0.0
 40
0.0107778
 41
0.0107778
  0
VERTEX
  8
0
 10
0.215169
 20
1.16005
 30
0.0
 40
0.0107778
 41
0.0107778
  0
VERTEX
  8
0
 10
0.227919
 20
1.13439
 30
0.0
 40
0.0107778
 41
0.0107778
  0
VERTEX
  8
0
 10
0.241428
 20
1.10731
 30
0.0
 40
0.0107778
 41
0.0107778
  0
VERTEX
  8
0
 10
0.254775
 20
1.08068
 30
0.0
 40
0.0107778
 41
0.0107778
  0
VERTEX
  8
0
 10
0.26709
 20
1.05626
 30
0.0
 40
0.0107778
 41
0.0107778
  0
VERTEX
  8
0
 10
0.277507
 20
1.03581
 30
0.0
 40
0.0107778
 41
0.0107778
  0
VERTEX
  8
0
 10
0.285047
 20
1.0211
 30
0.0
 40
0.0107778
 41
0.0107778
  0
VERTEX
  8
0
 10
0.288954
 20
1.01389
 30
0.0
 40
0.0107778
 41
0.0107778
  0
VERTEX
  8
0
 10
0.298611
 20
0.998481
 30
0.0
 40
0.0107778
 41
0.0107778
  0
VERTEX
  8
0
 10
0.319499
 20
0.965603
 30
0.0
 40
0.0107778
 41
0.0107778
  0
VERTEX
  8
0
 10
0.348904
 20
0.91976
 30
0.0
 40
0.0107778
 41
0.0107778
  0
VERTEX
  8
0
 10
0.383897
 20
0.865235
 30
0.0
 40
0.0107778
 41
0.0107778
  0
VERTEX
  8
0
 10
0.417318
 20
0.81326
 30
0.0
 40
0.0107778
 41
0.0107778
  0
VERTEX
  8
0
 10
0.462944
 20
0.754124
 30
0.0
 40
0.0107778
 41
0.0107778
  0
VERTEX
  8
0
 10
0.485081
 20
0.725424
 30
0.0
 40
0.0107778
 41
0.0107778
  0
VERTEX
  8
0
 10
0.50179
 20
0.703831
 30
0.0
 40
0.0107778
 41
0.0107778
  0
VERTEX
  8
0
 10
0.513943
 20
0.688097
 30
0.0
 40
0.0107778
 41
0.0107778
  0
VERTEX
  8
0
 10
0.522515
 20
0.677083
 30
0.0
 40
0.0107778
 41
0.0107778
  0
VERTEX
  8
0
 10
0.528429
 20
0.66965
 30
0.0
 40
0.0107778
 41
0.0107778
  0
VERTEX
  8
0
 10
0.532497
 20
0.664606
 30
0.0
 40
0.0107778
 41
0.0107778
  0
VERTEX
  8
0
 10
0.535699
 20
0.660753
 30
0.0
 40
0.0107778
 41
0.0107778
  0
VERTEX
  8
0
 10
0.539008
 20
0.656956
 30
0.0
 40
0.0107778
 41
0.0107778
  0
VERTEX
  8
0
 10
0.570096
 20
0.622558
 30
0.0
 40
0.0107778
 41
0.0107778
  0
VERTEX
  8
0
 10
0.607531
 20
0.58355
 30
0.0
 40
0.0107778
 41
0.0107778
  0
VERTEX
  8
0
 10
0.647786
 20
0.543565
 30
0.0
 40
0.0107778
 41
0.0107778
  0
VERTEX
  8
0
 10
0.687283
 20
0.506239
 30
0.0
 40
0.0107778
 41
0.0107778
  0
VERTEX
  8
0
 10
0.704915
 20
0.489637
 30
0.0
 40
0.0107778
 41
0.0107778
  0
VERTEX
  8
0
 10
0.729438
 20
0.466146
 30
0.0
 40
0.0107778
 41
0.0107778
  0
VERTEX
  8
0
 10
0.789442
 20
0.411675
 30
0.0
 40
0.0107778
 41
0.0107778
  0
VERTEX
  8
0
 10
0.857531
 20
0.358018
 30
0.0
 40
0.0107778
 41
0.0107778
  0
VERTEX
  8
0
 10
0.949436
 20
0.293728
 30
0.0
 40
0.0107778
 41
0.0107778
  0
VERTEX
  8
0
 10
1.05626
 20
0.22564
 30
0.0
 40
0.0107778
 41
0.0107778
  0
VERTEX
  8
0
 10
1.16357
 20
0.162651
 30
0.0
 40
0.0107778
 41
0.0107778
  0
VERTEX
  8
0
 10
1.25722
 20
0.11339
 30
0.0
 40
0.0107778
 41
0.0107778
  0
VERTEX
  8
0
 10
1.27881
 20
0.103244
 30
0.0
 40
0.0107778
 41
0.0107778
  0
VERTEX
  8
0
 10
1.30094
 20
0.0934788
 30
0.0
 40
0.0107778
 41
0.0107778
  0
VERTEX
  8
0
 10
1.33035
 20
0.0812717
 30
0.0
 40
0.0107778
 41
0.0107778
  0
VERTEX
  8
0
 10
1.37381
 20
0.0636393
 30
0.0
 40
0.0107778
 41
0.0107778
  0
VERTEX
  8
0
 10
1.41525
 20
0.0470919
 30
0.0
 40
0.0107778
 41
0.0107778
  0
VERTEX
  8
0
 10
1.44103
 20
0.0372179
 30
0.0
 40
0.0107778
 41
0.0107778
  0
VERTEX
  8
0
 10
1.45671
 20
0.0320096
 30
0.0
 40
0.0107778
 41
0.0107778
  0
VERTEX
  8
0
 10
1.4681
 20
0.0293511
 30
0.0
 40
0.0107778
 41
0.0107778
  0
VERTEX
  8
0
 10
1.49072
 20
0.0279406
 30
0.0
 40
0.0107778
 41
0.0107778
  0
VERTEX
  8
0
 10
1.5134
 20
0.0288628
 30
0.0
 40
0.0107778
 41
0.0107778
  0
SEQEND
 8
0
  0
POLYLINE
  8
0
 62
     254
 66
     1
 10
0
 20
0
 30
0.0
 70
     1
 40
0
 41
0
  0
VERTEX
  8
0
 10
1.47532
 20
0.13406
 30
0.0
 40
0
 41
0
  0
VERTEX
  8
0
 10
1.45628
 20
0.141439
 30
0.0
 40
0
 41
0
  0
VERTEX
  8
0
 10
1.43522
 20
0.150011
 30
0.0
 40
0
 41
0
  0
VERTEX
  8
0
 10
1.39762
 20
0.165147
 30
0.0
 40
0
 41
0
  0
VERTEX
  8
0
 10
1.36182
 20
0.179742
 30
0.0
 40
0
 41
0
  0
VERTEX
  8
0
 10
1.33442
 20
0.191461
 30
0.0
 40
0
 41
0
  0
VERTEX
  8
0
 10
1.30968
 20
0.202908
 30
0.0
 40
0
 41
0
  0
VERTEX
  8
0
 10
1.2819
 20
0.216635
 30
0.0
 40
0
 41
0
  0
VERTEX
  8
0
 10
1.18978
 20
0.266439
 30
0.0
 40
0
 41
0
  0
VERTEX
  8
0
 10
1.08963
 20
0.326226
 30
0.0
 40
0
 41
0
  0
VERTEX
  8
0
 10
0.992242
 20
0.389322
 30
0.0
 40
0
 41
0
  0
VERTEX
  8
0
 10
0.908419
 20
0.448893
 30
0.0
 40
0
 41
0
  0
VERTEX
  8
0
 10
0.877604
 20
0.472711
 30
0.0
 40
0
 41
0
  0
VERTEX
  8
0
 10
0.851617
 20
0.49414
 30
0.0
 40
0
 41
0
  0
VERTEX
  8
0
 10
0.826714
 20
0.516222
 30
0.0
 40
0
 41
0
  0
VERTEX
  8
0
 10
0.799371
 20
0.5421
 30
0.0
 40
0
 41
0
  0
VERTEX
  8
0
 10
0.774794
 20
0.565593
 30
0.0
 40
0
 41
0
  0
VERTEX
  8
0
 10
0.75255
 20
0.586426
 30
0.0
 40
0
 41
0
  0
VERTEX
  8
0
 10
0.720215
 20
0.617079
 30
0.0
 40
0
 41
0
  0
VERTEX
  8
0
 10
0.685818
 20
0.651258
 30
0.0
 40
0
 41
0
  0
VERTEX
  8
0
 10
0.652615
 20
0.685547
 30
0.0
 40
0
 41
0
  0
VERTEX
  8
0
 10
0.624024
 20
0.716581
 30
0.0
 40
0
 41
0
  0
VERTEX
  8
0
 10
0.615343
 20
0.727051
 30
0.0
 40
0
 41
0
  0
VERTEX
  8
0
 10
0.599935
 20
0.746365
 30
0.0
 40
0
 41
0
  0
VERTEX
  8
0
 10
0.579969
 20
0.771756
 30
0.0
 40
0
 41
0
  0
VERTEX
  8
0
 10
0.557617
 20
0.80051
 30
0.0
 40
0
 41
0
  0
VERTEX
  8
0
 10
0.537651
 20
0.826281
 30
0.0
 40
0
 41
0
  0
VERTEX
  8
0
 10
0.522569
 20
0.845919
 30
0.0
 40
0
 41
0
  0
VERTEX
  8
0
 10
0.510308
 20
0.862304
 30
0.0
 40
0
 41
0
  0
VERTEX
  8
0
 10
0.499132
 20
0.878039
 30
0.0
 40
0
 41
0
  0
VERTEX
  8
0
 10
0.487033
 20
0.895887
 30
0.0
 40
0
 41
0
  0
VERTEX
  8
0
 10
0.472222
 20
0.918565
 30
0.0
 40
0
 41
0
  0
VERTEX
  8
0
 10
0.452854
 20
0.948785
 30
0.0
 40
0
 41
0
  0
VERTEX
  8
0
 10
0.426975
 20
0.989204
 30
0.0
 40
0
 41
0
  0
VERTEX
  8
0
 10
0.400879
 20
1.02995
 30
0.0
 40
0
 41
0
  0
VERTEX
  8
0
 10
0.385417
 20
1.05404
 30
0.0
 40
0
 41
0
  0
VERTEX
  8
0
 10
0.378689
 20
1.06613
 30
0.0
 40
0
 41
0
  0
VERTEX
  8
0
 10
0.366374
 20
1.08963
 30
0.0
 40
0
 41
0
  0
VERTEX
  8
0
 10
0.350369
 20
1.12093
 30
0.0
 40
0
 41
0
  0
VERTEX
  8
0
 10
0.332357
 20
1.15641
 30
0.0
 40
0
 41
0
  0
VERTEX
  8
0
 10
0.314236
 20
1.19249
 30
0.0
 40
0
 41
0
  0
VERTEX
  8
0
 10
0.297851
 20
1.22559
 30
0.0
 40
0
 41
0
  0
VERTEX
  8
0
 10
0.284885
 20
1.25217
 30
0.0
 40
0
 41
0
  0
VERTEX
  8
0
 10
0.277289
 20
1.2685
 30
0.0
 40
0
 41
0
  0
VERTEX
  8
0
 10
0.231608
 20
1.38645
 30
0.0
 40
0
 41
0
  0
VERTEX
  8
0
 10
0.191243
 20
1.51183
 30
0.0
 40
0
 41
0
  0
VERTEX
  8
0
 10
0.185493
 20
1.53239
 30
0.0
 40
0
 41
0
  0
VERTEX
  8
0
 10
0.181099
 20
1.55035
 30
0.0
 40
0
 41
0
  0
VERTEX
  8
0
 10
0.176161
 20
1.57383
 30
0.0
 40
0
 41
0
  0
VERTEX
  8
0
 10
0.168836
 20
1.61111
 30
0.0
 40
0
 41
0
  0
VERTEX
  8
0
 10
0.154406
 20
1.68599
 30
0.0
 40
0
 41
0
  0
VERTEX
  8
0
 10
0.143826
 20
1.74382
 30
0.0
 40
0
 41
0
  0
VERTEX
  8
0
 10
0.135796
 20
1.7915
 30
0.0
 40
0
 41
0
  0
VERTEX
  8
0
 10
0.129232
 20
1.83594
 30
0.0
 40
0
 41
0
  0
VERTEX
  8
0
 10
0.123589
 20
1.87836
 30
0.0
 40
0
 41
0
  0
VERTEX
  8
0
 10
0.120605
 20
1.91385
 30
0.0
 40
0
 41
0
  0
VERTEX
  8
0
 10
0.11952
 20
1.96018
 30
0.0
 40
0
 41
0
  0
VERTEX
  8
0
 10
0.119358
 20
2.035
 30
0.0
 40
0
 41
0
  0
VERTEX
  8
0
 10
0.119412
 20
2.09375
 30
0.0
 40
0
 41
0
  0
VERTEX
  8
0
 10
0.119683
 20
2.13053
 30
0.0
 40
0
 41
0
  0
VERTEX
  8
0
 10
0.12028
 20
2.15414
 30
0.0
 40
0
 41
0
  0
VERTEX
  8
0
 10
0.121365
 20
2.17333
 30
0.0
 40
0
 41
0
  0
VERTEX
  8
0
 10
0.12321
 20
2.20688
 30
0.0
 40
0
 41
0
  0
VERTEX
  8
0
 10
0.124946
 20
2.24539
 30
0.0
 40
0
 41
0
  0
VERTEX
  8
0
 10
0.126248
 20
2.27767
 30
0.0
 40
0
 41
0
  0
VERTEX
  8
0
 10
0.12717
 20
2.29606
 30
0.0
 40
0
 41
0
  0
VERTEX
  8
0
 10
0.127767
 20
2.30453
 30
0.0
 40
0
 41
0
  0
VERTEX
  8
0
 10
2.8641
 20
2.30453
 30
0.0
 40
0
 41
0
  0
VERTEX
  8
0
 10
2.86469
 20
2.30018
 30
0.0
 40
0
 41
0
  0
VERTEX
  8
0
 10
2.86535
 20
2.294
 30
0.0
 40
0
 41
0
  0
VERTEX
  8
0
 10
2.86686
 20
2.27642
 30
0.0
 40
0
 41
0
  0
VERTEX
  8
0
 10
2.87007
 20
2.23931
 30
0.0
 40
0
 41
0
  0
VERTEX
  8
0
 10
2.87554
 20
2.17437
 30
0.0
 40
0
 41
0
  0
VERTEX
  8
0
 10
2.88064
 20
2.11372
 30
0.0
 40
0
 41
0
  0
VERTEX
  8
0
 10
2.88064
 20
2.05122
 30
0.0
 40
0
 41
0
  0
VERTEX
  8
0
 10
2.88053
 20
2.01535
 30
0.0
 40
0
 41
0
  0
VERTEX
  8
0
 10
2.88021
 20
1.99197
 30
0.0
 40
0
 41
0
  0
VERTEX
  8
0
 10
2.87929
 20
1.97276
 30
0.0
 40
0
 41
0
  0
VERTEX
  8
0
 10
2.87761
 20
1.94933
 30
0.0
 40
0
 41
0
  0
VERTEX
  8
0
 10
2.87435
 20
1.90674
 30
0.0
 40
0
 41
0
  0
VERTEX
  8
0
 10
2.87088
 20
1.8596
 30
0.0
 40
0
 41
0
  0
VERTEX
  8
0
 10
2.86719
 20
1.81526
 30
0.0
 40
0
 41
0
  0
VERTEX
  8
0
 10
2.86361
 20
1.78342
 30
0.0
 40
0
 41
0
  0
VERTEX
  8
0
 10
2.81213
 20
1.53808
 30
0.0
 40
0
 41
0
  0
VERTEX
  8
0
 10
2.80251
 20
1.50489
 30
0.0
 40
0
 41
0
  0
VERTEX
  8
0
 10
2.79269
 20
1.47319
 30
0.0
 40
0
 41
0
  0
VERTEX
  8
0
 10
2.77968
 20
1.43425
 30
0.0
 40
0
 41
0
  0
VERTEX
  8
0
 10
2.76074
 20
1.37912
 30
0.0
 40
0
 41
0
  0
VERTEX
  8
0
 10
2.73475
 20
1.30404
 30
0.0
 40
0
 41
0
  0
VERTEX
  8
0
 10
2.68582
 20
1.20329
 30
0.0
 40
0
 41
0
  0
VERTEX
  8
0
 10
2.65896
 20
1.14822
 30
0.0
 40
0
 41
0
  0
VERTEX
  8
0
 10
2.63971
 20
1.10954
 30
0.0
 40
0
 41
0
  0
VERTEX
  8
0
 10
2.6231
 20
1.07769
 30
0.0
 40
0
 41
0
  0
VERTEX
  8
0
 10
2.60439
 20
1.04302
 30
0.0
 40
0
 41
0
  0
VERTEX
  8
0
 10
2.57189
 20
0.983507
 30
0.0
 40
0
 41
0
  0
VERTEX
  8
0
 10
2.54346
 20
0.942654
 30
0.0
 40
0
 41
0
  0
VERTEX
  8
0
 10
2.49104
 20
0.868381
 30
0.0
 40
0
 41
0
  0
VERTEX
  8
0
 10
2.44797
 20
0.811415
 30
0.0
 40
0
 41
0
  0
VERTEX
  8
0
 10
2.40033
 20
0.754449
 30
0.0
 40
0
 41
0
  0
VERTEX
  8
0
 10
2.33436
 20
0.680012
 30
0.0
 40
0
 41
0
  0
VERTEX
  8
0
 10
2.29893
 20
0.641276
 30
0.0
 40
0
 41
0
  0
VERTEX
  8
0
 10
2.26594
 20
0.606392
 30
0.0
 40
0
 41
0
  0
VERTEX
  8
0
 10
2.23676
 20
0.576932
 30
0.0
 40
0
 41
0
  0
VERTEX
  8
0
 10
2.21294
 20
0.554417
 30
0.0
 40
0
 41
0
  0
VERTEX
  8
0
 10
2.20335
 20
0.546442
 30
0.0
 40
0
 41
0
  0
VERTEX
  8
0
 10
2.18631
 20
0.532607
 30
0.0
 40
0
 41
0
  0
VERTEX
  8
0
 10
2.16401
 20
0.514811
 30
0.0
 40
0
 41
0
  0
VERTEX
  8
0
 10
2.13867
 20
0.494738
 30
0.0
 40
0
 41
0
  0
VERTEX
  8
0
 10
2.11253
 20
0.474121
 30
0.0
 40
0
 41
0
  0
VERTEX
  8
0
 10
2.08772
 20
0.454753
 30
0.0
 40
0
 41
0
  0
VERTEX
  8
0
 10
2.06651
 20
0.438314
 30
0.0
 40
0
 41
0
  0
VERTEX
  8
0
 10
2.05117
 20
0.426594
 30
0.0
 40
0
 41
0
  0
VERTEX
  8
0
 10
2.01019
 20
0.396104
 30
0.0
 40
0
 41
0
  0
VERTEX
  8
0
 10
1.97987
 20
0.373589
 30
0.0
 40
0
 41
0
  0
VERTEX
  8
0
 10
1.95801
 20
0.357476
 30
0.0
 40
0
 41
0
  0
VERTEX
  8
0
 10
1.94228
 20
0.346137
 30
0.0
 40
0
 41
0
  0
VERTEX
  8
0
 10
1.93044
 20
0.338053
 30
0.0
 40
0
 41
0
  0
VERTEX
  8
0
 10
1.92031
 20
0.331543
 30
0.0
 40
0
 41
0
  0
VERTEX
  8
0
 10
1.9095
 20
0.325142
 30
0.0
 40
0
 41
0
  0
VERTEX
  8
0
 10
1.89594
 20
0.317165
 30
0.0
 40
0
 41
0
  0
VERTEX
  8
0
 10
1.85769
 20
0.295031
 30
0.0
 40
0
 41
0
  0
VERTEX
  8
0
 10
1.81976
 20
0.273329
 30
0.0
 40
0
 41
0
  0
VERTEX
  8
0
 10
1.7979
 20
0.261176
 30
0.0
 40
0
 41
0
  0
VERTEX
  8
0
 10
1.78103
 20
0.252279
 30
0.0
 40
0
 41
0
  0
VERTEX
  8
0
 10
1.76292
 20
0.243707
 30
0.0
 40
0
 41
0
  0
VERTEX
  8
0
 10
1.73747
 20
0.232368
 30
0.0
 40
0
 41
0
  0
VERTEX
  8
0
 10
1.63151
 20
0.185818
 30
0.0
 40
0
 41
0
  0
VERTEX
  8
0
 10
1.56451
 20
0.156521
 30
0.0
 40
0
 41
0
  0
VERTEX
  8
0
 10
1.52794
 20
0.140733
 30
0.0
 40
0
 41
0
  0
VERTEX
  8
0
 10
1.51335
 20
0.134766
 30
0.0
 40
0
 41
0
  0
VERTEX
  8
0
 10
1.49436
 20
0.130968
 30
0.0
 40
0
 41
0
  0
VERTEX
  8
0
 10
1.48497
 20
0.131185
 30
0.0
 40
0
 41
0
  0
VERTEX
  8
0
 10
1.47532
 20
0.13406
 30
0.0
 40
0
 41
0
  0
SEQEND
 8
0
  0
POLYLINE
  8
0
 62
     171
 66
     1
 10
0
 20
0
 30
0.0
 70
     1
 40
0.296296
 41
0.296296
  0
VERTEX
  8
0
 10
1.47532
 20
0.13406
 30
0.0
 40
0.00411522
 41
0.00411522
  0
VERTEX
  8
0
 10
1.45628
 20
0.141439
 30
0.0
 40
0.00411522
 41
0.00411522
  0
VERTEX
  8
0
 10
1.43522
 20
0.150011
 30
0.0
 40
0.00411522
 41
0.00411522
  0
VERTEX
  8
0
 10
1.39762
 20
0.165147
 30
0.0
 40
0.00411522
 41
0.00411522
  0
VERTEX
  8
0
 10
1.36182
 20
0.179742
 30
0.0
 40
0.00411522
 41
0.00411522
  0
VERTEX
  8
0
 10
1.33442
 20
0.191461
 30
0.0
 40
0.00411522
 41
0.00411522
  0
VERTEX
  8
0
 10
1.30968
 20
0.202908
 30
0.0
 40
0.00411522
 41
0.00411522
  0
VERTEX
  8
0
 10
1.2819
 20
0.216635
 30
0.0
 40
0.00411522
 41
0.00411522
  0
VERTEX
  8
0
 10
1.18978
 20
0.266439
 30
0.0
 40
0.00411522
 41
0.00411522
  0
VERTEX
  8
0
 10
1.08963
 20
0.326226
 30
0.0
 40
0.00411522
 41
0.00411522
  0
VERTEX
  8
0
 10
0.992242
 20
0.389322
 30
0.0
 40
0.00411522
 41
0.00411522
  0
VERTEX
  8
0
 10
0.908419
 20
0.448893
 30
0.0
 40
0.00411522
 41
0.00411522
  0
VERTEX
  8
0
 10
0.877604
 20
0.472711
 30
0.0
 40
0.00411522
 41
0.00411522
  0
VERTEX
  8
0
 10
0.851617
 20
0.49414
 30
0.0
 40
0.00411522
 41
0.00411522
  0
VERTEX
  8
0
 10
0.826714
 20
0.516222
 30
0.0
 40
0.00411522
 41
0.00411522
  0
VERTEX
  8
0
 10
0.799371
 20
0.5421
 30
0.0
 40
0.00411522
 41
0.00411522
  0
VERTEX
  8
0
 10
0.774794
 20
0.565593
 30
0.0
 40
0.00411522
 41
0.00411522
  0
VERTEX
  8
0
 10
0.75255
 20
0.586426
 30
0.0
 40
0.00411522
 41
0.00411522
  0
VERTEX
  8
0
 10
0.720215
 20
0.617079
 30
0.0
 40
0.00411522
 41
0.00411522
  0
VERTEX
  8
0
 10
0.685818
 20
0.651258
 30
0.0
 40
0.00411522
 41
0.00411522
  0
VERTEX
  8
0
 10
0.652615
 20
0.685547
 30
0.0
 40
0.00411522
 41
0.00411522
  0
VERTEX
  8
0
 10
0.624024
 20
0.716581
 30
0.0
 40
0.00411522
 41
0.00411522
  0
VERTEX
  8
0
 10
0.615343
 20
0.727051
 30
0.0
 40
0.00411522
 41
0.00411522
  0
VERTEX
  8
0
 10
0.599935
 20
0.746365
 30
0.0
 40
0.00411522
 41
0.00411522
  0
VERTEX
  8
0
 10
0.579969
 20
0.771756
 30
0.0
 40
0.00411522
 41
0.00411522
  0
VERTEX
  8
0
 10
0.557617
 20
0.80051
 30
0.0
 40
0.00411522
 41
0.00411522
  0
VERTEX
  8
0
 10
0.537651
 20
0.826281
 30
0.0
 40
0.00411522
 41
0.00411522
  0
VERTEX
  8
0
 10
0.522569
 20
0.845919
 30
0.0
 40
0.00411522
 41
0.00411522
  0
VERTEX
  8
0
 10
0.510308
 20
0.862304
 30
0.0
 40
0.00411522
 41
0.00411522
  0
VERTEX
  8
0
 10
0.499132
 20
0.878039
 30
0.0
 40
0.00411522
 41
0.00411522
  0
VERTEX
  8
0
 10
0.487033
 20
0.895887
 30
0.0
 40
0.00411522
 41
0.00411522
  0
VERTEX
  8
0
 10
0.472222
 20
0.918565
 30
0.0
 40
0.00411522
 41
0.00411522
  0
VERTEX
  8
0
 10
0.452854
 20
0.948785
 30
0.0
 40
0.00411522
 41
0.00411522
  0
VERTEX
  8
0
 10
0.426975
 20
0.989204
 30
0.0
 40
0.00411522
 41
0.00411522
  0
VERTEX
  8
0
 10
0.400879
 20
1.02995
 30
0.0
 40
0.00411522
 41
0.00411522
  0
VERTEX
  8
0
 10
0.385417
 20
1.05404
 30
0.0
 40
0.00411522
 41
0.00411522
  0
VERTEX
  8
0
 10
0.378689
 20
1.06613
 30
0.0
 40
0.00411522
 41
0.00411522
  0
VERTEX
  8
0
 10
0.366374
 20
1.08963
 30
0.0
 40
0.00411522
 41
0.00411522
  0
VERTEX
  8
0
 10
0.350369
 20
1.12093
 30
0.0
 40
0.00411522
 41
0.00411522
  0
VERTEX
  8
0
 10
0.332357
 20
1.15641
 30
0.0
 40
0.00411522
 41
0.00411522
  0
VERTEX
  8
0
 10
0.314236
 20
1.19249
 30
0.0
 40
0.00411522
 41
0.00411522
  0
VERTEX
  8
0
 10
0.297851
 20
1.22559
 30
0.0
 40
0.00411522
 41
0.00411522
  0
VERTEX
  8
0
 10
0.284885
 20
1.25217
 30
0.0
 40
0.00411522
 41
0.00411522
  0
VERTEX
  8
0
 10
0.277289
 20
1.2685
 30
0.0
 40
0.00411522
 41
0.00411522
  0
VERTEX
  8
0
 10
0.231608
 20
1.38645
 30
0.0
 40
0.00411522
 41
0.00411522
  0
VERTEX
  8
0
 10
0.191243
 20
1.51183
 30
0.0
 40
0.00411522
 41
0.00411522
  0
VERTEX
  8
0
 10
0.185493
 20
1.53239
 30
0.0
 40
0.00411522
 41
0.00411522
  0
VERTEX
  8
0
 10
0.181099
 20
1.55035
 30
0.0
 40
0.00411522
 41
0.00411522
  0
VERTEX
  8
0
 10
0.176161
 20
1.57383
 30
0.0
 40
0.00411522
 41
0.00411522
  0
VERTEX
  8
0
 10
0.168836
 20
1.61111
 30
0.0
 40
0.00411522
 41
0.00411522
  0
VERTEX
  8
0
 10
0.154406
 20
1.68599
 30
0.0
 40
0.00411522
 41
0.00411522
  0
VERTEX
  8
0
 10
0.143826
 20
1.74382
 30
0.0
 40
0.00411522
 41
0.00411522
  0
VERTEX
  8
0
 10
0.135796
 20
1.7915
 30
0.0
 40
0.00411522
 41
0.00411522
  0
VERTEX
  8
0
 10
0.129232
 20
1.83594
 30
0.0
 40
0.00411522
 41
0.00411522
  0
VERTEX
  8
0
 10
0.123589
 20
1.87836
 30
0.0
 40
0.00411522
 41
0.00411522
  0
VERTEX
  8
0
 10
0.120605
 20
1.91385
 30
0.0
 40
0.00411522
 41
0.00411522
  0
VERTEX
  8
0
 10
0.11952
 20
1.96018
 30
0.0
 40
0.00411522
 41
0.00411522
  0
VERTEX
  8
0
 10
0.119358
 20
2.035
 30
0.0
 40
0.00411522
 41
0.00411522
  0
VERTEX
  8
0
 10
0.119412
 20
2.09375
 30
0.0
 40
0.00411522
 41
0.00411522
  0
VERTEX
  8
0
 10
0.119683
 20
2.13053
 30
0.0
 40
0.00411522
 41
0.00411522
  0
VERTEX
  8
0
 10
0.12028
 20
2.15414
 30
0.0
 40
0.00411522
 41
0.00411522
  0
VERTEX
  8
0
 10
0.121365
 20
2.17333
 30
0.0
 40
0.00411522
 41
0.00411522
  0
VERTEX
  8
0
 10
0.12321
 20
2.20688
 30
0.0
 40
0.00411522
 41
0.00411522
  0
VERTEX
  8
0
 10
0.124946
 20
2.24539
 30
0.0
 40
0.00411522
 41
0.00411522
  0
VERTEX
  8
0
 10
0.126248
 20
2.27767
 30
0.0
 40
0.00411522
 41
0.00411522
  0
VERTEX
  8
0
 10
0.12717
 20
2.29606
 30
0.0
 40
0.00411522
 41
0.00411522
  0
VERTEX
  8
0
 10
0.127767
 20
2.30453
 30
0.0
 40
0.00411522
 41
0.00411522
  0
VERTEX
  8
0
 10
2.8641
 20
2.30453
 30
0.0
 40
0.00411522
 41
0.00411522
  0
VERTEX
  8
0
 10
2.86469
 20
2.30018
 30
0.0
 40
0.00411522
 41
0.00411522
  0
VERTEX
  8
0
 10
2.86535
 20
2.294
 30
0.0
 40
0.00411522
 41
0.00411522
  0
VERTEX
  8
0
 10
2.86686
 20
2.27642
 30
0.0
 40
0.00411522
 41
0.00411522
  0
VERTEX
  8
0
 10
2.87007
 20
2.23931
 30
0.0
 40
0.00411522
 41
0.00411522
  0
VERTEX
  8
0
 10
2.87554
 20
2.17437
 30
0.0
 40
0.00411522
 41
0.00411522
  0
VERTEX
  8
0
 10
2.88064
 20
2.11372
 30
0.0
 40
0.00411522
 41
0.00411522
  0
VERTEX
  8
0
 10
2.88064
 20
2.05122
 30
0.0
 40
0.00411522
 41
0.00411522
  0
VERTEX
  8
0
 10
2.88053
 20
2.01535
 30
0.0
 40
0.00411522
 41
0.00411522
  0
VERTEX
  8
0
 10
2.88021
 20
1.99197
 30
0.0
 40
0.00411522
 41
0.00411522
  0
VERTEX
  8
0
 10
2.87929
 20
1.97276
 30
0.0
 40
0.00411522
 41
0.00411522
  0
VERTEX
  8
0
 10
2.87761
 20
1.94933
 30
0.0
 40
0.00411522
 41
0.00411522
  0
VERTEX
  8
0
 10
2.87435
 20
1.90674
 30
0.0
 40
0.00411522
 41
0.00411522
  0
VERTEX
  8
0
 10
2.87088
 20
1.8596
 30
0.0
 40
0.00411522
 41
0.00411522
  0
VERTEX
  8
0
 10
2.86719
 20
1.81526
 30
0.0
 40
0.00411522
 41
0.00411522
  0
VERTEX
  8
0
 10
2.86361
 20
1.78342
 30
0.0
 40
0.00411522
 41
0.00411522
  0
VERTEX
  8
0
 10
2.81213
 20
1.53808
 30
0.0
 40
0.00411522
 41
0.00411522
  0
VERTEX
  8
0
 10
2.80251
 20
1.50489
 30
0.0
 40
0.00411522
 41
0.00411522
  0
VERTEX
  8
0
 10
2.79269
 20
1.47319
 30
0.0
 40
0.00411522
 41
0.00411522
  0
VERTEX
  8
0
 10
2.77968
 20
1.43425
 30
0.0
 40
0.00411522
 41
0.00411522
  0
VERTEX
  8
0
 10
2.76074
 20
1.37912
 30
0.0
 40
0.00411522
 41
0.00411522
  0
VERTEX
  8
0
 10
2.73475
 20
1.30404
 30
0.0
 40
0.00411522
 41
0.00411522
  0
VERTEX
  8
0
 10
2.68582
 20
1.20329
 30
0.0
 40
0.00411522
 41
0.00411522
  0
VERTEX
  8
0
 10
2.65896
 20
1.14822
 30
0.0
 40
0.00411522
 41
0.00411522
  0
VERTEX
  8
0
 10
2.63971
 20
1.10954
 30
0.0
 40
0.00411522
 41
0.00411522
  0
VERTEX
  8
0
 10
2.6231
 20
1.07769
 30
0.0
 40
0.00411522
 41
0.00411522
  0
VERTEX
  8
0
 10
2.60439
 20
1.04302
 30
0.0
 40
0.00411522
 41
0.00411522
  0
VERTEX
  8
0
 10
2.57189
 20
0.983507
 30
0.0
 40
0.00411522
 41
0.00411522
  0
VERTEX
  8
0
 10
2.54346
 20
0.942654
 30
0.0
 40
0.00411522
 41
0.00411522
  0
VERTEX
  8
0
 10
2.49104
 20
0.868381
 30
0.0
 40
0.00411522
 41
0.00411522
  0
VERTEX
  8
0
 10
2.44797
 20
0.811415
 30
0.0
 40
0.00411522
 41
0.00411522
  0
VERTEX
  8
0
 10
2.40033
 20
0.754449
 30
0.0
 40
0.00411522
 41
0.00411522
  0
VERTEX
  8
0
 10
2.33436
 20
0.680012
 30
0.0
 40
0.00411522
 41
0.00411522
  0
VERTEX
  8
0
 10
2.29893
 20
0.641276
 30
0.0
 40
0.00411522
 41
0.00411522
  0
VERTEX
  8
0
 10
2.26594
 20
0.606392
 30
0.0
 40
0.00411522
 41
0.00411522
  0
VERTEX
  8
0
 10
2.23676
 20
0.576932
 30
0.0
 40
0.00411522
 41
0.00411522
  0
VERTEX
  8
0
 10
2.21294
 20
0.554417
 30
0.0
 40
0.00411522
 41
0.00411522
  0
VERTEX
  8
0
 10
2.20335
 20
0.546442
 30
0.0
 40
0.00411522
 41
0.00411522
  0
VERTEX
  8
0
 10
2.18631
 20
0.532607
 30
0.0
 40
0.00411522
 41
0.00411522
  0
VERTEX
  8
0
 10
2.16401
 20
0.514811
 30
0.0
 40
0.00411522
 41
0.00411522
  0
VERTEX
  8
0
 10
2.13867
 20
0.494738
 30
0.0
 40
0.00411522
 41
0.00411522
  0
VERTEX
  8
0
 10
2.11253
 20
0.474121
 30
0.0
 40
0.00411522
 41
0.00411522
  0
VERTEX
  8
0
 10
2.08772
 20
0.454753
 30
0.0
 40
0.00411522
 41
0.00411522
  0
VERTEX
  8
0
 10
2.06651
 20
0.438314
 30
0.0
 40
0.00411522
 41
0.00411522
  0
VERTEX
  8
0
 10
2.05117
 20
0.426594
 30
0.0
 40
0.00411522
 41
0.00411522
  0
VERTEX
  8
0
 10
2.01019
 20
0.396104
 30
0.0
 40
0.00411522
 41
0.00411522
  0
VERTEX
  8
0
 10
1.97987
 20
0.373589
 30
0.0
 40
0.00411522
 41
0.00411522
  0
VERTEX
  8
0
 10
1.95801
 20
0.357476
 30
0.0
 40
0.00411522
 41
0.00411522
  0
VERTEX
  8
0
 10
1.94228
 20
0.346137
 30
0.0
 40
0.00411522
 41
0.00411522
  0
VERTEX
  8
0
 10
1.93044
 20
0.338053
 30
0.0
 40
0.00411522
 41
0.00411522
  0
VERTEX
  8
0
 10
1.92031
 20
0.331543
 30
0.0
 40
0.00411522
 41
0.00411522
  0
VERTEX
  8
0
 10
1.9095
 20
0.325142
 30
0.0
 40
0.00411522
 41
0.00411522
  0
VERTEX
  8
0
 10
1.89594
 20
0.317165
 30
0.0
 40
0.00411522
 41
0.00411522
  0
VERTEX
  8
0
 10
1.85769
 20
0.295031
 30
0.0
 40
0.00411522
 41
0.00411522
  0
VERTEX
  8
0
 10
1.81976
 20
0.273329
 30
0.0
 40
0.00411522
 41
0.00411522
  0
VERTEX
  8
0
 10
1.7979
 20
0.261176
 30
0.0
 40
0.00411522
 41
0.00411522
  0
VERTEX
  8
0
 10
1.78103
 20
0.252279
 30
0.0
 40
0.00411522
 41
0.00411522
  0
VERTEX
  8
0
 10
1.76292
 20
0.243707
 30
0.0
 40
0.00411522
 41
0.00411522
  0
VERTEX
  8
0
 10
1.73747
 20
0.232368
 30
0.0
 40
0.00411522
 41
0.00411522
  0
VERTEX
  8
0
 10
1.63151
 20
0.185818
 30
0.0
 40
0.00411522
 41
0.00411522
  0
VERTEX
  8
0
 10
1.56451
 20
0.156521
 30
0.0
 40
0.00411522
 41
0.00411522
  0
VERTEX
  8
0
 10
1.52794
 20
0.140733
 30
0.0
 40
0.00411522
 41
0.00411522
  0
VERTEX
  8
0
 10
1.51335
 20
0.134766
 30
0.0
 40
0.00411522
 41
0.00411522
  0
VERTEX
  8
0
 10
1.49436
 20
0.130968
 30
0.0
 40
0.00411522
 41
0.00411522
  0
VERTEX
  8
0
 10
1.48497
 20
0.131185
 30
0.0
 40
0.00411522
 41
0.00411522
  0
VERTEX
  8
0
 10
1.47532
 20
0.13406
 30
0.0
 40
0.00411522
 41
0.00411522
  0
SEQEND
 8
0
  0
POLYLINE
  8
0
 62
     0
 66
     1
 10
0
 20
0
 30
0.0
 70
     1
 40
0
 41
0
  0
VERTEX
  8
0
 10
1.28369
 20
0.735568
 30
0.0
 40
0
 41
0
  0
VERTEX
  8
0
 10
1.3176
 20
0.746799
 30
0.0
 40
0
 41
0
  0
VERTEX
  8
0
 10
1.34874
 20
0.76416
 30
0.0
 40
0
 41
0
  0
VERTEX
  8
0
 10
1.38992
 20
0.804742
 30
0.0
 40
0
 41
0
  0
VERTEX
  8
0
 10
1.41612
 20
0.85395
 30
0.0
 40
0
 41
0
  0
VERTEX
  8
0
 10
1.4184
 20
0.861111
 30
0.0
 40
0
 41
0
  0
VERTEX
  8
0
 10
1.42014
 20
0.867839
 30
0.0
 40
0
 41
0
  0
VERTEX
  8
0
 10
1.42133
 20
0.876736
 30
0.0
 40
0
 41
0
  0
VERTEX
  8
0
 10
1.4221
 20
0.890354
 30
0.0
 40
0
 41
0
  0
VERTEX
  8
0
 10
1.42253
 20
0.911187
 30
0.0
 40
0
 41
0
  0
VERTEX
  8
0
 10
1.42275
 20
0.941894
 30
0.0
 40
0
 41
0
  0
VERTEX
  8
0
 10
1.42279
 20
0.985026
 30
0.0
 40
0
 41
0
  0
VERTEX
  8
0
 10
1.42279
 20
1.04308
 30
0.0
 40
0
 41
0
  0
VERTEX
  8
0
 10
1.42204
 20
1.22423
 30
0.0
 40
0
 41
0
  0
VERTEX
  8
0
 10
1.41976
 20
1.30452
 30
0.0
 40
0
 41
0
  0
VERTEX
  8
0
 10
1.41818
 20
1.31494
 30
0.0
 40
0
 41
0
  0
VERTEX
  8
0
 10
1.41465
 20
1.32368
 30
0.0
 40
0
 41
0
  0
VERTEX
  8
0
 10
1.39811
 20
1.34901
 30
0.0
 40
0
 41
0
  0
VERTEX
  8
0
 10
1.37039
 20
1.38194
 30
0.0
 40
0
 41
0
  0
VERTEX
  8
0
 10
1.35889
 20
1.39725
 30
0.0
 40
0
 41
0
  0
VERTEX
  8
0
 10
1.3565
 20
1.41254
 30
0.0
 40
0
 41
0
  0
VERTEX
  8
0
 10
1.35764
 20
1.42318
 30
0.0
 40
0
 41
0
  0
VERTEX
  8
0
 10
1.36892
 20
1.43403
 30
0.0
 40
0
 41
0
  0
VERTEX
  8
0
 10
1.39567
 20
1.46257
 30
0.0
 40
0
 41
0
  0
VERTEX
  8
0
 10
1.41585
 20
1.49294
 30
0.0
 40
0
 41
0
  0
VERTEX
  8
0
 10
1.42106
 20
1.50965
 30
0.0
 40
0
 41
0
  0
VERTEX
  8
0
 10
1.42188
 20
1.56467
 30
0.0
 40
0
 41
0
  0
VERTEX
  8
0
 10
1.42215
 20
1.67692
 30
0.0
 40
0
 41
0
  0
VERTEX
  8
0
 10
1.42188
 20
1.796
 30
0.0
 40
0
 41
0
  0
VERTEX
  8
0
 10
1.421
 20
1.87142
 30
0.0
 40
0
 41
0
  0
VERTEX
  8
0
 10
1.41949
 20
1.91271
 30
0.0
 40
0
 41
0
  0
VERTEX
  8
0
 10
1.41786
 20
1.9394
 30
0.0
 40
0
 41
0
  0
VERTEX
  8
0
 10
1.41575
 20
1.95703
 30
0.0
 40
0
 41
0
  0
VERTEX
  8
0
 10
1.4126
 20
1.97097
 30
0.0
 40
0
 41
0
  0
VERTEX
  8
0
 10
1.38439
 20
2.02735
 30
0.0
 40
0
 41
0
  0
VERTEX
  8
0
 10
1.34652
 20
2.05811
 30
0.0
 40
0
 41
0
  0
VERTEX
  8
0
 10
1.29384
 20
2.07932
 30
0.0
 40
0
 41
0
  0
VERTEX
  8
0
 10
1.28516
 20
2.08057
 30
0.0
 40
0
 41
0
  0
VERTEX
  8
0
 10
1.25694
 20
2.08132
 30
0.0
 40
0
 41
0
  0
VERTEX
  8
0
 10
1.18723
 20
2.08182
 30
0.0
 40
0
 41
0
  0
VERTEX
  8
0
 10
1.05404
 20
2.08231
 30
0.0
 40
0
 41
0
  0
VERTEX
  8
0
 10
0.912056
 20
2.08279
 30
0.0
 40
0
 41
0
  0
VERTEX
  8
0
 10
0.840494
 20
2.08251
 30
0.0
 40
0
 41
0
  0
VERTEX
  8
0
 10
0.811089
 20
2.08117
 30
0.0
 40
0
 41
0
  0
VERTEX
  8
0
 10
0.795736
 20
2.07813
 30
0.0
 40
0
 41
0
  0
VERTEX
  8
0
 10
0.778754
 20
2.072
 30
0.0
 40
0
 41
0
  0
VERTEX
  8
0
 10
0.754124
 20
2.05604
 30
0.0
 40
0
 41
0
  0
VERTEX
  8
0
 10
0.709093
 20
2.01546
 30
0.0
 40
0
 41
0
  0
VERTEX
  8
0
 10
0.684571
 20
1.96967
 30
0.0
 40
0
 41
0
  0
VERTEX
  8
0
 10
0.681694
 20
1.96039
 30
0.0
 40
0
 41
0
  0
VERTEX
  8
0
 10
0.683539
 20
1.73112
 30
0.0
 40
0
 41
0
  0
VERTEX
  8
0
 10
0.685331
 20
1.50185
 30
0.0
 40
0
 41
0
  0
VERTEX
  8
0
 10
0.690321
 20
1.48958
 30
0.0
 40
0
 41
0
  0
VERTEX
  8
0
 10
0.700142
 20
1.4694
 30
0.0
 40
0
 41
0
  0
VERTEX
  8
0
 10
0.715983
 20
1.45063
 30
0.0
 40
0
 41
0
  0
VERTEX
  8
0
 10
0.737685
 20
1.43294
 30
0.0
 40
0
 41
0
  0
VERTEX
  8
0
 10
0.751303
 20
1.42133
 30
0.0
 40
0
 41
0
  0
VERTEX
  8
0
 10
0.752007
 20
1.40771
 30
0.0
 40
0
 41
0
  0
VERTEX
  8
0
 10
0.746149
 20
1.40056
 30
0.0
 40
0
 41
0
  0
VERTEX
  8
0
 10
0.733669
 20
1.38737
 30
0.0
 40
0
 41
0
  0
VERTEX
  8
0
 10
0.708876
 20
1.35981
 30
0.0
 40
0
 41
0
  0
VERTEX
  8
0
 10
0.693901
 20
1.33539
 30
0.0
 40
0
 41
0
  0
VERTEX
  8
0
 10
0.689019
 20
1.32509
 30
0.0
 40
0
 41
0
  0
VERTEX
  8
0
 10
0.686632
 20
1.30176
 30
0.0
 40
0
 41
0
  0
VERTEX
  8
0
 10
0.685601
 20
1.23817
 30
0.0
 40
0
 41
0
  0
VERTEX
  8
0
 10
0.684896
 20
1.10699
 30
0.0
 40
0
 41
0
  0
VERTEX
  8
0
 10
0.684407
 20
1.00651
 30
0.0
 40
0
 41
0
  0
VERTEX
  8
0
 10
0.684244
 20
0.940756
 30
0.0
 40
0
 41
0
  0
VERTEX
  8
0
 10
0.684461
 20
0.903211
 30
0.0
 40
0
 41
0
  0
VERTEX
  8
0
 10
0.685004
 20
0.887369
 30
0.0
 40
0
 41
0
  0
VERTEX
  8
0
 10
0.698893
 20
0.83035
 30
0.0
 40
0
 41
0
  0
VERTEX
  8
0
 10
0.726563
 20
0.783638
 30
0.0
 40
0
 41
0
  0
VERTEX
  8
0
 10
0.737901
 20
0.772081
 30
0.0
 40
0
 41
0
  0
VERTEX
  8
0
 10
0.75076
 20
0.763183
 30
0.0
 40
0
 41
0
  0
VERTEX
  8
0
 10
0.787651
 20
0.74669
 30
0.0
 40
0
 41
0
  0
VERTEX
  8
0
 10
0.831272
 20
0.735568
 30
0.0
 40
0
 41
0
  0
VERTEX
  8
0
 10
0.842447
 20
0.734592
 30
0.0
 40
0
 41
0
  0
VERTEX
  8
0
 10
0.87245
 20
0.733996
 30
0.0
 40
0
 41
0
  0
VERTEX
  8
0
 10
0.938531
 20
0.733778
 30
0.0
 40
0
 41
0
  0
VERTEX
  8
0
 10
1.05811
 20
0.733669
 30
0.0
 40
0
 41
0
  0
VERTEX
  8
0
 10
1.18093
 20
0.733669
 30
0.0
 40
0
 41
0
  0
VERTEX
  8
0
 10
1.24642
 20
0.733886
 30
0.0
 40
0
 41
0
  0
VERTEX
  8
0
 10
1.27414
 20
0.734483
 30
0.0
 40
0
 41
0
  0
VERTEX
  8
0
 10
1.28369
 20
0.735568
 30
0.0
 40
0
 41
0
  0
SEQEND
 8
0
  0
POLYLINE
  8
0
 62
     171
 66
     1
 10
0
 20
0
 30
0.0
 70
     1
 40
0.296296
 41
0.296296
  0
VERTEX
  8
0
 10
1.28369
 20
0.735568
 30
0.0
 40
0.00411522
 41
0.00411522
  0
VERTEX
  8
0
 10
1.3176
 20
0.746799
 30
0.0
 40
0.00411522
 41
0.00411522
  0
VERTEX
  8
0
 10
1.34874
 20
0.76416
 30
0.0
 40
0.00411522
 41
0.00411522
  0
VERTEX
  8
0
 10
1.38992
 20
0.804742
 30
0.0
 40
0.00411522
 41
0.00411522
  0
VERTEX
  8
0
 10
1.41612
 20
0.85395
 30
0.0
 40
0.00411522
 41
0.00411522
  0
VERTEX
  8
0
 10
1.4184
 20
0.861111
 30
0.0
 40
0.00411522
 41
0.00411522
  0
VERTEX
  8
0
 10
1.42014
 20
0.867839
 30
0.0
 40
0.00411522
 41
0.00411522
  0
VERTEX
  8
0
 10
1.42133
 20
0.876736
 30
0.0
 40
0.00411522
 41
0.00411522
  0
VERTEX
  8
0
 10
1.4221
 20
0.890354
 30
0.0
 40
0.00411522
 41
0.00411522
  0
VERTEX
  8
0
 10
1.42253
 20
0.911187
 30
0.0
 40
0.00411522
 41
0.00411522
  0
VERTEX
  8
0
 10
1.42275
 20
0.941894
 30
0.0
 40
0.00411522
 41
0.00411522
  0
VERTEX
  8
0
 10
1.42279
 20
0.985026
 30
0.0
 40
0.00411522
 41
0.00411522
  0
VERTEX
  8
0
 10
1.42279
 20
1.04308
 30
0.0
 40
0.00411522
 41
0.00411522
  0
VERTEX
  8
0
 10
1.42204
 20
1.22423
 30
0.0
 40
0.00411522
 41
0.00411522
  0
VERTEX
  8
0
 10
1.41976
 20
1.30452
 30
0.0
 40
0.00411522
 41
0.00411522
  0
VERTEX
  8
0
 10
1.41818
 20
1.31494
 30
0.0
 40
0.00411522
 41
0.00411522
  0
VERTEX
  8
0
 10
1.41465
 20
1.32368
 30
0.0
 40
0.00411522
 41
0.00411522
  0
VERTEX
  8
0
 10
1.39811
 20
1.34901
 30
0.0
 40
0.00411522
 41
0.00411522
  0
VERTEX
  8
0
 10
1.37039
 20
1.38194
 30
0.0
 40
0.00411522
 41
0.00411522
  0
VERTEX
  8
0
 10
1.35889
 20
1.39725
 30
0.0
 40
0.00411522
 41
0.00411522
  0
VERTEX
  8
0
 10
1.3565
 20
1.41254
 30
0.0
 40
0.00411522
 41
0.00411522
  0
VERTEX
  8
0
 10
1.35764
 20
1.42318
 30
0.0
 40
0.00411522
 41
0.00411522
  0
VERTEX
  8
0
 10
1.36892
 20
1.43403
 30
0.0
 40
0.00411522
 41
0.00411522
  0
VERTEX
  8
0
 10
1.39567
 20
1.46257
 30
0.0
 40
0.00411522
 41
0.00411522
  0
VERTEX
  8
0
 10
1.41585
 20
1.49294
 30
0.0
 40
0.00411522
 41
0.00411522
  0
VERTEX
  8
0
 10
1.42106
 20
1.50965
 30
0.0
 40
0.00411522
 41
0.00411522
  0
VERTEX
  8
0
 10
1.42188
 20
1.56467
 30
0.0
 40
0.00411522
 41
0.00411522
  0
VERTEX
  8
0
 10
1.42215
 20
1.67692
 30
0.0
 40
0.00411522
 41
0.00411522
  0
VERTEX
  8
0
 10
1.42188
 20
1.796
 30
0.0
 40
0.00411522
 41
0.00411522
  0
VERTEX
  8
0
 10
1.421
 20
1.87142
 30
0.0
 40
0.00411522
 41
0.00411522
  0
VERTEX
  8
0
 10
1.41949
 20
1.91271
 30
0.0
 40
0.00411522
 41
0.00411522
  0
VERTEX
  8
0
 10
1.41786
 20
1.9394
 30
0.0
 40
0.00411522
 41
0.00411522
  0
VERTEX
  8
0
 10
1.41575
 20
1.95703
 30
0.0
 40
0.00411522
 41
0.00411522
  0
VERTEX
  8
0
 10
1.4126
 20
1.97097
 30
0.0
 40
0.00411522
 41
0.00411522
  0
VERTEX
  8
0
 10
1.38439
 20
2.02735
 30
0.0
 40
0.00411522
 41
0.00411522
  0
VERTEX
  8
0
 10
1.34652
 20
2.05811
 30
0.0
 40
0.00411522
 41
0.00411522
  0
VERTEX
  8
0
 10
1.29384
 20
2.07932
 30
0.0
 40
0.00411522
 41
0.00411522
  0
VERTEX
  8
0
 10
1.28516
 20
2.08057
 30
0.0
 40
0.00411522
 41
0.00411522
  0
VERTEX
  8
0
 10
1.25694
 20
2.08132
 30
0.0
 40
0.00411522
 41
0.00411522
  0
VERTEX
  8
0
 10
1.18723
 20
2.08182
 30
0.0
 40
0.00411522
 41
0.00411522
  0
VERTEX
  8
0
 10
1.05404
 20
2.08231
 30
0.0
 40
0.00411522
 41
0.00411522
  0
VERTEX
  8
0
 10
0.912056
 20
2.08279
 30
0.0
 40
0.00411522
 41
0.00411522
  0
VERTEX
  8
0
 10
0.840494
 20
2.08251
 30
0.0
 40
0.00411522
 41
0.00411522
  0
VERTEX
  8
0
 10
0.811089
 20
2.08117
 30
0.0
 40
0.00411522
 41
0.00411522
  0
VERTEX
  8
0
 10
0.795736
 20
2.07813
 30
0.0
 40
0.00411522
 41
0.00411522
  0
VERTEX
  8
0
 10
0.778754
 20
2.072
 30
0.0
 40
0.00411522
 41
0.00411522
  0
VERTEX
  8
0
 10
0.754124
 20
2.05604
 30
0.0
 40
0.00411522
 41
0.00411522
  0
VERTEX
  8
0
 10
0.709093
 20
2.01546
 30
0.0
 40
0.00411522
 41
0.00411522
  0
VERTEX
  8
0
 10
0.684571
 20
1.96967
 30
0.0
 40
0.00411522
 41
0.00411522
  0
VERTEX
  8
0
 10
0.681694
 20
1.96039
 30
0.0
 40
0.00411522
 41
0.00411522
  0
VERTEX
  8
0
 10
0.683539
 20
1.73112
 30
0.0
 40
0.00411522
 41
0.00411522
  0
VERTEX
  8
0
 10
0.685331
 20
1.50185
 30
0.0
 40
0.00411522
 41
0.00411522
  0
VERTEX
  8
0
 10
0.690321
 20
1.48958
 30
0.0
 40
0.00411522
 41
0.00411522
  0
VERTEX
  8
0
 10
0.700142
 20
1.4694
 30
0.0
 40
0.00411522
 41
0.00411522
  0
VERTEX
  8
0
 10
0.715983
 20
1.45063
 30
0.0
 40
0.00411522
 41
0.00411522
  0
VERTEX
  8
0
 10
0.737685
 20
1.43294
 30
0.0
 40
0.00411522
 41
0.00411522
  0
VERTEX
  8
0
 10
0.751303
 20
1.42133
 30
0.0
 40
0.00411522
 41
0.00411522
  0
VERTEX
  8
0
 10
0.752007
 20
1.40771
 30
0.0
 40
0.00411522
 41
0.00411522
  0
VERTEX
  8
0
 10
0.746149
 20
1.40056
 30
0.0
 40
0.00411522
 41
0.00411522
  0
VERTEX
  8
0
 10
0.733669
 20
1.38737
 30
0.0
 40
0.00411522
 41
0.00411522
  0
VERTEX
  8
0
 10
0.708876
 20
1.35981
 30
0.0
 40
0.00411522
 41
0.00411522
  0
VERTEX
  8
0
 10
0.693901
 20
1.33539
 30
0.0
 40
0.00411522
 41
0.00411522
  0
VERTEX
  8
0
 10
0.689019
 20
1.32509
 30
0.0
 40
0.00411522
 41
0.00411522
  0
VERTEX
  8
0
 10
0.686632
 20
1.30176
 30
0.0
 40
0.00411522
 41
0.00411522
  0
VERTEX
  8
0
 10
0.685601
 20
1.23817
 30
0.0
 40
0.00411522
 41
0.00411522
  0
VERTEX
  8
0
 10
0.684896
 20
1.10699
 30
0.0
 40
0.00411522
 41
0.00411522
  0
VERTEX
  8
0
 10
0.684407
 20
1.00651
 30
0.0
 40
0.00411522
 41
0.00411522
  0
VERTEX
  8
0
 10
0.684244
 20
0.940756
 30
0.0
 40
0.00411522
 41
0.00411522
  0
VERTEX
  8
0
 10
0.684461
 20
0.903211
 30
0.0
 40
0.00411522
 41
0.00411522
  0
VERTEX
  8
0
 10
0.685004
 20
0.887369
 30
0.0
 40
0.00411522
 41
0.00411522
  0
VERTEX
  8
0
 10
0.698893
 20
0.83035
 30
0.0
 40
0.00411522
 41
0.00411522
  0
VERTEX
  8
0
 10
0.726563
 20
0.783638
 30
0.0
 40
0.00411522
 41
0.00411522
  0
VERTEX
  8
0
 10
0.737901
 20
0.772081
 30
0.0
 40
0.00411522
 41
0.00411522
  0
VERTEX
  8
0
 10
0.75076
 20
0.763183
 30
0.0
 40
0.00411522
 41
0.00411522
  0
VERTEX
  8
0
 10
0.787651
 20
0.74669
 30
0.0
 40
0.00411522
 41
0.00411522
  0
VERTEX
  8
0
 10
0.831272
 20
0.735568
 30
0.0
 40
0.00411522
 41
0.00411522
  0
VERTEX
  8
0
 10
0.842447
 20
0.734592
 30
0.0
 40
0.00411522
 41
0.00411522
  0
VERTEX
  8
0
 10
0.87245
 20
0.733996
 30
0.0
 40
0.00411522
 41
0.00411522
  0
VERTEX
  8
0
 10
0.938531
 20
0.733778
 30
0.0
 40
0.00411522
 41
0.00411522
  0
VERTEX
  8
0
 10
1.05811
 20
0.733669
 30
0.0
 40
0.00411522
 41
0.00411522
  0
VERTEX
  8
0
 10
1.18093
 20
0.733669
 30
0.0
 40
0.00411522
 41
0.00411522
  0
VERTEX
  8
0
 10
1.24642
 20
0.733886
 30
0.0
 40
0.00411522
 41
0.00411522
  0
VERTEX
  8
0
 10
1.27414
 20
0.734483
 30
0.0
 40
0.00411522
 41
0.00411522
  0
VERTEX
  8
0
 10
1.28369
 20
0.735568
 30
0.0
 40
0.00411522
 41
0.00411522
  0
SEQEND
 8
0
  0
POLYLINE
  8
0
 62
     254
 66
     1
 10
0
 20
0
 30
0.0
 70
     1
 40
0
 41
0
  0
VERTEX
  8
0
 10
0.958333
 20
1.0038
 30
0.0
 40
0
 41
0
  0
VERTEX
  8
0
 10
0.944553
 20
1.01535
 30
0.0
 40
0
 41
0
  0
VERTEX
  8
0
 10
0.942165
 20
1.02431
 30
0.0
 40
0
 41
0
  0
VERTEX
  8
0
 10
0.941243
 20
1.05143
 30
0.0
 40
0
 41
0
  0
VERTEX
  8
0
 10
0.940918
 20
1.07026
 30
0.0
 40
0
 41
0
  0
VERTEX
  8
0
 10
0.940701
 20
1.09907
 30
0.0
 40
0
 41
0
  0
VERTEX
  8
0
 10
0.940483
 20
1.1339
 30
0.0
 40
0
 41
0
  0
VERTEX
  8
0
 10
0.940429
 20
1.17079
 30
0.0
 40
0
 41
0
  0
VERTEX
  8
0
 10
0.940321
 20
1.25977
 30
0.0
 40
0
 41
0
  0
VERTEX
  8
0
 10
0.942762
 20
1.26497
 30
0.0
 40
0
 41
0
  0
VERTEX
  8
0
 10
0.959636
 20
1.27989
 30
0.0
 40
0
 41
0
  0
VERTEX
  8
0
 10
0.96441
 20
1.28109
 30
0.0
 40
0
 41
0
  0
VERTEX
  8
0
 10
0.975911
 20
1.28168
 30
0.0
 40
0
 41
0
  0
VERTEX
  8
0
 10
1.00233
 20
1.28185
 30
0.0
 40
0
 41
0
  0
VERTEX
  8
0
 10
1.05181
 20
1.28168
 30
0.0
 40
0
 41
0
  0
VERTEX
  8
0
 10
1.10118
 20
1.28152
 30
0.0
 40
0
 41
0
  0
VERTEX
  8
0
 10
1.12755
 20
1.2812
 30
0.0
 40
0
 41
0
  0
VERTEX
  8
0
 10
1.13889
 20
1.28049
 30
0.0
 40
0
 41
0
  0
VERTEX
  8
0
 10
1.14334
 20
1.27924
 30
0.0
 40
0
 41
0
  0
VERTEX
  8
0
 10
1.15478
 20
1.27121
 30
0.0
 40
0
 41
0
  0
VERTEX
  8
0
 10
1.16054
 20
1.25841
 30
0.0
 40
0
 41
0
  0
VERTEX
  8
0
 10
1.16097
 20
1.23671
 30
0.0
 40
0
 41
0
  0
VERTEX
  8
0
 10
1.16005
 20
1.17687
 30
0.0
 40
0
 41
0
  0
VERTEX
  8
0
 10
1.15875
 20
1.11117
 30
0.0
 40
0
 41
0
  0
VERTEX
  8
0
 10
1.15788
 20
1.06071
 30
0.0
 40
0
 41
0
  0
VERTEX
  8
0
 10
1.15712
 20
1.03136
 30
0.0
 40
0
 41
0
  0
VERTEX
  8
0
 10
1.15625
 20
1.01633
 30
0.0
 40
0
 41
0
  0
VERTEX
  8
0
 10
1.15191
 20
1.00841
 30
0.0
 40
0
 41
0
  0
VERTEX
  8
0
 10
1.14714
 20
1.00461
 30
0.0
 40
0
 41
0
  0
VERTEX
  8
0
 10
1.13612
 20
1.00277
 30
0.0
 40
0
 41
0
  0
VERTEX
  8
0
 10
1.10802
 20
1.00217
 30
0.0
 40
0
 41
0
  0
VERTEX
  8
0
 10
1.05225
 20
1.00212
 30
0.0
 40
0
 41
0
  0
VERTEX
  8
0
 10
1.00586
 20
1.00228
 30
0.0
 40
0
 41
0
  0
VERTEX
  8
0
 10
0.97819
 20
1.0025
 30
0.0
 40
0
 41
0
  0
VERTEX
  8
0
 10
0.964085
 20
1.00298
 30
0.0
 40
0
 41
0
  0
VERTEX
  8
0
 10
0.958333
 20
1.0038
 30
0.0
 40
0
 41
0
  0
SEQEND
 8
0
  0
POLYLINE
  8
0
 62
     13
 66
     1
 10
0
 20
0
 30
0.0
 70
     1
 40
0.296296
 41
0.296296
  0
VERTEX
  8
0
 10
0.958333
 20
1.0038
 30
0.0
 40
0.00411522
 41
0.00411522
  0
VERTEX
  8
0
 10
0.944553
 20
1.01535
 30
0.0
 40
0.00411522
 41
0.00411522
  0
VERTEX
  8
0
 10
0.942165
 20
1.02431
 30
0.0
 40
0.00411522
 41
0.00411522
  0
VERTEX
  8
0
 10
0.941243
 20
1.05143
 30
0.0
 40
0.00411522
 41
0.00411522
  0
VERTEX
  8
0
 10
0.940918
 20
1.07026
 30
0.0
 40
0.00411522
 41
0.00411522
  0
VERTEX
  8
0
 10
0.940701
 20
1.09907
 30
0.0
 40
0.00411522
 41
0.00411522
  0
VERTEX
  8
0
 10
0.940483
 20
1.1339
 30
0.0
 40
0.00411522
 41
0.00411522
  0
VERTEX
  8
0
 10
0.940429
 20
1.17079
 30
0.0
 40
0.00411522
 41
0.00411522
  0
VERTEX
  8
0
 10
0.940321
 20
1.25977
 30
0.0
 40
0.00411522
 41
0.00411522
  0
VERTEX
  8
0
 10
0.942762
 20
1.26497
 30
0.0
 40
0.00411522
 41
0.00411522
  0
VERTEX
  8
0
 10
0.959636
 20
1.27989
 30
0.0
 40
0.00411522
 41
0.00411522
  0
VERTEX
  8
0
 10
0.96441
 20
1.28109
 30
0.0
 40
0.00411522
 41
0.00411522
  0
VERTEX
  8
0
 10
0.975911
 20
1.28168
 30
0.0
 40
0.00411522
 41
0.00411522
  0
VERTEX
  8
0
 10
1.00233
 20
1.28185
 30
0.0
 40
0.00411522
 41
0.00411522
  0
VERTEX
  8
0
 10
1.05181
 20
1.28168
 30
0.0
 40
0.00411522
 41
0.00411522
  0
VERTEX
  8
0
 10
1.10118
 20
1.28152
 30
0.0
 40
0.00411522
 41
0.00411522
  0
VERTEX
  8
0
 10
1.12755
 20
1.2812
 30
0.0
 40
0.00411522
 41
0.00411522
  0
VERTEX
  8
0
 10
1.13889
 20
1.28049
 30
0.0
 40
0.00411522
 41
0.00411522
  0
VERTEX
  8
0
 10
1.14334
 20
1.27924
 30
0.0
 40
0.00411522
 41
0.00411522
  0
VERTEX
  8
0
 10
1.15478
 20
1.27121
 30
0.0
 40
0.00411522
 41
0.00411522
  0
VERTEX
  8
0
 10
1.16054
 20
1.25841
 30
0.0
 40
0.00411522
 41
0.00411522
  0
VERTEX
  8
0
 10
1.16097
 20
1.23671
 30
0.0
 40
0.00411522
 41
0.00411522
  0
VERTEX
  8
0
 10
1.16005
 20
1.17687
 30
0.0
 40
0.00411522
 41
0.00411522
  0
VERTEX
  8
0
 10
1.15875
 20
1.11117
 30
0.0
 40
0.00411522
 41
0.00411522
  0
VERTEX
  8
0
 10
1.15788
 20
1.06071
 30
0.0
 40
0.00411522
 41
0.00411522
  0
VERTEX
  8
0
 10
1.15712
 20
1.03136
 30
0.0
 40
0.00411522
 41
0.00411522
  0
VERTEX
  8
0
 10
1.15625
 20
1.01633
 30
0.0
 40
0.00411522
 41
0.00411522
  0
VERTEX
  8
0
 10
1.15191
 20
1.00841
 30
0.0
 40
0.00411522
 41
0.00411522
  0
VERTEX
  8
0
 10
1.14714
 20
1.00461
 30
0.0
 40
0.00411522
 41
0.00411522
  0
VERTEX
  8
0
 10
1.13612
 20
1.00277
 30
0.0
 40
0.00411522
 41
0.00411522
  0
VERTEX
  8
0
 10
1.10802
 20
1.00217
 30
0.0
 40
0.00411522
 41
0.00411522
  0
VERTEX
  8
0
 10
1.05225
 20
1.00212
 30
0.0
 40
0.00411522
 41
0.00411522
  0
VERTEX
  8
0
 10
1.00586
 20
1.00228
 30
0.0
 40
0.00411522
 41
0.00411522
  0
VERTEX
  8
0
 10
0.97819
 20
1.0025
 30
0.0
 40
0.00411522
 41
0.00411522
  0
VERTEX
  8
0
 10
0.964085
 20
1.00298
 30
0.0
 40
0.00411522
 41
0.00411522
  0
VERTEX
  8
0
 10
0.958333
 20
1.0038
 30
0.0
 40
0.00411522
 41
0.00411522
  0
SEQEND
 8
0
  0
POLYLINE
  8
0
 62
     254
 66
     1
 10
0
 20
0
 30
0.0
 70
     1
 40
0
 41
0
  0
VERTEX
  8
0
 10
0.961697
 20
1.54574
 30
0.0
 40
0
 41
0
  0
VERTEX
  8
0
 10
0.946506
 20
1.56278
 30
0.0
 40
0
 41
0
  0
VERTEX
  8
0
 10
0.945964
 20
1.572
 30
0.0
 40
0
 41
0
  0
VERTEX
  8
0
 10
0.945475
 20
1.595
 30
0.0
 40
0
 41
0
  0
VERTEX
  8
0
 10
0.945096
 20
1.63237
 30
0.0
 40
0
 41
0
  0
VERTEX
  8
0
 10
0.944769
 20
1.68435
 30
0.0
 40
0
 41
0
  0
VERTEX
  8
0
 10
0.944174
 20
1.80132
 30
0.0
 40
0
 41
0
  0
VERTEX
  8
0
 10
0.94694
 20
1.80701
 30
0.0
 40
0
 41
0
  0
VERTEX
  8
0
 10
0.961317
 20
1.82081
 30
0.0
 40
0
 41
0
  0
VERTEX
  8
0
 10
0.966581
 20
1.82357
 30
0.0
 40
0
 41
0
  0
VERTEX
  8
0
 10
1.05301
 20
1.82351
 30
0.0
 40
0
 41
0
  0
VERTEX
  8
0
 10
1.09918
 20
1.82346
 30
0.0
 40
0
 41
0
  0
VERTEX
  8
0
 10
1.12603
 20
1.82319
 30
0.0
 40
0
 41
0
  0
VERTEX
  8
0
 10
1.13938
 20
1.82264
 30
0.0
 40
0
 41
0
  0
VERTEX
  8
0
 10
1.14507
 20
1.82172
 30
0.0
 40
0
 41
0
  0
VERTEX
  8
0
 10
1.16461
 20
1.80117
 30
0.0
 40
0
 41
0
  0
VERTEX
  8
0
 10
1.16504
 20
1.79449
 30
0.0
 40
0
 41
0
  0
VERTEX
  8
0
 10
1.16509
 20
1.77908
 30
0.0
 40
0
 41
0
  0
VERTEX
  8
0
 10
1.16477
 20
1.75293
 30
0.0
 40
0
 41
0
  0
VERTEX
  8
0
 10
1.16412
 20
1.71397
 30
0.0
 40
0
 41
0
  0
VERTEX
  8
0
 10
1.16271
 20
1.64518
 30
0.0
 40
0
 41
0
  0
VERTEX
  8
0
 10
1.16173
 20
1.59457
 30
0.0
 40
0
 41
0
  0
VERTEX
  8
0
 10
1.16103
 20
1.55697
 30
0.0
 40
0
 41
0
  0
VERTEX
  8
0
 10
1.15826
 20
1.55279
 30
0.0
 40
0
 41
0
  0
VERTEX
  8
0
 10
1.15099
 20
1.54644
 30
0.0
 40
0
 41
0
  0
VERTEX
  8
0
 10
1.14692
 20
1.54519
 30
0.0
 40
0
 41
0
  0
VERTEX
  8
0
 10
1.13558
 20
1.54454
 30
0.0
 40
0
 41
0
  0
VERTEX
  8
0
 10
1.10824
 20
1.54432
 30
0.0
 40
0
 41
0
  0
VERTEX
  8
0
 10
1.05599
 20
1.54428
 30
0.0
 40
0
 41
0
  0
VERTEX
  8
0
 10
1.01096
 20
1.54438
 30
0.0
 40
0
 41
0
  0
VERTEX
  8
0
 10
0.982693
 20
1.5446
 30
0.0
 40
0
 41
0
  0
VERTEX
  8
0
 10
0.967503
 20
1.54503
 30
0.0
 40
0
 41
0
  0
VERTEX
  8
0
 10
0.961697
 20
1.54568
 30
0.0
 40
0
 41
0
  0
VERTEX
  8
0
 10
0.961697
 20
1.54574
 30
0.0
 40
0
 41
0
  0
SEQEND
 8
0
  0
POLYLINE
  8
0
 62
     13
 66
     1
 10
0
 20
0
 30
0.0
 70
     1
 40
0.296296
 41
0.296296
  0
VERTEX
  8
0
 10
0.961697
 20
1.54574
 30
0.0
 40
0.00411522
 41
0.00411522
  0
VERTEX
  8
0
 10
0.946506
 20
1.56278
 30
0.0
 40
0.00411522
 41
0.00411522
  0
VERTEX
  8
0
 10
0.945964
 20
1.572
 30
0.0
 40
0.00411522
 41
0.00411522
  0
VERTEX
  8
0
 10
0.945475
 20
1.595
 30
0.0
 40
0.00411522
 41
0.00411522
  0
VERTEX
  8
0
 10
0.945096
 20
1.63237
 30
0.0
 40
0.00411522
 41
0.00411522
  0
VERTEX
  8
0
 10
0.944769
 20
1.68435
 30
0.0
 40
0.00411522
 41
0.00411522
  0
VERTEX
  8
0
 10
0.944174
 20
1.80132
 30
0.0
 40
0.00411522
 41
0.00411522
  0
VERTEX
  8
0
 10
0.94694
 20
1.80701
 30
0.0
 40
0.00411522
 41
0.00411522
  0
VERTEX
  8
0
 10
0.961317
 20
1.82081
 30
0.0
 40
0.00411522
 41
0.00411522
  0
VERTEX
  8
0
 10
0.966581
 20
1.82357
 30
0.0
 40
0.00411522
 41
0.00411522
  0
VERTEX
  8
0
 10
1.05301
 20
1.82351
 30
0.0
 40
0.00411522
 41
0.00411522
  0
VERTEX
  8
0
 10
1.09918
 20
1.82346
 30
0.0
 40
0.00411522
 41
0.00411522
  0
VERTEX
  8
0
 10
1.12603
 20
1.82319
 30
0.0
 40
0.00411522
 41
0.00411522
  0
VERTEX
  8
0
 10
1.13938
 20
1.82264
 30
0.0
 40
0.00411522
 41
0.00411522
  0
VERTEX
  8
0
 10
1.14507
 20
1.82172
 30
0.0
 40
0.00411522
 41
0.00411522
  0
VERTEX
  8
0
 10
1.16461
 20
1.80117
 30
0.0
 40
0.00411522
 41
0.00411522
  0
VERTEX
  8
0
 10
1.16504
 20
1.79449
 30
0.0
 40
0.00411522
 41
0.00411522
  0
VERTEX
  8
0
 10
1.16509
 20
1.77908
 30
0.0
 40
0.00411522
 41
0.00411522
  0
VERTEX
  8
0
 10
1.16477
 20
1.75293
 30
0.0
 40
0.00411522
 41
0.00411522
  0
VERTEX
  8
0
 10
1.16412
 20
1.71397
 30
0.0
 40
0.00411522
 41
0.00411522
  0
VERTEX
  8
0
 10
1.16271
 20
1.64518
 30
0.0
 40
0.00411522
 41
0.00411522
  0
VERTEX
  8
0
 10
1.16173
 20
1.59457
 30
0.0
 40
0.00411522
 41
0.00411522
  0
VERTEX
  8
0
 10
1.16103
 20
1.55697
 30
0.0
 40
0.00411522
 41
0.00411522
  0
VERTEX
  8
0
 10
1.15826
 20
1.55279
 30
0.0
 40
0.00411522
 41
0.00411522
  0
VERTEX
  8
0
 10
1.15099
 20
1.54644
 30
0.0
 40
0.00411522
 41
0.00411522
  0
VERTEX
  8
0
 10
1.14692
 20
1.54519
 30
0.0
 40
0.00411522
 41
0.00411522
  0
VERTEX
  8
0
 10
1.13558
 20
1.54454
 30
0.0
 40
0.00411522
 41
0.00411522
  0
VERTEX
  8
0
 10
1.10824
 20
1.54432
 30
0.0
 40
0.00411522
 41
0.00411522
  0
VERTEX
  8
0
 10
1.05599
 20
1.54428
 30
0.0
 40
0.00411522
 41
0.00411522
  0
VERTEX
  8
0
 10
1.01096
 20
1.54438
 30
0.0
 40
0.00411522
 41
0.00411522
  0
VERTEX
  8
0
 10
0.982693
 20
1.5446
 30
0.0
 40
0.00411522
 41
0.00411522
  0
VERTEX
  8
0
 10
0.967503
 20
1.54503
 30
0.0
 40
0.00411522
 41
0.00411522
  0
VERTEX
  8
0
 10
0.961697
 20
1.54568
 30
0.0
 40
0.00411522
 41
0.00411522
  0
VERTEX
  8
0
 10
0.961697
 20
1.54574
 30
0.0
 40
0.00411522
 41
0.00411522
  0
SEQEND
 8
0
  0
POLYLINE
  8
0
 62
     0
 66
     1
 10
0
 20
0
 30
0.0
 70
     1
 40
0
 41
0
  0
VERTEX
  8
0
 10
2.16439
 20
0.735568
 30
0.0
 40
0
 41
0
  0
VERTEX
  8
0
 10
2.19824
 20
0.746799
 30
0.0
 40
0
 41
0
  0
VERTEX
  8
0
 10
2.22939
 20
0.76416
 30
0.0
 40
0
 41
0
  0
VERTEX
  8
0
 10
2.27056
 20
0.804742
 30
0.0
 40
0
 41
0
  0
VERTEX
  8
0
 10
2.29676
 20
0.85395
 30
0.0
 40
0
 41
0
  0
VERTEX
  8
0
 10
2.29904
 20
0.861111
 30
0.0
 40
0
 41
0
  0
VERTEX
  8
0
 10
2.30078
 20
0.867839
 30
0.0
 40
0
 41
0
  0
VERTEX
  8
0
 10
2.30197
 20
0.876736
 30
0.0
 40
0
 41
0
  0
VERTEX
  8
0
 10
2.30279
 20
0.890354
 30
0.0
 40
0
 41
0
  0
VERTEX
  8
0
 10
2.30322
 20
0.911187
 30
0.0
 40
0
 41
0
  0
VERTEX
  8
0
 10
2.30344
 20
0.941894
 30
0.0
 40
0
 41
0
  0
VERTEX
  8
0
 10
2.3035
 20
0.985026
 30
0.0
 40
0
 41
0
  0
VERTEX
  8
0
 10
2.3035
 20
1.04308
 30
0.0
 40
0
 41
0
  0
VERTEX
  8
0
 10
2.30274
 20
1.22423
 30
0.0
 40
0
 41
0
  0
VERTEX
  8
0
 10
2.30046
 20
1.30452
 30
0.0
 40
0
 41
0
  0
VERTEX
  8
0
 10
2.29883
 20
1.31494
 30
0.0
 40
0
 41
0
  0
VERTEX
  8
0
 10
2.29531
 20
1.32368
 30
0.0
 40
0
 41
0
  0
VERTEX
  8
0
 10
2.27875
 20
1.34901
 30
0.0
 40
0
 41
0
  0
VERTEX
  8
0
 10
2.25103
 20
1.38194
 30
0.0
 40
0
 41
0
  0
VERTEX
  8
0
 10
2.23953
 20
1.39725
 30
0.0
 40
0
 41
0
  0
VERTEX
  8
0
 10
2.23719
 20
1.41254
 30
0.0
 40
0
 41
0
  0
VERTEX
  8
0
 10
2.23828
 20
1.42318
 30
0.0
 40
0
 41
0
  0
VERTEX
  8
0
 10
2.24957
 20
1.43403
 30
0.0
 40
0
 41
0
  0
VERTEX
  8
0
 10
2.27632
 20
1.46257
 30
0.0
 40
0
 41
0
  0
VERTEX
  8
0
 10
2.2965
 20
1.49294
 30
0.0
 40
0
 41
0
  0
VERTEX
  8
0
 10
2.30171
 20
1.50965
 30
0.0
 40
0
 41
0
  0
VERTEX
  8
0
 10
2.30251
 20
1.56467
 30
0.0
 40
0
 41
0
  0
VERTEX
  8
0
 10
2.30279
 20
1.67692
 30
0.0
 40
0
 41
0
  0
VERTEX
  8
0
 10
2.30251
 20
1.796
 30
0.0
 40
0
 41
0
  0
VERTEX
  8
0
 10
2.30165
 20
1.87142
 30
0.0
 40
0
 41
0
  0
VERTEX
  8
0
 10
2.30012
 20
1.91271
 30
0.0
 40
0
 41
0
  0
VERTEX
  8
0
 10
2.2985
 20
1.9394
 30
0.0
 40
0
 41
0
  0
VERTEX
  8
0
 10
2.29639
 20
1.95703
 30
0.0
 40
0
 41
0
  0
VERTEX
  8
0
 10
2.29329
 20
1.97097
 30
0.0
 40
0
 41
0
  0
VERTEX
  8
0
 10
2.26503
 20
2.02735
 30
0.0
 40
0
 41
0
  0
VERTEX
  8
0
 10
2.22715
 20
2.05811
 30
0.0
 40
0
 41
0
  0
VERTEX
  8
0
 10
2.17447
 20
2.07932
 30
0.0
 40
0
 41
0
  0
VERTEX
  8
0
 10
2.16581
 20
2.08062
 30
0.0
 40
0
 41
0
  0
VERTEX
  8
0
 10
2.13764
 20
2.08132
 30
0.0
 40
0
 41
0
  0
VERTEX
  8
0
 10
2.06793
 20
2.08182
 30
0.0
 40
0
 41
0
  0
VERTEX
  8
0
 10
1.93468
 20
2.08231
 30
0.0
 40
0
 41
0
  0
VERTEX
  8
0
 10
1.79275
 20
2.08279
 30
0.0
 40
0
 41
0
  0
VERTEX
  8
0
 10
1.72119
 20
2.08251
 30
0.0
 40
0
 41
0
  0
VERTEX
  8
0
 10
1.69174
 20
2.08117
 30
0.0
 40
0
 41
0
  0
VERTEX
  8
0
 10
1.67637
 20
2.07813
 30
0.0
 40
0
 41
0
  0
VERTEX
  8
0
 10
1.65935
 20
2.072
 30
0.0
 40
0
 41
0
  0
VERTEX
  8
0
 10
1.63476
 20
2.05604
 30
0.0
 40
0
 41
0
  0
VERTEX
  8
0
 10
1.58974
 20
2.0154
 30
0.0
 40
0
 41
0
  0
VERTEX
  8
0
 10
1.56521
 20
1.96967
 30
0.0
 40
0
 41
0
  0
VERTEX
  8
0
 10
1.56233
 20
1.96039
 30
0.0
 40
0
 41
0
  0
VERTEX
  8
0
 10
1.56418
 20
1.73112
 30
0.0
 40
0
 41
0
  0
VERTEX
  8
0
 10
1.56597
 20
1.50185
 30
0.0
 40
0
 41
0
  0
VERTEX
  8
0
 10
1.57096
 20
1.48958
 30
0.0
 40
0
 41
0
  0
VERTEX
  8
0
 10
1.58083
 20
1.4694
 30
0.0
 40
0
 41
0
  0
VERTEX
  8
0
 10
1.59663
 20
1.45063
 30
0.0
 40
0
 41
0
  0
VERTEX
  8
0
 10
1.61833
 20
1.43294
 30
0.0
 40
0
 41
0
  0
VERTEX
  8
0
 10
1.632
 20
1.42133
 30
0.0
 40
0
 41
0
  0
VERTEX
  8
0
 10
1.63265
 20
1.40771
 30
0.0
 40
0
 41
0
  0
VERTEX
  8
0
 10
1.62679
 20
1.40056
 30
0.0
 40
0
 41
0
  0
VERTEX
  8
0
 10
1.61431
 20
1.38737
 30
0.0
 40
0
 41
0
  0
VERTEX
  8
0
 10
1.58951
 20
1.35981
 30
0.0
 40
0
 41
0
  0
VERTEX
  8
0
 10
1.57454
 20
1.33539
 30
0.0
 40
0
 41
0
  0
VERTEX
  8
0
 10
1.56967
 20
1.32509
 30
0.0
 40
0
 41
0
  0
VERTEX
  8
0
 10
1.56728
 20
1.30176
 30
0.0
 40
0
 41
0
  0
VERTEX
  8
0
 10
1.56625
 20
1.23817
 30
0.0
 40
0
 41
0
  0
VERTEX
  8
0
 10
1.56554
 20
1.10699
 30
0.0
 40
0
 41
0
  0
VERTEX
  8
0
 10
1.56506
 20
1.00651
 30
0.0
 40
0
 41
0
  0
VERTEX
  8
0
 10
1.56494
 20
0.940756
 30
0.0
 40
0
 41
0
  0
VERTEX
  8
0
 10
1.56511
 20
0.903211
 30
0.0
 40
0
 41
0
  0
VERTEX
  8
0
 10
1.56569
 20
0.887369
 30
0.0
 40
0
 41
0
  0
VERTEX
  8
0
 10
1.57954
 20
0.83035
 30
0.0
 40
0
 41
0
  0
VERTEX
  8
0
 10
1.60726
 20
0.783638
 30
0.0
 40
0
 41
0
  0
VERTEX
  8
0
 10
1.61854
 20
0.772081
 30
0.0
 40
0
 41
0
  0
VERTEX
  8
0
 10
1.63146
 20
0.763183
 30
0.0
 40
0
 41
0
  0
VERTEX
  8
0
 10
1.66835
 20
0.74669
 30
0.0
 40
0
 41
0
  0
VERTEX
  8
0
 10
1.71192
 20
0.735568
 30
0.0
 40
0
 41
0
  0
VERTEX
  8
0
 10
1.72308
 20
0.734592
 30
0.0
 40
0
 41
0
  0
VERTEX
  8
0
 10
1.75315
 20
0.733996
 30
0.0
 40
0
 41
0
  0
VERTEX
  8
0
 10
1.81922
 20
0.733778
 30
0.0
 40
0
 41
0
  0
VERTEX
  8
0
 10
1.93881
 20
0.733669
 30
0.0
 40
0
 41
0
  0
VERTEX
  8
0
 10
2.06158
 20
0.733669
 30
0.0
 40
0
 41
0
  0
VERTEX
  8
0
 10
2.12706
 20
0.733886
 30
0.0
 40
0
 41
0
  0
VERTEX
  8
0
 10
2.15479
 20
0.734483
 30
0.0
 40
0
 41
0
  0
VERTEX
  8
0
 10
2.16439
 20
0.735568
 30
0.0
 40
0
 41
0
  0
SEQEND
 8
0
  0
POLYLINE
  8
0
 62
     171
 66
     1
 10
0
 20
0
 30
0.0
 70
     1
 40
0.296296
 41
0.296296
  0
VERTEX
  8
0
 10
2.16439
 20
0.735568
 30
0.0
 40
0.00411522
 41
0.00411522
  0
VERTEX
  8
0
 10
2.19824
 20
0.746799
 30
0.0
 40
0.00411522
 41
0.00411522
  0
VERTEX
  8
0
 10
2.22939
 20
0.76416
 30
0.0
 40
0.00411522
 41
0.00411522
  0
VERTEX
  8
0
 10
2.27056
 20
0.804742
 30
0.0
 40
0.00411522
 41
0.00411522
  0
VERTEX
  8
0
 10
2.29676
 20
0.85395
 30
0.0
 40
0.00411522
 41
0.00411522
  0
VERTEX
  8
0
 10
2.29904
 20
0.861111
 30
0.0
 40
0.00411522
 41
0.00411522
  0
VERTEX
  8
0
 10
2.30078
 20
0.867839
 30
0.0
 40
0.00411522
 41
0.00411522
  0
VERTEX
  8
0
 10
2.30197
 20
0.876736
 30
0.0
 40
0.00411522
 41
0.00411522
  0
VERTEX
  8
0
 10
2.30279
 20
0.890354
 30
0.0
 40
0.00411522
 41
0.00411522
  0
VERTEX
  8
0
 10
2.30322
 20
0.911187
 30
0.0
 40
0.00411522
 41
0.00411522
  0
VERTEX
  8
0
 10
2.30344
 20
0.941894
 30
0.0
 40
0.00411522
 41
0.00411522
  0
VERTEX
  8
0
 10
2.3035
 20
0.985026
 30
0.0
 40
0.00411522
 41
0.00411522
  0
VERTEX
  8
0
 10
2.3035
 20
1.04308
 30
0.0
 40
0.00411522
 41
0.00411522
  0
VERTEX
  8
0
 10
2.30274
 20
1.22423
 30
0.0
 40
0.00411522
 41
0.00411522
  0
VERTEX
  8
0
 10
2.30046
 20
1.30452
 30
0.0
 40
0.00411522
 41
0.00411522
  0
VERTEX
  8
0
 10
2.29883
 20
1.31494
 30
0.0
 40
0.00411522
 41
0.00411522
  0
VERTEX
  8
0
 10
2.29531
 20
1.32368
 30
0.0
 40
0.00411522
 41
0.00411522
  0
VERTEX
  8
0
 10
2.27875
 20
1.34901
 30
0.0
 40
0.00411522
 41
0.00411522
  0
VERTEX
  8
0
 10
2.25103
 20
1.38194
 30
0.0
 40
0.00411522
 41
0.00411522
  0
VERTEX
  8
0
 10
2.23953
 20
1.39725
 30
0.0
 40
0.00411522
 41
0.00411522
  0
VERTEX
  8
0
 10
2.23719
 20
1.41254
 30
0.0
 40
0.00411522
 41
0.00411522
  0
VERTEX
  8
0
 10
2.23828
 20
1.42318
 30
0.0
 40
0.00411522
 41
0.00411522
  0
VERTEX
  8
0
 10
2.24957
 20
1.43403
 30
0.0
 40
0.00411522
 41
0.00411522
  0
VERTEX
  8
0
 10
2.27632
 20
1.46257
 30
0.0
 40
0.00411522
 41
0.00411522
  0
VERTEX
  8
0
 10
2.2965
 20
1.49294
 30
0.0
 40
0.00411522
 41
0.00411522
  0
VERTEX
  8
0
 10
2.30171
 20
1.50965
 30
0.0
 40
0.00411522
 41
0.00411522
  0
VERTEX
  8
0
 10
2.30251
 20
1.56467
 30
0.0
 40
0.00411522
 41
0.00411522
  0
VERTEX
  8
0
 10
2.30279
 20
1.67692
 30
0.0
 40
0.00411522
 41
0.00411522
  0
VERTEX
  8
0
 10
2.30251
 20
1.796
 30
0.0
 40
0.00411522
 41
0.00411522
  0
VERTEX
  8
0
 10
2.30165
 20
1.87142
 30
0.0
 40
0.00411522
 41
0.00411522
  0
VERTEX
  8
0
 10
2.30012
 20
1.91271
 30
0.0
 40
0.00411522
 41
0.00411522
  0
VERTEX
  8
0
 10
2.2985
 20
1.9394
 30
0.0
 40
0.00411522
 41
0.00411522
  0
VERTEX
  8
0
 10
2.29639
 20
1.95703
 30
0.0
 40
0.00411522
 41
0.00411522
  0
VERTEX
  8
0
 10
2.29329
 20
1.97097
 30
0.0
 40
0.00411522
 41
0.00411522
  0
VERTEX
  8
0
 10
2.26503
 20
2.02735
 30
0.0
 40
0.00411522
 41
0.00411522
  0
VERTEX
  8
0
 10
2.22715
 20
2.05811
 30
0.0
 40
0.00411522
 41
0.00411522
  0
VERTEX
  8
0
 10
2.17447
 20
2.07932
 30
0.0
 40
0.00411522
 41
0.00411522
  0
VERTEX
  8
0
 10
2.16581
 20
2.08062
 30
0.0
 40
0.00411522
 41
0.00411522
  0
VERTEX
  8
0
 10
2.13764
 20
2.08132
 30
0.0
 40
0.00411522
 41
0.00411522
  0
VERTEX
  8
0
 10
2.06793
 20
2.08182
 30
0.0
 40
0.00411522
 41
0.00411522
  0
VERTEX
  8
0
 10
1.93468
 20
2.08231
 30
0.0
 40
0.00411522
 41
0.00411522
  0
VERTEX
  8
0
 10
1.79275
 20
2.08279
 30
0.0
 40
0.00411522
 41
0.00411522
  0
VERTEX
  8
0
 10
1.72119
 20
2.08251
 30
0.0
 40
0.00411522
 41
0.00411522
  0
VERTEX
  8
0
 10
1.69174
 20
2.08117
 30
0.0
 40
0.00411522
 41
0.00411522
  0
VERTEX
  8
0
 10
1.67637
 20
2.07813
 30
0.0
 40
0.00411522
 41
0.00411522
  0
VERTEX
  8
0
 10
1.65935
 20
2.072
 30
0.0
 40
0.00411522
 41
0.00411522
  0
VERTEX
  8
0
 10
1.63476
 20
2.05604
 30
0.0
 40
0.00411522
 41
0.00411522
  0
VERTEX
  8
0
 10
1.58974
 20
2.0154
 30
0.0
 40
0.00411522
 41
0.00411522
  0
VERTEX
  8
0
 10
1.56521
 20
1.96967
 30
0.0
 40
0.00411522
 41
0.00411522
  0
VERTEX
  8
0
 10
1.56233
 20
1.96039
 30
0.0
 40
0.00411522
 41
0.00411522
  0
VERTEX
  8
0
 10
1.56418
 20
1.73112
 30
0.0
 40
0.00411522
 41
0.00411522
  0
VERTEX
  8
0
 10
1.56597
 20
1.50185
 30
0.0
 40
0.00411522
 41
0.00411522
  0
VERTEX
  8
0
 10
1.57096
 20
1.48958
 30
0.0
 40
0.00411522
 41
0.00411522
  0
VERTEX
  8
0
 10
1.58083
 20
1.4694
 30
0.0
 40
0.00411522
 41
0.00411522
  0
VERTEX
  8
0
 10
1.59663
 20
1.45063
 30
0.0
 40
0.00411522
 41
0.00411522
  0
VERTEX
  8
0
 10
1.61833
 20
1.43294
 30
0.0
 40
0.00411522
 41
0.00411522
  0
VERTEX
  8
0
 10
1.632
 20
1.42133
 30
0.0
 40
0.00411522
 41
0.00411522
  0
VERTEX
  8
0
 10
1.63265
 20
1.40771
 30
0.0
 40
0.00411522
 41
0.00411522
  0
VERTEX
  8
0
 10
1.62679
 20
1.40056
 30
0.0
 40
0.00411522
 41
0.00411522
  0
VERTEX
  8
0
 10
1.61431
 20
1.38737
 30
0.0
 40
0.00411522
 41
0.00411522
  0
VERTEX
  8
0
 10
1.58951
 20
1.35981
 30
0.0
 40
0.00411522
 41
0.00411522
  0
VERTEX
  8
0
 10
1.57454
 20
1.33539
 30
0.0
 40
0.00411522
 41
0.00411522
  0
VERTEX
  8
0
 10
1.56967
 20
1.32509
 30
0.0
 40
0.00411522
 41
0.00411522
  0
VERTEX
  8
0
 10
1.56728
 20
1.30176
 30
0.0
 40
0.00411522
 41
0.00411522
  0
VERTEX
  8
0
 10
1.56625
 20
1.23817
 30
0.0
 40
0.00411522
 41
0.00411522
  0
VERTEX
  8
0
 10
1.56554
 20
1.10699
 30
0.0
 40
0.00411522
 41
0.00411522
  0
VERTEX
  8
0
 10
1.56506
 20
1.00651
 30
0.0
 40
0.00411522
 41
0.00411522
  0
VERTEX
  8
0
 10
1.56494
 20
0.940756
 30
0.0
 40
0.00411522
 41
0.00411522
  0
VERTEX
  8
0
 10
1.56511
 20
0.903211
 30
0.0
 40
0.00411522
 41
0.00411522
  0
VERTEX
  8
0
 10
1.56569
 20
0.887369
 30
0.0
 40
0.00411522
 41
0.00411522
  0
VERTEX
  8
0
 10
1.57954
 20
0.83035
 30
0.0
 40
0.00411522
 41
0.00411522
  0
VERTEX
  8
0
 10
1.60726
 20
0.783638
 30
0.0
 40
0.00411522
 41
0.00411522
  0
VERTEX
  8
0
 10
1.61854
 20
0.772081
 30
0.0
 40
0.00411522
 41
0.00411522
  0
VERTEX
  8
0
 10
1.63146
 20
0.763183
 30
0.0
 40
0.00411522
 41
0.00411522
  0
VERTEX
  8
0
 10
1.66835
 20
0.74669
 30
0.0
 40
0.00411522
 41
0.00411522
  0
VERTEX
  8
0
 10
1.71192
 20
0.735568
 30
0.0
 40
0.00411522
 41
0.00411522
  0
VERTEX
  8
0
 10
1.72308
 20
0.734592
 30
0.0
 40
0.00411522
 41
0.00411522
  0
VERTEX
  8
0
 10
1.75315
 20
0.733996
 30
0.0
 40
0.00411522
 41
0.00411522
  0
VERTEX
  8
0
 10
1.81922
 20
0.733778
 30
0.0
 40
0.00411522
 41
0.00411522
  0
VERTEX
  8
0
 10
1.93881
 20
0.733669
 30
0.0
 40
0.00411522
 41
0.00411522
  0
VERTEX
  8
0
 10
2.06158
 20
0.733669
 30
0.0
 40
0.00411522
 41
0.00411522
  0
VERTEX
  8
0
 10
2.12706
 20
0.733886
 30
0.0
 40
0.00411522
 41
0.00411522
  0
VERTEX
  8
0
 10
2.15479
 20
0.734483
 30
0.0
 40
0.00411522
 41
0.00411522
  0
VERTEX
  8
0
 10
2.16439
 20
0.735568
 30
0.0
 40
0.00411522
 41
0.00411522
  0
SEQEND
 8
0
  0
POLYLINE
  8
0
 62
     254
 66
     1
 10
0
 20
0
 30
0.0
 70
     1
 40
0
 41
0
  0
VERTEX
  8
0
 10
1.83903
 20
1.0038
 30
0.0
 40
0
 41
0
  0
VERTEX
  8
0
 10
1.82525
 20
1.01535
 30
0.0
 40
0
 41
0
  0
VERTEX
  8
0
 10
1.82281
 20
1.02431
 30
0.0
 40
0
 41
0
  0
VERTEX
  8
0
 10
1.82189
 20
1.05143
 30
0.0
 40
0
 41
0
  0
VERTEX
  8
0
 10
1.82161
 20
1.07026
 30
0.0
 40
0
 41
0
  0
VERTEX
  8
0
 10
1.82135
 20
1.09907
 30
0.0
 40
0
 41
0
  0
VERTEX
  8
0
 10
1.82118
 20
1.1339
 30
0.0
 40
0
 41
0
  0
VERTEX
  8
0
 10
1.82113
 20
1.17079
 30
0.0
 40
0
 41
0
  0
VERTEX
  8
0
 10
1.82101
 20
1.25977
 30
0.0
 40
0
 41
0
  0
VERTEX
  8
0
 10
1.8234
 20
1.26497
 30
0.0
 40
0
 41
0
  0
VERTEX
  8
0
 10
1.84033
 20
1.27989
 30
0.0
 40
0
 41
0
  0
VERTEX
  8
0
 10
1.84506
 20
1.28109
 30
0.0
 40
0
 41
0
  0
VERTEX
  8
0
 10
1.85656
 20
1.28168
 30
0.0
 40
0
 41
0
  0
VERTEX
  8
0
 10
1.88297
 20
1.28185
 30
0.0
 40
0
 41
0
  0
VERTEX
  8
0
 10
1.93246
 20
1.28168
 30
0.0
 40
0
 41
0
  0
VERTEX
  8
0
 10
1.98188
 20
1.28152
 30
0.0
 40
0
 41
0
  0
VERTEX
  8
0
 10
2.00819
 20
1.2812
 30
0.0
 40
0
 41
0
  0
VERTEX
  8
0
 10
2.01953
 20
1.28049
 30
0.0
 40
0
 41
0
  0
VERTEX
  8
0
 10
2.02399
 20
1.27924
 30
0.0
 40
0
 41
0
  0
VERTEX
  8
0
 10
2.03549
 20
1.27121
 30
0.0
 40
0
 41
0
  0
VERTEX
  8
0
 10
2.04118
 20
1.25841
 30
0.0
 40
0
 41
0
  0
VERTEX
  8
0
 10
2.04161
 20
1.23671
 30
0.0
 40
0
 41
0
  0
VERTEX
  8
0
 10
2.04069
 20
1.17687
 30
0.0
 40
0
 41
0
  0
VERTEX
  8
0
 10
2.03939
 20
1.11117
 30
0.0
 40
0
 41
0
  0
VERTEX
  8
0
 10
2.03851
 20
1.06071
 30
0.0
 40
0
 41
0
  0
VERTEX
  8
0
 10
2.03776
 20
1.03136
 30
0.0
 40
0
 41
0
  0
VERTEX
  8
0
 10
2.03689
 20
1.01633
 30
0.0
 40
0
 41
0
  0
VERTEX
  8
0
 10
2.03261
 20
1.00841
 30
0.0
 40
0
 41
0
  0
VERTEX
  8
0
 10
2.02783
 20
1.00461
 30
0.0
 40
0
 41
0
  0
VERTEX
  8
0
 10
2.01676
 20
1.00277
 30
0.0
 40
0
 41
0
  0
VERTEX
  8
0
 10
1.98872
 20
1.00217
 30
0.0
 40
0
 41
0
  0
VERTEX
  8
0
 10
1.93289
 20
1.00212
 30
0.0
 40
0
 41
0
  0
VERTEX
  8
0
 10
1.8865
 20
1.00228
 30
0.0
 40
0
 41
0
  0
VERTEX
  8
0
 10
1.85889
 20
1.0025
 30
0.0
 40
0
 41
0
  0
VERTEX
  8
0
 10
1.84472
 20
1.00298
 30
0.0
 40
0
 41
0
  0
VERTEX
  8
0
 10
1.83897
 20
1.0038
 30
0.0
 40
0
 41
0
  0
VERTEX
  8
0
 10
1.83903
 20
1.0038
 30
0.0
 40
0
 41
0
  0
SEQEND
 8
0
  0
POLYLINE
  8
0
 62
     13
 66
     1
 10
0
 20
0
 30
0.0
 70
     1
 40
0.296296
 41
0.296296
  0
VERTEX
  8
0
 10
1.83903
 20
1.0038
 30
0.0
 40
0.00411522
 41
0.00411522
  0
VERTEX
  8
0
 10
1.82525
 20
1.01535
 30
0.0
 40
0.00411522
 41
0.00411522
  0
VERTEX
  8
0
 10
1.82281
 20
1.02431
 30
0.0
 40
0.00411522
 41
0.00411522
  0
VERTEX
  8
0
 10
1.82189
 20
1.05143
 30
0.0
 40
0.00411522
 41
0.00411522
  0
VERTEX
  8
0
 10
1.82161
 20
1.07026
 30
0.0
 40
0.00411522
 41
0.00411522
  0
VERTEX
  8
0
 10
1.82135
 20
1.09907
 30
0.0
 40
0.00411522
 41
0.00411522
  0
VERTEX
  8
0
 10
1.82118
 20
1.1339
 30
0.0
 40
0.00411522
 41
0.00411522
  0
VERTEX
  8
0
 10
1.82113
 20
1.17079
 30
0.0
 40
0.00411522
 41
0.00411522
  0
VERTEX
  8
0
 10
1.82101
 20
1.25977
 30
0.0
 40
0.00411522
 41
0.00411522
  0
VERTEX
  8
0
 10
1.8234
 20
1.26497
 30
0.0
 40
0.00411522
 41
0.00411522
  0
VERTEX
  8
0
 10
1.84033
 20
1.27989
 30
0.0
 40
0.00411522
 41
0.00411522
  0
VERTEX
  8
0
 10
1.84506
 20
1.28109
 30
0.0
 40
0.00411522
 41
0.00411522
  0
VERTEX
  8
0
 10
1.85656
 20
1.28168
 30
0.0
 40
0.00411522
 41
0.00411522
  0
VERTEX
  8
0
 10
1.88297
 20
1.28185
 30
0.0
 40
0.00411522
 41
0.00411522
  0
VERTEX
  8
0
 10
1.93246
 20
1.28168
 30
0.0
 40
0.00411522
 41
0.00411522
  0
VERTEX
  8
0
 10
1.98188
 20
1.28152
 30
0.0
 40
0.00411522
 41
0.00411522
  0
VERTEX
  8
0
 10
2.00819
 20
1.2812
 30
0.0
 40
0.00411522
 41
0.00411522
  0
VERTEX
  8
0
 10
2.01953
 20
1.28049
 30
0.0
 40
0.00411522
 41
0.00411522
  0
VERTEX
  8
0
 10
2.02399
 20
1.27924
 30
0.0
 40
0.00411522
 41
0.00411522
  0
VERTEX
  8
0
 10
2.03549
 20
1.27121
 30
0.0
 40
0.00411522
 41
0.00411522
  0
VERTEX
  8
0
 10
2.04118
 20
1.25841
 30
0.0
 40
0.00411522
 41
0.00411522
  0
VERTEX
  8
0
 10
2.04161
 20
1.23671
 30
0.0
 40
0.00411522
 41
0.00411522
  0
VERTEX
  8
0
 10
2.04069
 20
1.17687
 30
0.0
 40
0.00411522
 41
0.00411522
  0
VERTEX
  8
0
 10
2.03939
 20
1.11117
 30
0.0
 40
0.00411522
 41
0.00411522
  0
VERTEX
  8
0
 10
2.03851
 20
1.06071
 30
0.0
 40
0.00411522
 41
0.00411522
  0
VERTEX
  8
0
 10
2.03776
 20
1.03136
 30
0.0
 40
0.00411522
 41
0.00411522
  0
VERTEX
  8
0
 10
2.03689
 20
1.01633
 30
0.0
 40
0.00411522
 41
0.00411522
  0
VERTEX
  8
0
 10
2.03261
 20
1.00841
 30
0.0
 40
0.00411522
 41
0.00411522
  0
VERTEX
  8
0
 10
2.02783
 20
1.00461
 30
0.0
 40
0.00411522
 41
0.00411522
  0
VERTEX
  8
0
 10
2.01676
 20
1.00277
 30
0.0
 40
0.00411522
 41
0.00411522
  0
VERTEX
  8
0
 10
1.98872
 20
1.00217
 30
0.0
 40
0.00411522
 41
0.00411522
  0
VERTEX
  8
0
 10
1.93289
 20
1.00212
 30
0.0
 40
0.00411522
 41
0.00411522
  0
VERTEX
  8
0
 10
1.8865
 20
1.00228
 30
0.0
 40
0.00411522
 41
0.00411522
  0
VERTEX
  8
0
 10
1.85889
 20
1.0025
 30
0.0
 40
0.00411522
 41
0.00411522
  0
VERTEX
  8
0
 10
1.84472
 20
1.00298
 30
0.0
 40
0.00411522
 41
0.00411522
  0
VERTEX
  8
0
 10
1.83897
 20
1.0038
 30
0.0
 40
0.00411522
 41
0.00411522
  0
VERTEX
  8
0
 10
1.83903
 20
1.0038
 30
0.0
 40
0.00411522
 41
0.00411522
  0
SEQEND
 8
0
  0
POLYLINE
  8
0
 62
     254
 66
     1
 10
0
 20
0
 30
0.0
 70
     1
 40
0
 41
0
  0
VERTEX
  8
0
 10
1.84233
 20
1.54574
 30
0.0
 40
0
 41
0
  0
VERTEX
  8
0
 10
1.82715
 20
1.56278
 30
0.0
 40
0
 41
0
  0
VERTEX
  8
0
 10
1.82661
 20
1.572
 30
0.0
 40
0
 41
0
  0
VERTEX
  8
0
 10
1.82611
 20
1.595
 30
0.0
 40
0
 41
0
  0
VERTEX
  8
0
 10
1.82574
 20
1.63237
 30
0.0
 40
0
 41
0
  0
VERTEX
  8
0
 10
1.82542
 20
1.68435
 30
0.0
 40
0
 41
0
  0
VERTEX
  8
0
 10
1.82482
 20
1.80132
 30
0.0
 40
0
 41
0
  0
VERTEX
  8
0
 10
1.82758
 20
1.80701
 30
0.0
 40
0
 41
0
  0
VERTEX
  8
0
 10
1.84196
 20
1.82081
 30
0.0
 40
0
 41
0
  0
VERTEX
  8
0
 10
1.84722
 20
1.82357
 30
0.0
 40
0
 41
0
  0
VERTEX
  8
0
 10
1.93365
 20
1.82351
 30
0.0
 40
0
 41
0
  0
VERTEX
  8
0
 10
1.97982
 20
1.82346
 30
0.0
 40
0
 41
0
  0
VERTEX
  8
0
 10
2.00667
 20
1.82319
 30
0.0
 40
0
 41
0
  0
VERTEX
  8
0
 10
2.02001
 20
1.82264
 30
0.0
 40
0
 41
0
  0
VERTEX
  8
0
 10
2.02572
 20
1.82172
 30
0.0
 40
0
 41
0
  0
VERTEX
  8
0
 10
2.04525
 20
1.80117
 30
0.0
 40
0
 41
0
  0
VERTEX
  8
0
 10
2.04568
 20
1.79449
 30
0.0
 40
0
 41
0
  0
VERTEX
  8
0
 10
2.04574
 20
1.77908
 30
0.0
 40
0
 41
0
  0
VERTEX
  8
0
 10
2.04542
 20
1.75293
 30
0.0
 40
0
 41
0
  0
VERTEX
  8
0
 10
2.04476
 20
1.71397
 30
0.0
 40
0
 41
0
  0
VERTEX
  8
0
 10
2.04335
 20
1.64518
 30
0.0
 40
0
 41
0
  0
VERTEX
  8
0
 10
2.04237
 20
1.59457
 30
0.0
 40
0
 41
0
  0
VERTEX
  8
0
 10
2.04167
 20
1.55697
 30
0.0
 40
0
 41
0
  0
VERTEX
  8
0
 10
2.0389
 20
1.55279
 30
0.0
 40
0
 41
0
  0
VERTEX
  8
0
 10
2.03162
 20
1.54644
 30
0.0
 40
0
 41
0
  0
VERTEX
  8
0
 10
2.02756
 20
1.54519
 30
0.0
 40
0
 41
0
  0
VERTEX
  8
0
 10
2.01622
 20
1.54454
 30
0.0
 40
0
 41
0
  0
VERTEX
  8
0
 10
1.98888
 20
1.54432
 30
0.0
 40
0
 41
0
  0
VERTEX
  8
0
 10
1.93668
 20
1.54428
 30
0.0
 40
0
 41
0
  0
VERTEX
  8
0
 10
1.89165
 20
1.54438
 30
0.0
 40
0
 41
0
  0
VERTEX
  8
0
 10
1.86339
 20
1.5446
 30
0.0
 40
0
 41
0
  0
VERTEX
  8
0
 10
1.84814
 20
1.54503
 30
0.0
 40
0
 41
0
  0
VERTEX
  8
0
 10
1.84233
 20
1.54568
 30
0.0
 40
0
 41
0
  0
VERTEX
  8
0
 10
1.84233
 20
1.54574
 30
0.0
 40
0
 41
0
  0
SEQEND
 8
0
  0
POLYLINE
  8
0
 62
     13
 66
     1
 10
0
 20
0
 30
0.0
 70
     1
 40
0.296296
 41
0.296296
  0
VERTEX
  8
0
 10
1.84233
 20
1.54574
 30
0.0
 40
0.00411522
 41
0.00411522
  0
VERTEX
  8
0
 10
1.82715
 20
1.56278
 30
0.0
 40
0.00411522
 41
0.00411522
  0
VERTEX
  8
0
 10
1.82661
 20
1.572
 30
0.0
 40
0.00411522
 41
0.00411522
  0
VERTEX
  8
0
 10
1.82611
 20
1.595
 30
0.0
 40
0.00411522
 41
0.00411522
  0
VERTEX
  8
0
 10
1.82574
 20
1.63237
 30
0.0
 40
0.00411522
 41
0.00411522
  0
VERTEX
  8
0
 10
1.82542
 20
1.68435
 30
0.0
 40
0.00411522
 41
0.00411522
  0
VERTEX
  8
0
 10
1.82482
 20
1.80132
 30
0.0
 40
0.00411522
 41
0.00411522
  0
VERTEX
  8
0
 10
1.82758
 20
1.80701
 30
0.0
 40
0.00411522
 41
0.00411522
  0
VERTEX
  8
0
 10
1.84196
 20
1.82081
 30
0.0
 40
0.00411522
 41
0.00411522
  0
VERTEX
  8
0
 10
1.84722
 20
1.82357
 30
0.0
 40
0.00411522
 41
0.00411522
  0
VERTEX
  8
0
 10
1.93365
 20
1.82351
 30
0.0
 40
0.00411522
 41
0.00411522
  0
VERTEX
  8
0
 10
1.97982
 20
1.82346
 30
0.0
 40
0.00411522
 41
0.00411522
  0
VERTEX
  8
0
 10
2.00667
 20
1.82319
 30
0.0
 40
0.00411522
 41
0.00411522
  0
VERTEX
  8
0
 10
2.02001
 20
1.82264
 30
0.0
 40
0.00411522
 41
0.00411522
  0
VERTEX
  8
0
 10
2.02572
 20
1.82172
 30
0.0
 40
0.00411522
 41
0.00411522
  0
VERTEX
  8
0
 10
2.04525
 20
1.80117
 30
0.0
 40
0.00411522
 41
0.00411522
  0
VERTEX
  8
0
 10
2.04568
 20
1.79449
 30
0.0
 40
0.00411522
 41
0.00411522
  0
VERTEX
  8
0
 10
2.04574
 20
1.77908
 30
0.0
 40
0.00411522
 41
0.00411522
  0
VERTEX
  8
0
 10
2.04542
 20
1.75293
 30
0.0
 40
0.00411522
 41
0.00411522
  0
VERTEX
  8
0
 10
2.04476
 20
1.71397
 30
0.0
 40
0.00411522
 41
0.00411522
  0
VERTEX
  8
0
 10
2.04335
 20
1.64518
 30
0.0
 40
0.00411522
 41
0.00411522
  0
VERTEX
  8
0
 10
2.04237
 20
1.59457
 30
0.0
 40
0.00411522
 41
0.00411522
  0
VERTEX
  8
0
 10
2.04167
 20
1.55697
 30
0.0
 40
0.00411522
 41
0.00411522
  0
VERTEX
  8
0
 10
2.0389
 20
1.55279
 30
0.0
 40
0.00411522
 41
0.00411522
  0
VERTEX
  8
0
 10
2.03162
 20
1.54644
 30
0.0
 40
0.00411522
 41
0.00411522
  0
VERTEX
  8
0
 10
2.02756
 20
1.54519
 30
0.0
 40
0.00411522
 41
0.00411522
  0
VERTEX
  8
0
 10
2.01622
 20
1.54454
 30
0.0
 40
0.00411522
 41
0.00411522
  0
VERTEX
  8
0
 10
1.98888
 20
1.54432
 30
0.0
 40
0.00411522
 41
0.00411522
  0
VERTEX
  8
0
 10
1.93668
 20
1.54428
 30
0.0
 40
0.00411522
 41
0.00411522
  0
VERTEX
  8
0
 10
1.89165
 20
1.54438
 30
0.0
 40
0.00411522
 41
0.00411522
  0
VERTEX
  8
0
 10
1.86339
 20
1.5446
 30
0.0
 40
0.00411522
 41
0.00411522
  0
VERTEX
  8
0
 10
1.84814
 20
1.54503
 30
0.0
 40
0.00411522
 41
0.00411522
  0
VERTEX
  8
0
 10
1.84233
 20
1.54568
 30
0.0
 40
0.00411522
 41
0.00411522
  0
VERTEX
  8
0
 10
1.84233
 20
1.54574
 30
0.0
 40
0.00411522
 41
0.00411522
  0
SEQEND
 8
0
  0
POLYLINE
  8
0
 62
     0
 66
     1
 10
0
 20
0
 30
0.0
 70
     1
 40
0
 41
0
  0
VERTEX
  8
0
 10
0.141439
 20
2.3974
 30
0.0
 40
0
 41
0
  0
VERTEX
  8
0
 10
0.144476
 20
2.41374
 30
0.0
 40
0
 41
0
  0
VERTEX
  8
0
 10
0.149957
 20
2.44103
 30
0.0
 40
0
 41
0
  0
VERTEX
  8
0
 10
0.156142
 20
2.47103
 30
0.0
 40
0
 41
0
  0
VERTEX
  8
0
 10
0.161404
 20
2.49539
 30
0.0
 40
0
 41
0
  0
VERTEX
  8
0
 10
0.211643
 20
2.68821
 30
0.0
 40
0
 41
0
  0
VERTEX
  8
0
 10
0.271485
 20
2.84901
 30
0.0
 40
0
 41
0
  0
VERTEX
  8
0
 10
0.289063
 20
2.88803
 30
0.0
 40
0
 41
0
  0
VERTEX
  8
0
 10
0.307237
 20
2.92632
 30
0.0
 40
0
 41
0
  0
VERTEX
  8
0
 10
0.321832
 20
2.95551
 30
0.0
 40
0
 41
0
  0
VERTEX
  8
0
 10
0.328831
 20
2.96707
 30
0.0
 40
0
 41
0
  0
VERTEX
  8
0
 10
0.335613
 20
2.96496
 30
0.0
 40
0
 41
0
  0
VERTEX
  8
0
 10
0.370768
 20
2.95188
 30
0.0
 40
0
 41
0
  0
VERTEX
  8
0
 10
0.414117
 20
2.93696
 30
0.0
 40
0
 41
0
  0
VERTEX
  8
0
 10
0.45969
 20
2.92219
 30
0.0
 40
0
 41
0
  0
VERTEX
  8
0
 10
0.501519
 20
2.90961
 30
0.0
 40
0
 41
0
  0
VERTEX
  8
0
 10
0.563422
 20
2.89285
 30
0.0
 40
0
 41
0
  0
VERTEX
  8
0
 10
0.614475
 20
2.88135
 30
0.0
 40
0
 41
0
  0
VERTEX
  8
0
 10
0.662543
 20
2.87369
 30
0.0
 40
0
 41
0
  0
VERTEX
  8
0
 10
0.715549
 20
2.86828
 30
0.0
 40
0
 41
0
  0
VERTEX
  8
0
 10
0.740722
 20
2.86719
 30
0.0
 40
0
 41
0
  0
VERTEX
  8
0
 10
0.777181
 20
2.8666
 30
0.0
 40
0
 41
0
  0
VERTEX
  8
0
 10
0.814453
 20
2.86654
 30
0.0
 40
0
 41
0
  0
VERTEX
  8
0
 10
0.842068
 20
2.86719
 30
0.0
 40
0
 41
0
  0
VERTEX
  8
0
 10
0.983886
 20
2.88075
 30
0.0
 40
0
 41
0
  0
VERTEX
  8
0
 10
1.11296
 20
2.90489
 30
0.0
 40
0
 41
0
  0
VERTEX
  8
0
 10
1.22765
 20
2.93951
 30
0.0
 40
0
 41
0
  0
VERTEX
  8
0
 10
1.33952
 20
2.98833
 30
0.0
 40
0
 41
0
  0
VERTEX
  8
0
 10
1.36724
 20
3.00244
 30
0.0
 40
0
 41
0
  0
VERTEX
  8
0
 10
1.39219
 20
3.01563
 30
0.0
 40
0
 41
0
  0
VERTEX
  8
0
 10
1.41982
 20
3.03088
 30
0.0
 40
0
 41
0
  0
VERTEX
  8
0
 10
1.45546
 20
3.05106
 30
0.0
 40
0
 41
0
  0
VERTEX
  8
0
 10
1.48426
 20
3.06733
 30
0.0
 40
0
 41
0
  0
VERTEX
  8
0
 10
1.49701
 20
3.07406
 30
0.0
 40
0
 41
0
  0
VERTEX
  8
0
 10
1.50754
 20
3.06847
 30
0.0
 40
0
 41
0
  0
VERTEX
  8
0
 10
1.53125
 20
3.05485
 30
0.0
 40
0
 41
0
  0
VERTEX
  8
0
 10
1.6034
 20
3.01367
 30
0.0
 40
0
 41
0
  0
VERTEX
  8
0
 10
1.66054
 20
2.98301
 30
0.0
 40
0
 41
0
  0
VERTEX
  8
0
 10
1.7091
 20
2.95958
 30
0.0
 40
0
 41
0
  0
VERTEX
  8
0
 10
1.75564
 20
2.94
 30
0.0
 40
0
 41
0
  0
VERTEX
  8
0
 10
1.90522
 20
2.89524
 30
0.0
 40
0
 41
0
  0
VERTEX
  8
0
 10
2.07611
 20
2.87044
 30
0.0
 40
0
 41
0
  0
VERTEX
  8
0
 10
2.10726
 20
2.868
 30
0.0
 40
0
 41
0
  0
VERTEX
  8
0
 10
2.12944
 20
2.8666
 30
0.0
 40
0
 41
0
  0
VERTEX
  8
0
 10
2.14849
 20
2.866
 30
0.0
 40
0
 41
0
  0
VERTEX
  8
0
 10
2.17025
 20
2.86583
 30
0.0
 40
0
 41
0
  0
VERTEX
  8
0
 10
2.27365
 20
2.87028
 30
0.0
 40
0
 41
0
  0
VERTEX
  8
0
 10
2.37549
 20
2.88232
 30
0.0
 40
0
 41
0
  0
VERTEX
  8
0
 10
2.43278
 20
2.89344
 30
0.0
 40
0
 41
0
  0
VERTEX
  8
0
 10
2.49067
 20
2.90881
 30
0.0
 40
0
 41
0
  0
VERTEX
  8
0
 10
2.55642
 20
2.93056
 30
0.0
 40
0
 41
0
  0
VERTEX
  8
0
 10
2.63721
 20
2.96083
 30
0.0
 40
0
 41
0
  0
VERTEX
  8
0
 10
2.65636
 20
2.96815
 30
0.0
 40
0
 41
0
  0
VERTEX
  8
0
 10
2.66515
 20
2.97119
 30
0.0
 40
0
 41
0
  0
VERTEX
  8
0
 10
2.66726
 20
2.96892
 30
0.0
 40
0
 41
0
  0
VERTEX
  8
0
 10
2.66965
 20
2.96322
 30
0.0
 40
0
 41
0
  0
VERTEX
  8
0
 10
2.67731
 20
2.94624
 30
0.0
 40
0
 41
0
  0
VERTEX
  8
0
 10
2.69222
 20
2.91342
 30
0.0
 40
0
 41
0
  0
VERTEX
  8
0
 10
2.71658
 20
2.86008
 30
0.0
 40
0
 41
0
  0
VERTEX
  8
0
 10
2.74203
 20
2.80285
 30
0.0
 40
0
 41
0
  0
VERTEX
  8
0
 10
2.76243
 20
2.75325
 30
0.0
 40
0
 41
0
  0
VERTEX
  8
0
 10
2.77919
 20
2.7079
 30
0.0
 40
0
 41
0
  0
VERTEX
  8
0
 10
2.79372
 20
2.66303
 30
0.0
 40
0
 41
0
  0
VERTEX
  8
0
 10
2.81799
 20
2.57086
 30
0.0
 40
0
 41
0
  0
VERTEX
  8
0
 10
2.83942
 20
2.46446
 30
0.0
 40
0
 41
0
  0
VERTEX
  8
0
 10
2.84289
 20
2.44401
 30
0.0
 40
0
 41
0
  0
VERTEX
  8
0
 10
2.84663
 20
2.42133
 30
0.0
 40
0
 41
0
  0
VERTEX
  8
0
 10
2.84956
 20
2.40261
 30
0.0
 40
0
 41
0
  0
VERTEX
  8
0
 10
2.85081
 20
2.39399
 30
0.0
 40
0
 41
0
  0
VERTEX
  8
0
 10
2.50103
 20
2.3935
 30
0.0
 40
0
 41
0
  0
VERTEX
  8
0
 10
2.17133
 20
2.39318
 30
0.0
 40
0
 41
0
  0
VERTEX
  8
0
 10
1.85319
 20
2.39301
 30
0.0
 40
0
 41
0
  0
VERTEX
  8
0
 10
1.53819
 20
2.39296
 30
0.0
 40
0
 41
0
  0
VERTEX
  8
0
 10
1.21788
 20
2.39296
 30
0.0
 40
0
 41
0
  0
VERTEX
  8
0
 10
0.883843
 20
2.39296
 30
0.0
 40
0
 41
0
  0
VERTEX
  8
0
 10
0.527615
 20
2.39301
 30
0.0
 40
0
 41
0
  0
VERTEX
  8
0
 10
0.140787
 20
2.39301
 30
0.0
 40
0
 41
0
  0
VERTEX
  8
0
 10
0.141439
 20
2.3974
 30
0.0
 40
0
 41
0
  0
SEQEND
 8
0
  0
POLYLINE
  8
0
 62
     171
 66
     1
 10
0
 20
0
 30
0.0
 70
     1
 40
0.296296
 41
0.296296
  0
VERTEX
  8
0
 10
0.141439
 20
2.3974
 30
0.0
 40
0.00411522
 41
0.00411522
  0
VERTEX
  8
0
 10
0.144476
 20
2.41374
 30
0.0
 40
0.00411522
 41
0.00411522
  0
VERTEX
  8
0
 10
0.149957
 20
2.44103
 30
0.0
 40
0.00411522
 41
0.00411522
  0
VERTEX
  8
0
 10
0.156142
 20
2.47103
 30
0.0
 40
0.00411522
 41
0.00411522
  0
VERTEX
  8
0
 10
0.161404
 20
2.49539
 30
0.0
 40
0.00411522
 41
0.00411522
  0
VERTEX
  8
0
 10
0.211643
 20
2.68821
 30
0.0
 40
0.00411522
 41
0.00411522
  0
VERTEX
  8
0
 10
0.271485
 20
2.84901
 30
0.0
 40
0.00411522
 41
0.00411522
  0
VERTEX
  8
0
 10
0.289063
 20
2.88803
 30
0.0
 40
0.00411522
 41
0.00411522
  0
VERTEX
  8
0
 10
0.307237
 20
2.92632
 30
0.0
 40
0.00411522
 41
0.00411522
  0
VERTEX
  8
0
 10
0.321832
 20
2.95551
 30
0.0
 40
0.00411522
 41
0.00411522
  0
VERTEX
  8
0
 10
0.328831
 20
2.96707
 30
0.0
 40
0.00411522
 41
0.00411522
  0
VERTEX
  8
0
 10
0.335613
 20
2.96496
 30
0.0
 40
0.00411522
 41
0.00411522
  0
VERTEX
  8
0
 10
0.370768
 20
2.95188
 30
0.0
 40
0.00411522
 41
0.00411522
  0
VERTEX
  8
0
 10
0.414117
 20
2.93696
 30
0.0
 40
0.00411522
 41
0.00411522
  0
VERTEX
  8
0
 10
0.45969
 20
2.92219
 30
0.0
 40
0.00411522
 41
0.00411522
  0
VERTEX
  8
0
 10
0.501519
 20
2.90961
 30
0.0
 40
0.00411522
 41
0.00411522
  0
VERTEX
  8
0
 10
0.563422
 20
2.89285
 30
0.0
 40
0.00411522
 41
0.00411522
  0
VERTEX
  8
0
 10
0.614475
 20
2.88135
 30
0.0
 40
0.00411522
 41
0.00411522
  0
VERTEX
  8
0
 10
0.662543
 20
2.87369
 30
0.0
 40
0.00411522
 41
0.00411522
  0
VERTEX
  8
0
 10
0.715549
 20
2.86828
 30
0.0
 40
0.00411522
 41
0.00411522
  0
VERTEX
  8
0
 10
0.740722
 20
2.86719
 30
0.0
 40
0.00411522
 41
0.00411522
  0
VERTEX
  8
0
 10
0.777181
 20
2.8666
 30
0.0
 40
0.00411522
 41
0.00411522
  0
VERTEX
  8
0
 10
0.814453
 20
2.86654
 30
0.0
 40
0.00411522
 41
0.00411522
  0
VERTEX
  8
0
 10
0.842068
 20
2.86719
 30
0.0
 40
0.00411522
 41
0.00411522
  0
VERTEX
  8
0
 10
0.983886
 20
2.88075
 30
0.0
 40
0.00411522
 41
0.00411522
  0
VERTEX
  8
0
 10
1.11296
 20
2.90489
 30
0.0
 40
0.00411522
 41
0.00411522
  0
VERTEX
  8
0
 10
1.22765
 20
2.93951
 30
0.0
 40
0.00411522
 41
0.00411522
  0
VERTEX
  8
0
 10
1.33952
 20
2.98833
 30
0.0
 40
0.00411522
 41
0.00411522
  0
VERTEX
  8
0
 10
1.36724
 20
3.00244
 30
0.0
 40
0.00411522
 41
0.00411522
  0
VERTEX
  8
0
 10
1.39219
 20
3.01563
 30
0.0
 40
0.00411522
 41
0.00411522
  0
VERTEX
  8
0
 10
1.41982
 20
3.03088
 30
0.0
 40
0.00411522
 41
0.00411522
  0
VERTEX
  8
0
 10
1.45546
 20
3.05106
 30
0.0
 40
0.00411522
 41
0.00411522
  0
VERTEX
  8
0
 10
1.48426
 20
3.06733
 30
0.0
 40
0.00411522
 41
0.00411522
  0
VERTEX
  8
0
 10
1.49701
 20
3.07406
 30
0.0
 40
0.00411522
 41
0.00411522
  0
VERTEX
  8
0
 10
1.50754
 20
3.06847
 30
0.0
 40
0.00411522
 41
0.00411522
  0
VERTEX
  8
0
 10
1.53125
 20
3.05485
 30
0.0
 40
0.00411522
 41
0.00411522
  0
VERTEX
  8
0
 10
1.6034
 20
3.01367
 30
0.0
 40
0.00411522
 41
0.00411522
  0
VERTEX
  8
0
 10
1.66054
 20
2.98301
 30
0.0
 40
0.00411522
 41
0.00411522
  0
VERTEX
  8
0
 10
1.7091
 20
2.95958
 30
0.0
 40
0.00411522
 41
0.00411522
  0
VERTEX
  8
0
 10
1.75564
 20
2.94
 30
0.0
 40
0.00411522
 41
0.00411522
  0
VERTEX
  8
0
 10
1.90522
 20
2.89524
 30
0.0
 40
0.00411522
 41
0.00411522
  0
VERTEX
  8
0
 10
2.07611
 20
2.87044
 30
0.0
 40
0.00411522
 41
0.00411522
  0
VERTEX
  8
0
 10
2.10726
 20
2.868
 30
0.0
 40
0.00411522
 41
0.00411522
  0
VERTEX
  8
0
 10
2.12944
 20
2.8666
 30
0.0
 40
0.00411522
 41
0.00411522
  0
VERTEX
  8
0
 10
2.14849
 20
2.866
 30
0.0
 40
0.00411522
 41
0.00411522
  0
VERTEX
  8
0
 10
2.17025
 20
2.86583
 30
0.0
 40
0.00411522
 41
0.00411522
  0
VERTEX
  8
0
 10
2.27365
 20
2.87028
 30
0.0
 40
0.00411522
 41
0.00411522
  0
VERTEX
  8
0
 10
2.37549
 20
2.88232
 30
0.0
 40
0.00411522
 41
0.00411522
  0
VERTEX
  8
0
 10
2.43278
 20
2.89344
 30
0.0
 40
0.00411522
 41
0.00411522
  0
VERTEX
  8
0
 10
2.49067
 20
2.90881
 30
0.0
 40
0.00411522
 41
0.00411522
  0
VERTEX
  8
0
 10
2.55642
 20
2.93056
 30
0.0
 40
0.00411522
 41
0.00411522
  0
VERTEX
  8
0
 10
2.63721
 20
2.96083
 30
0.0
 40
0.00411522
 41
0.00411522
  0
VERTEX
  8
0
 10
2.65636
 20
2.96815
 30
0.0
 40
0.00411522
 41
0.00411522
  0
VERTEX
  8
0
 10
2.66515
 20
2.97119
 30
0.0
 40
0.00411522
 41
0.00411522
  0
VERTEX
  8
0
 10
2.66726
 20
2.96892
 30
0.0
 40
0.00411522
 41
0.00411522
  0
VERTEX
  8
0
 10
2.66965
 20
2.96322
 30
0.0
 40
0.00411522
 41
0.00411522
  0
VERTEX
  8
0
 10
2.67731
 20
2.94624
 30
0.0
 40
0.00411522
 41
0.00411522
  0
VERTEX
  8
0
 10
2.69222
 20
2.91342
 30
0.0
 40
0.00411522
 41
0.00411522
  0
VERTEX
  8
0
 10
2.71658
 20
2.86008
 30
0.0
 40
0.00411522
 41
0.00411522
  0
VERTEX
  8
0
 10
2.74203
 20
2.80285
 30
0.0
 40
0.00411522
 41
0.00411522
  0
VERTEX
  8
0
 10
2.76243
 20
2.75325
 30
0.0
 40
0.00411522
 41
0.00411522
  0
VERTEX
  8
0
 10
2.77919
 20
2.7079
 30
0.0
 40
0.00411522
 41
0.00411522
  0
VERTEX
  8
0
 10
2.79372
 20
2.66303
 30
0.0
 40
0.00411522
 41
0.00411522
  0
VERTEX
  8
0
 10
2.81799
 20
2.57086
 30
0.0
 40
0.00411522
 41
0.00411522
  0
VERTEX
  8
0
 10
2.83942
 20
2.46446
 30
0.0
 40
0.00411522
 41
0.00411522
  0
VERTEX
  8
0
 10
2.84289
 20
2.44401
 30
0.0
 40
0.00411522
 41
0.00411522
  0
VERTEX
  8
0
 10
2.84663
 20
2.42133
 30
0.0
 40
0.00411522
 41
0.00411522
  0
VERTEX
  8
0
 10
2.84956
 20
2.40261
 30
0.0
 40
0.00411522
 41
0.00411522
  0
VERTEX
  8
0
 10
2.85081
 20
2.39399
 30
0.0
 40
0.00411522
 41
0.00411522
  0
VERTEX
  8
0
 10
2.50103
 20
2.3935
 30
0.0
 40
0.00411522
 41
0.00411522
  0
VERTEX
  8
0
 10
2.17133
 20
2.39318
 30
0.0
 40
0.00411522
 41
0.00411522
  0
VERTEX
  8
0
 10
1.85319
 20
2.39301
 30
0.0
 40
0.00411522
 41
0.00411522
  0
VERTEX
  8
0
 10
1.53819
 20
2.39296
 30
0.0
 40
0.00411522
 41
0.00411522
  0
VERTEX
  8
0
 10
1.21788
 20
2.39296
 30
0.0
 40
0.00411522
 41
0.00411522
  0
VERTEX
  8
0
 10
0.883843
 20
2.39296
 30
0.0
 40
0.00411522
 41
0.00411522
  0
VERTEX
  8
0
 10
0.527615
 20
2.39301
 30
0.0
 40
0.00411522
 41
0.00411522
  0
VERTEX
  8
0
 10
0.140787
 20
2.39301
 30
0.0
 40
0.00411522
 41
0.00411522
  0
VERTEX
  8
0
 10
0.141439
 20
2.3974
 30
0.0
 40
0.00411522
 41
0.00411522
  0
SEQEND
 8
0
  0
POLYLINE
  8
0
 62
     7
 66
     1
 10
0
 20
0
 30
0.0
 70
     1
 40
0
 41
0
  0
VERTEX
  8
0
 10
1.42904
 20
2.51139
 30
0.0
 40
0
 41
0
  0
VERTEX
  8
0
 10
1.42904
 20
2.56597
 30
0.0
 40
0
 41
0
  0
VERTEX
  8
0
 10
1.43599
 20
2.57406
 30
0.0
 40
0
 41
0
  0
VERTEX
  8
0
 10
1.44379
 20
2.58192
 30
0.0
 40
0
 41
0
  0
VERTEX
  8
0
 10
1.44629
 20
2.57699
 30
0.0
 40
0
 41
0
  0
VERTEX
  8
0
 10
1.45253
 20
2.56369
 30
0.0
 40
0
 41
0
  0
VERTEX
  8
0
 10
1.46149
 20
2.54406
 30
0.0
 40
0
 41
0
  0
VERTEX
  8
0
 10
1.47233
 20
2.52013
 30
0.0
 40
0
 41
0
  0
VERTEX
  8
0
 10
1.48307
 20
2.49621
 30
0.0
 40
0
 41
0
  0
VERTEX
  8
0
 10
1.49192
 20
2.47656
 30
0.0
 40
0
 41
0
  0
VERTEX
  8
0
 10
1.49794
 20
2.46326
 30
0.0
 40
0
 41
0
  0
VERTEX
  8
0
 10
1.50028
 20
2.45833
 30
0.0
 40
0
 41
0
  0
VERTEX
  8
0
 10
1.51139
 20
2.45844
 30
0.0
 40
0
 41
0
  0
VERTEX
  8
0
 10
1.53549
 20
2.45899
 30
0.0
 40
0
 41
0
  0
VERTEX
  8
0
 10
1.55946
 20
2.45969
 30
0.0
 40
0
 41
0
  0
VERTEX
  8
0
 10
1.57058
 20
2.46018
 30
0.0
 40
0
 41
0
  0
VERTEX
  8
0
 10
1.56569
 20
2.47287
 30
0.0
 40
0
 41
0
  0
VERTEX
  8
0
 10
1.55344
 20
2.50271
 30
0.0
 40
0
 41
0
  0
VERTEX
  8
0
 10
1.5376
 20
2.54058
 30
0.0
 40
0
 41
0
  0
VERTEX
  8
0
 10
1.52419
 20
2.57254
 30
0.0
 40
0
 41
0
  0
VERTEX
  8
0
 10
1.51232
 20
2.60101
 30
0.0
 40
0
 41
0
  0
VERTEX
  8
0
 10
1.50006
 20
2.63032
 30
0.0
 40
0
 41
0
  0
VERTEX
  8
0
 10
1.48753
 20
2.66037
 30
0.0
 40
0
 41
0
  0
VERTEX
  8
0
 10
1.52979
 20
2.7341
 30
0.0
 40
0
 41
0
  0
VERTEX
  8
0
 10
1.54617
 20
2.76281
 30
0.0
 40
0
 41
0
  0
VERTEX
  8
0
 10
1.55957
 20
2.78646
 30
0.0
 40
0
 41
0
  0
VERTEX
  8
0
 10
1.56863
 20
2.80257
 30
0.0
 40
0
 41
0
  0
VERTEX
  8
0
 10
1.572
 20
2.80875
 30
0.0
 40
0
 41
0
  0
VERTEX
  8
0
 10
1.55626
 20
2.80968
 30
0.0
 40
0
 41
0
  0
VERTEX
  8
0
 10
1.51888
 20
2.81033
 30
0.0
 40
0
 41
0
  0
VERTEX
  8
0
 10
1.49724
 20
2.81104
 30
0.0
 40
0
 41
0
  0
VERTEX
  8
0
 10
1.46431
 20
2.75319
 30
0.0
 40
0
 41
0
  0
VERTEX
  8
0
 10
1.43137
 20
2.69542
 30
0.0
 40
0
 41
0
  0
VERTEX
  8
0
 10
1.43072
 20
2.70796
 30
0.0
 40
0
 41
0
  0
VERTEX
  8
0
 10
1.43024
 20
2.73025
 30
0.0
 40
0
 41
0
  0
VERTEX
  8
0
 10
1.43007
 20
2.76622
 30
0.0
 40
0
 41
0
  0
VERTEX
  8
0
 10
1.43007
 20
2.81196
 30
0.0
 40
0
 41
0
  0
VERTEX
  8
0
 10
1.42258
 20
2.81136
 30
0.0
 40
0
 41
0
  0
VERTEX
  8
0
 10
1.40983
 20
2.81076
 30
0.0
 40
0
 41
0
  0
VERTEX
  8
0
 10
1.38975
 20
2.81006
 30
0.0
 40
0
 41
0
  0
VERTEX
  8
0
 10
1.36442
 20
2.8094
 30
0.0
 40
0
 41
0
  0
VERTEX
  8
0
 10
1.36382
 20
2.75271
 30
0.0
 40
0
 41
0
  0
VERTEX
  8
0
 10
1.36355
 20
2.72131
 30
0.0
 40
0
 41
0
  0
VERTEX
  8
0
 10
1.36323
 20
2.67757
 30
0.0
 40
0
 41
0
  0
VERTEX
  8
0
 10
1.36301
 20
2.62733
 30
0.0
 40
0
 41
0
  0
VERTEX
  8
0
 10
1.36285
 20
2.57639
 30
0.0
 40
0
 41
0
  0
VERTEX
  8
0
 10
1.36247
 20
2.45682
 30
0.0
 40
0
 41
0
  0
VERTEX
  8
0
 10
1.42904
 20
2.45682
 30
0.0
 40
0
 41
0
  0
VERTEX
  8
0
 10
1.42904
 20
2.51139
 30
0.0
 40
0
 41
0
  0
SEQEND
 8
0
  0
POLYLINE
  8
0
 62
     7
 66
     1
 10
0
 20
0
 30
0.0
 70
     1
 40
0
 41
0
  0
VERTEX
  8
0
 10
1.90136
 20
2.52832
 30
0.0
 40
0
 41
0
  0
VERTEX
  8
0
 10
1.90104
 20
2.59983
 30
0.0
 40
0
 41
0
  0
VERTEX
  8
0
 10
1.95779
 20
2.59983
 30
0.0
 40
0
 41
0
  0
VERTEX
  8
0
 10
1.95779
 20
2.45649
 30
0.0
 40
0
 41
0
  0
VERTEX
  8
0
 10
1.99197
 20
2.45719
 30
0.0
 40
0
 41
0
  0
VERTEX
  8
0
 10
2.01611
 20
2.45779
 30
0.0
 40
0
 41
0
  0
VERTEX
  8
0
 10
2.02626
 20
2.45811
 30
0.0
 40
0
 41
0
  0
VERTEX
  8
0
 10
2.02615
 20
2.47
 30
0.0
 40
0
 41
0
  0
VERTEX
  8
0
 10
2.02576
 20
2.50211
 30
0.0
 40
0
 41
0
  0
VERTEX
  8
0
 10
2.02522
 20
2.54958
 30
0.0
 40
0
 41
0
  0
VERTEX
  8
0
 10
2.02453
 20
2.60753
 30
0.0
 40
0
 41
0
  0
VERTEX
  8
0
 10
2.02376
 20
2.66749
 30
0.0
 40
0
 41
0
  0
VERTEX
  8
0
 10
2.02311
 20
2.72026
 30
0.0
 40
0
 41
0
  0
VERTEX
  8
0
 10
2.02262
 20
2.76036
 30
0.0
 40
0
 41
0
  0
VERTEX
  8
0
 10
2.0224
 20
2.7819
 30
0.0
 40
0
 41
0
  0
VERTEX
  8
0
 10
2.02214
 20
2.80713
 30
0.0
 40
0
 41
0
  0
VERTEX
  8
0
 10
1.95985
 20
2.80767
 30
0.0
 40
0
 41
0
  0
VERTEX
  8
0
 10
1.95975
 20
2.79503
 30
0.0
 40
0
 41
0
  0
VERTEX
  8
0
 10
1.95919
 20
2.74164
 30
0.0
 40
0
 41
0
  0
VERTEX
  8
0
 10
1.95861
 20
2.70221
 30
0.0
 40
0
 41
0
  0
VERTEX
  8
0
 10
1.95796
 20
2.67768
 30
0.0
 40
0
 41
0
  0
VERTEX
  8
0
 10
1.95731
 20
2.66889
 30
0.0
 40
0
 41
0
  0
VERTEX
  8
0
 10
1.94846
 20
2.66808
 30
0.0
 40
0
 41
0
  0
VERTEX
  8
0
 10
1.92876
 20
2.66737
 30
0.0
 40
0
 41
0
  0
VERTEX
  8
0
 10
1.90126
 20
2.66672
 30
0.0
 40
0
 41
0
  0
VERTEX
  8
0
 10
1.90126
 20
2.80642
 30
0.0
 40
0
 41
0
  0
VERTEX
  8
0
 10
1.86908
 20
2.80681
 30
0.0
 40
0
 41
0
  0
VERTEX
  8
0
 10
1.84619
 20
2.80697
 30
0.0
 40
0
 41
0
  0
VERTEX
  8
0
 10
1.83632
 20
2.80692
 30
0.0
 40
0
 41
0
  0
VERTEX
  8
0
 10
1.83599
 20
2.79406
 30
0.0
 40
0
 41
0
  0
VERTEX
  8
0
 10
1.83561
 20
2.75922
 30
0.0
 40
0
 41
0
  0
VERTEX
  8
0
 10
1.83529
 20
2.70768
 30
0.0
 40
0
 41
0
  0
VERTEX
  8
0
 10
1.83501
 20
2.64481
 30
0.0
 40
0
 41
0
  0
VERTEX
  8
0
 10
1.83469
 20
2.581
 30
0.0
 40
0
 41
0
  0
VERTEX
  8
0
 10
1.83431
 20
2.52669
 30
0.0
 40
0
 41
0
  0
VERTEX
  8
0
 10
1.83399
 20
2.48779
 30
0.0
 40
0
 41
0
  0
VERTEX
  8
0
 10
1.83371
 20
2.46989
 30
0.0
 40
0
 41
0
  0
VERTEX
  8
0
 10
1.83311
 20
2.45682
 30
0.0
 40
0
 41
0
  0
VERTEX
  8
0
 10
1.90175
 20
2.45682
 30
0.0
 40
0
 41
0
  0
VERTEX
  8
0
 10
1.90136
 20
2.52832
 30
0.0
 40
0
 41
0
  0
SEQEND
 8
0
  0
POLYLINE
  8
0
 62
     7
 66
     1
 10
0
 20
0
 30
0.0
 70
     1
 40
0
 41
0
  0
VERTEX
  8
0
 10
2.21588
 20
2.45839
 30
0.0
 40
0
 41
0
  0
VERTEX
  8
0
 10
2.23828
 20
2.46799
 30
0.0
 40
0
 41
0
  0
VERTEX
  8
0
 10
2.2531
 20
2.48693
 30
0.0
 40
0
 41
0
  0
VERTEX
  8
0
 10
2.25549
 20
2.49197
 30
0.0
 40
0
 41
0
  0
VERTEX
  8
0
 10
2.25722
 20
2.49675
 30
0.0
 40
0
 41
0
  0
VERTEX
  8
0
 10
2.25846
 20
2.50325
 30
0.0
 40
0
 41
0
  0
VERTEX
  8
0
 10
2.25922
 20
2.51372
 30
0.0
 40
0
 41
0
  0
VERTEX
  8
0
 10
2.2596
 20
2.53017
 30
0.0
 40
0
 41
0
  0
VERTEX
  8
0
 10
2.25971
 20
2.55474
 30
0.0
 40
0
 41
0
  0
VERTEX
  8
0
 10
2.25965
 20
2.58951
 30
0.0
 40
0
 41
0
  0
VERTEX
  8
0
 10
2.25956
 20
2.63661
 30
0.0
 40
0
 41
0
  0
VERTEX
  8
0
 10
2.25911
 20
2.7665
 30
0.0
 40
0
 41
0
  0
VERTEX
  8
0
 10
2.25575
 20
2.77507
 30
0.0
 40
0
 41
0
  0
VERTEX
  8
0
 10
2.24567
 20
2.79258
 30
0.0
 40
0
 41
0
  0
VERTEX
  8
0
 10
2.22879
 20
2.8036
 30
0.0
 40
0
 41
0
  0
VERTEX
  8
0
 10
2.21978
 20
2.80778
 30
0.0
 40
0
 41
0
  0
VERTEX
  8
0
 10
2.16417
 20
2.80757
 30
0.0
 40
0
 41
0
  0
VERTEX
  8
0
 10
2.13346
 20
2.8074
 30
0.0
 40
0
 41
0
  0
VERTEX
  8
0
 10
2.116
 20
2.80707
 30
0.0
 40
0
 41
0
  0
VERTEX
  8
0
 10
2.10715
 20
2.80647
 30
0.0
 40
0
 41
0
  0
VERTEX
  8
0
 10
2.10243
 20
2.80533
 30
0.0
 40
0
 41
0
  0
VERTEX
  8
0
 10
2.08322
 20
2.79292
 30
0.0
 40
0
 41
0
  0
VERTEX
  8
0
 10
2.07113
 20
2.76921
 30
0.0
 40
0
 41
0
  0
VERTEX
  8
0
 10
2.06982
 20
2.76307
 30
0.0
 40
0
 41
0
  0
VERTEX
  8
0
 10
2.06922
 20
2.7469
 30
0.0
 40
0
 41
0
  0
VERTEX
  8
0
 10
2.06896
 20
2.70828
 30
0.0
 40
0
 41
0
  0
VERTEX
  8
0
 10
2.06896
 20
2.63476
 30
0.0
 40
0
 41
0
  0
VERTEX
  8
0
 10
2.06896
 20
2.50738
 30
0.0
 40
0
 41
0
  0
VERTEX
  8
0
 10
2.07215
 20
2.49826
 30
0.0
 40
0
 41
0
  0
VERTEX
  8
0
 10
2.0841
 20
2.4739
 30
0.0
 40
0
 41
0
  0
VERTEX
  8
0
 10
2.1001
 20
2.46039
 30
0.0
 40
0
 41
0
  0
VERTEX
  8
0
 10
2.10736
 20
2.45676
 30
0.0
 40
0
 41
0
  0
VERTEX
  8
0
 10
2.15767
 20
2.45682
 30
0.0
 40
0
 41
0
  0
VERTEX
  8
0
 10
2.19928
 20
2.45719
 30
0.0
 40
0
 41
0
  0
VERTEX
  8
0
 10
2.21588
 20
2.45839
 30
0.0
 40
0
 41
0
  0
SEQEND
 8
0
  0
POLYLINE
  8
0
 62
     0
 66
     1
 10
0
 20
0
 30
0.0
 70
     1
 40
0
 41
0
  0
VERTEX
  8
0
 10
2.13693
 20
2.52442
 30
0.0
 40
0
 41
0
  0
VERTEX
  8
0
 10
2.13444
 20
2.5249
 30
0.0
 40
0
 41
0
  0
VERTEX
  8
0
 10
2.13514
 20
2.6351
 30
0.0
 40
0
 41
0
  0
VERTEX
  8
0
 10
2.13542
 20
2.67794
 30
0.0
 40
0
 41
0
  0
VERTEX
  8
0
 10
2.13574
 20
2.71306
 30
0.0
 40
0
 41
0
  0
VERTEX
  8
0
 10
2.13601
 20
2.73682
 30
0.0
 40
0
 41
0
  0
VERTEX
  8
0
 10
2.13624
 20
2.74567
 30
0.0
 40
0
 41
0
  0
VERTEX
  8
0
 10
2.14513
 20
2.74571
 30
0.0
 40
0
 41
0
  0
VERTEX
  8
0
 10
2.16601
 20
2.74528
 30
0.0
 40
0
 41
0
  0
VERTEX
  8
0
 10
2.19547
 20
2.74451
 30
0.0
 40
0
 41
0
  0
VERTEX
  8
0
 10
2.19547
 20
2.52365
 30
0.0
 40
0
 41
0
  0
VERTEX
  8
0
 10
2.16743
 20
2.52382
 30
0.0
 40
0
 41
0
  0
VERTEX
  8
0
 10
2.14686
 20
2.52403
 30
0.0
 40
0
 41
0
  0
VERTEX
  8
0
 10
2.13693
 20
2.52442
 30
0.0
 40
0
 41
0
  0
SEQEND
 8
0
  0
POLYLINE
  8
0
 62
     7
 66
     1
 10
0
 20
0
 30
0.0
 70
     1
 40
0
 41
0
  0
VERTEX
  8
0
 10
2.37056
 20
2.50342
 30
0.0
 40
0
 41
0
  0
VERTEX
  8
0
 10
2.37022
 20
2.55007
 30
0.0
 40
0
 41
0
  0
VERTEX
  8
0
 10
2.39268
 20
2.55078
 30
0.0
 40
0
 41
0
  0
VERTEX
  8
0
 10
2.43218
 20
2.55143
 30
0.0
 40
0
 41
0
  0
VERTEX
  8
0
 10
2.44769
 20
2.55186
 30
0.0
 40
0
 41
0
  0
VERTEX
  8
0
 10
2.45676
 20
2.55399
 30
0.0
 40
0
 41
0
  0
VERTEX
  8
0
 10
2.47597
 20
2.56506
 30
0.0
 40
0
 41
0
  0
VERTEX
  8
0
 10
2.48931
 20
2.58382
 30
0.0
 40
0
 41
0
  0
VERTEX
  8
0
 10
2.49392
 20
2.59353
 30
0.0
 40
0
 41
0
  0
VERTEX
  8
0
 10
2.4936
 20
2.68338
 30
0.0
 40
0
 41
0
  0
VERTEX
  8
0
 10
2.49333
 20
2.77328
 30
0.0
 40
0
 41
0
  0
VERTEX
  8
0
 10
2.48942
 20
2.78114
 30
0.0
 40
0
 41
0
  0
VERTEX
  8
0
 10
2.477
 20
2.79628
 30
0.0
 40
0
 41
0
  0
VERTEX
  8
0
 10
2.4566
 20
2.80556
 30
0.0
 40
0
 41
0
  0
VERTEX
  8
0
 10
2.45079
 20
2.80675
 30
0.0
 40
0
 41
0
  0
VERTEX
  8
0
 10
2.44006
 20
2.80735
 30
0.0
 40
0
 41
0
  0
VERTEX
  8
0
 10
2.41753
 20
2.80751
 30
0.0
 40
0
 41
0
  0
VERTEX
  8
0
 10
2.37646
 20
2.80735
 30
0.0
 40
0
 41
0
  0
VERTEX
  8
0
 10
2.30404
 20
2.80713
 30
0.0
 40
0
 41
0
  0
VERTEX
  8
0
 10
2.3035
 20
2.63271
 30
0.0
 40
0
 41
0
  0
VERTEX
  8
0
 10
2.30328
 20
2.565
 30
0.0
 40
0
 41
0
  0
VERTEX
  8
0
 10
2.30322
 20
2.50939
 30
0.0
 40
0
 41
0
  0
VERTEX
  8
0
 10
2.30317
 20
2.47168
 30
0.0
 40
0
 41
0
  0
VERTEX
  8
0
 10
2.30328
 20
2.45757
 30
0.0
 40
0
 41
0
  0
VERTEX
  8
0
 10
2.31336
 20
2.45703
 30
0.0
 40
0
 41
0
  0
VERTEX
  8
0
 10
2.33724
 20
2.45682
 30
0.0
 40
0
 41
0
  0
VERTEX
  8
0
 10
2.37088
 20
2.45682
 30
0.0
 40
0
 41
0
  0
VERTEX
  8
0
 10
2.37056
 20
2.50342
 30
0.0
 40
0
 41
0
  0
SEQEND
 8
0
  0
POLYLINE
  8
0
 62
     0
 66
     1
 10
0
 20
0
 30
0.0
 70
     1
 40
0
 41
0
  0
VERTEX
  8
0
 10
2.37039
 20
2.68175
 30
0.0
 40
0
 41
0
  0
VERTEX
  8
0
 10
2.37039
 20
2.74621
 30
0.0
 40
0
 41
0
  0
VERTEX
  8
0
 10
2.39669
 20
2.7455
 30
0.0
 40
0
 41
0
  0
VERTEX
  8
0
 10
2.42307
 20
2.74479
 30
0.0
 40
0
 41
0
  0
VERTEX
  8
0
 10
2.43207
 20
2.73861
 30
0.0
 40
0
 41
0
  0
VERTEX
  8
0
 10
2.43207
 20
2.69824
 30
0.0
 40
0
 41
0
  0
VERTEX
  8
0
 10
2.43186
 20
2.66461
 30
0.0
 40
0
 41
0
  0
VERTEX
  8
0
 10
2.43142
 20
2.64035
 30
0.0
 40
0
 41
0
  0
VERTEX
  8
0
 10
2.43078
 20
2.62272
 30
0.0
 40
0
 41
0
  0
VERTEX
  8
0
 10
2.42626
 20
2.62001
 30
0.0
 40
0
 41
0
  0
VERTEX
  8
0
 10
2.42171
 20
2.61729
 30
0.0
 40
0
 41
0
  0
VERTEX
  8
0
 10
2.37039
 20
2.61729
 30
0.0
 40
0
 41
0
  0
VERTEX
  8
0
 10
2.37039
 20
2.68175
 30
0.0
 40
0
 41
0
  0
SEQEND
 8
0
  0
POLYLINE
  8
0
 62
     7
 66
     1
 10
0
 20
0
 30
0.0
 70
     1
 40
0
 41
0
  0
VERTEX
  8
0
 10
0.68929
 20
2.45828
 30
0.0
 40
0
 41
0
  0
VERTEX
  8
0
 10
0.691297
 20
2.47601
 30
0.0
 40
0
 41
0
  0
VERTEX
  8
0
 10
0.69439
 20
2.50261
 30
0.0
 40
0
 41
0
  0
VERTEX
  8
0
 10
0.699544
 20
2.54769
 30
0.0
 40
0
 41
0
  0
VERTEX
  8
0
 10
0.706108
 20
2.60422
 30
0.0
 40
0
 41
0
  0
VERTEX
  8
0
 10
0.711751
 20
2.65278
 30
0.0
 40
0
 41
0
  0
VERTEX
  8
0
 10
0.714301
 20
2.67389
 30
0.0
 40
0
 41
0
  0
VERTEX
  8
0
 10
0.715929
 20
2.66564
 30
0.0
 40
0
 41
0
  0
VERTEX
  8
0
 10
0.717176
 20
2.65582
 30
0.0
 40
0
 41
0
  0
VERTEX
  8
0
 10
0.719672
 20
2.63612
 30
0.0
 40
0
 41
0
  0
VERTEX
  8
0
 10
0.72309
 20
2.60954
 30
0.0
 40
0
 41
0
  0
VERTEX
  8
0
 10
0.726997
 20
2.579
 30
0.0
 40
0
 41
0
  0
VERTEX
  8
0
 10
0.731011
 20
2.54758
 30
0.0
 40
0
 41
0
  0
VERTEX
  8
0
 10
0.734754
 20
2.51822
 30
0.0
 40
0
 41
0
  0
VERTEX
  8
0
 10
0.737847
 20
2.49397
 30
0.0
 40
0
 41
0
  0
VERTEX
  8
0
 10
0.739908
 20
2.47775
 30
0.0
 40
0
 41
0
  0
VERTEX
  8
0
 10
0.742079
 20
2.46012
 30
0.0
 40
0
 41
0
  0
VERTEX
  8
0
 10
0.777181
 20
2.45936
 30
0.0
 40
0
 41
0
  0
VERTEX
  8
0
 10
0.802951
 20
2.45899
 30
0.0
 40
0
 41
0
  0
VERTEX
  8
0
 10
0.815864
 20
2.45899
 30
0.0
 40
0
 41
0
  0
VERTEX
  8
0
 10
0.819444
 20
2.45936
 30
0.0
 40
0
 41
0
  0
VERTEX
  8
0
 10
0.839193
 20
2.6034
 30
0.0
 40
0
 41
0
  0
VERTEX
  8
0
 10
0.847547
 20
2.66456
 30
0.0
 40
0
 41
0
  0
VERTEX
  8
0
 10
0.854113
 20
2.71224
 30
0.0
 40
0
 41
0
  0
VERTEX
  8
0
 10
0.858996
 20
2.74804
 30
0.0
 40
0
 41
0
  0
VERTEX
  8
0
 10
0.862522
 20
2.77371
 30
0.0
 40
0
 41
0
  0
VERTEX
  8
0
 10
0.8648
 20
2.79081
 30
0.0
 40
0
 41
0
  0
VERTEX
  8
0
 10
0.866157
 20
2.80106
 30
0.0
 40
0
 41
0
  0
VERTEX
  8
0
 10
0.866808
 20
2.80599
 30
0.0
 40
0
 41
0
  0
VERTEX
  8
0
 10
0.866917
 20
2.80729
 30
0.0
 40
0
 41
0
  0
VERTEX
  8
0
 10
0.856228
 20
2.80778
 30
0.0
 40
0
 41
0
  0
VERTEX
  8
0
 10
0.833387
 20
2.80821
 30
0.0
 40
0
 41
0
  0
VERTEX
  8
0
 10
0.81071
 20
2.80843
 30
0.0
 40
0
 41
0
  0
VERTEX
  8
0
 10
0.800401
 20
2.80817
 30
0.0
 40
0
 41
0
  0
VERTEX
  8
0
 10
0.798394
 20
2.78933
 30
0.0
 40
0
 41
0
  0
VERTEX
  8
0
 10
0.793674
 20
2.74501
 30
0.0
 40
0
 41
0
  0
VERTEX
  8
0
 10
0.785482
 20
2.66857
 30
0.0
 40
0
 41
0
  0
VERTEX
  8
0
 10
0.778267
 20
2.60135
 30
0.0
 40
0
 41
0
  0
VERTEX
  8
0
 10
0.776313
 20
2.58361
 30
0.0
 40
0
 41
0
  0
VERTEX
  8
0
 10
0.775336
 20
2.57563
 30
0.0
 40
0
 41
0
  0
VERTEX
  8
0
 10
0.774957
 20
2.57601
 30
0.0
 40
0
 41
0
  0
VERTEX
  8
0
 10
0.773546
 20
2.58763
 30
0.0
 40
0
 41
0
  0
VERTEX
  8
0
 10
0.76964
 20
2.62337
 30
0.0
 40
0
 41
0
  0
VERTEX
  8
0
 10
0.761774
 20
2.69596
 30
0.0
 40
0
 41
0
  0
VERTEX
  8
0
 10
0.756999
 20
2.73942
 30
0.0
 40
0
 41
0
  0
VERTEX
  8
0
 10
0.752983
 20
2.77453
 30
0.0
 40
0
 41
0
  0
VERTEX
  8
0
 10
0.750108
 20
2.79801
 30
0.0
 40
0
 41
0
  0
VERTEX
  8
0
 10
0.748807
 20
2.80669
 30
0.0
 40
0
 41
0
  0
VERTEX
  8
0
 10
0.738172
 20
2.8074
 30
0.0
 40
0
 41
0
  0
VERTEX
  8
0
 10
0.715929
 20
2.80811
 30
0.0
 40
0
 41
0
  0
VERTEX
  8
0
 10
0.693847
 20
2.80854
 30
0.0
 40
0
 41
0
  0
VERTEX
  8
0
 10
0.683539
 20
2.80838
 30
0.0
 40
0
 41
0
  0
VERTEX
  8
0
 10
0.682508
 20
2.80263
 30
0.0
 40
0
 41
0
  0
VERTEX
  8
0
 10
0.679688
 20
2.78136
 30
0.0
 40
0
 41
0
  0
VERTEX
  8
0
 10
0.674208
 20
2.73742
 30
0.0
 40
0
 41
0
  0
VERTEX
  8
0
 10
0.665093
 20
2.66363
 30
0.0
 40
0
 41
0
  0
VERTEX
  8
0
 10
0.660861
 20
2.6295
 30
0.0
 40
0
 41
0
  0
VERTEX
  8
0
 10
0.657335
 20
2.60151
 30
0.0
 40
0
 41
0
  0
VERTEX
  8
0
 10
0.654947
 20
2.58251
 30
0.0
 40
0
 41
0
  0
VERTEX
  8
0
 10
0.654025
 20
2.57547
 30
0.0
 40
0
 41
0
  0
VERTEX
  8
0
 10
0.652778
 20
2.58686
 30
0.0
 40
0
 41
0
  0
VERTEX
  8
0
 10
0.650282
 20
2.61453
 30
0.0
 40
0
 41
0
  0
VERTEX
  8
0
 10
0.642578
 20
2.70122
 30
0.0
 40
0
 41
0
  0
VERTEX
  8
0
 10
0.637153
 20
2.76139
 30
0.0
 40
0
 41
0
  0
VERTEX
  8
0
 10
0.633789
 20
2.79656
 30
0.0
 40
0
 41
0
  0
VERTEX
  8
0
 10
0.632433
 20
2.80821
 30
0.0
 40
0
 41
0
  0
VERTEX
  8
0
 10
0.622233
 20
2.80849
 30
0.0
 40
0
 41
0
  0
VERTEX
  8
0
 10
0.598687
 20
2.80817
 30
0.0
 40
0
 41
0
  0
VERTEX
  8
0
 10
0.565647
 20
2.8074
 30
0.0
 40
0
 41
0
  0
VERTEX
  8
0
 10
0.566243
 20
2.8036
 30
0.0
 40
0
 41
0
  0
VERTEX
  8
0
 10
0.568033
 20
2.79031
 30
0.0
 40
0
 41
0
  0
VERTEX
  8
0
 10
0.571994
 20
2.76036
 30
0.0
 40
0
 41
0
  0
VERTEX
  8
0
 10
0.577203
 20
2.72065
 30
0.0
 40
0
 41
0
  0
VERTEX
  8
0
 10
0.58279
 20
2.678
 30
0.0
 40
0
 41
0
  0
VERTEX
  8
0
 10
0.586643
 20
2.64833
 30
0.0
 40
0
 41
0
  0
VERTEX
  8
0
 10
0.590983
 20
2.61524
 30
0.0
 40
0
 41
0
  0
VERTEX
  8
0
 10
0.597168
 20
2.56717
 30
0.0
 40
0
 41
0
  0
VERTEX
  8
0
 10
0.603787
 20
2.51617
 30
0.0
 40
0
 41
0
  0
VERTEX
  8
0
 10
0.608996
 20
2.47553
 30
0.0
 40
0
 41
0
  0
VERTEX
  8
0
 10
0.611111
 20
2.45861
 30
0.0
 40
0
 41
0
  0
VERTEX
  8
0
 10
0.622558
 20
2.45806
 30
0.0
 40
0
 41
0
  0
VERTEX
  8
0
 10
0.650228
 20
2.45785
 30
0.0
 40
0
 41
0
  0
VERTEX
  8
0
 10
0.677789
 20
2.45801
 30
0.0
 40
0
 41
0
  0
VERTEX
  8
0
 10
0.68929
 20
2.45828
 30
0.0
 40
0
 41
0
  0
SEQEND
 8
0
  0
POLYLINE
  8
0
 62
     7
 66
     1
 10
0
 20
0
 30
0.0
 70
     1
 40
0
 41
0
  0
VERTEX
  8
0
 10
1.19444
 20
2.50282
 30
0.0
 40
0
 41
0
  0
VERTEX
  8
0
 10
1.19461
 20
2.53532
 30
0.0
 40
0
 41
0
  0
VERTEX
  8
0
 10
1.19504
 20
2.55003
 30
0.0
 40
0
 41
0
  0
VERTEX
  8
0
 10
1.1971
 20
2.55197
 30
0.0
 40
0
 41
0
  0
VERTEX
  8
0
 10
1.20557
 20
2.55285
 30
0.0
 40
0
 41
0
  0
VERTEX
  8
0
 10
1.21658
 20
2.55208
 30
0.0
 40
0
 41
0
  0
VERTEX
  8
0
 10
1.22238
 20
2.53765
 30
0.0
 40
0
 41
0
  0
VERTEX
  8
0
 10
1.23503
 20
2.50478
 30
0.0
 40
0
 41
0
  0
VERTEX
  8
0
 10
1.2525
 20
2.45888
 30
0.0
 40
0
 41
0
  0
VERTEX
  8
0
 10
1.27002
 20
2.45899
 30
0.0
 40
0
 41
0
  0
VERTEX
  8
0
 10
1.30518
 20
2.45975
 30
0.0
 40
0
 41
0
  0
VERTEX
  8
0
 10
1.32281
 20
2.46039
 30
0.0
 40
0
 41
0
  0
VERTEX
  8
0
 10
1.30339
 20
2.50569
 30
0.0
 40
0
 41
0
  0
VERTEX
  8
0
 10
1.28966
 20
2.53782
 30
0.0
 40
0
 41
0
  0
VERTEX
  8
0
 10
1.28396
 20
2.55143
 30
0.0
 40
0
 41
0
  0
VERTEX
  8
0
 10
1.2908
 20
2.5555
 30
0.0
 40
0
 41
0
  0
VERTEX
  8
0
 10
1.31413
 20
2.57964
 30
0.0
 40
0
 41
0
  0
VERTEX
  8
0
 10
1.31896
 20
2.58942
 30
0.0
 40
0
 41
0
  0
VERTEX
  8
0
 10
1.3189
 20
2.68126
 30
0.0
 40
0
 41
0
  0
VERTEX
  8
0
 10
1.31885
 20
2.77317
 30
0.0
 40
0
 41
0
  0
VERTEX
  8
0
 10
1.31635
 20
2.77919
 30
0.0
 40
0
 41
0
  0
VERTEX
  8
0
 10
1.308
 20
2.79281
 30
0.0
 40
0
 41
0
  0
VERTEX
  8
0
 10
1.29069
 20
2.80404
 30
0.0
 40
0
 41
0
  0
VERTEX
  8
0
 10
1.28158
 20
2.80892
 30
0.0
 40
0
 41
0
  0
VERTEX
  8
0
 10
1.20947
 20
2.80821
 30
0.0
 40
0
 41
0
  0
VERTEX
  8
0
 10
1.15755
 20
2.80761
 30
0.0
 40
0
 41
0
  0
VERTEX
  8
0
 10
1.13411
 20
2.80697
 30
0.0
 40
0
 41
0
  0
VERTEX
  8
0
 10
1.13091
 20
2.80642
 30
0.0
 40
0
 41
0
  0
VERTEX
  8
0
 10
1.13026
 20
2.73785
 30
0.0
 40
0
 41
0
  0
VERTEX
  8
0
 10
1.12983
 20
2.67111
 30
0.0
 40
0
 41
0
  0
VERTEX
  8
0
 10
1.1295
 20
2.5784
 30
0.0
 40
0
 41
0
  0
VERTEX
  8
0
 10
1.12934
 20
2.49561
 30
0.0
 40
0
 41
0
  0
VERTEX
  8
0
 10
1.1295
 20
2.45861
 30
0.0
 40
0
 41
0
  0
VERTEX
  8
0
 10
1.13905
 20
2.45806
 30
0.0
 40
0
 41
0
  0
VERTEX
  8
0
 10
1.162
 20
2.45785
 30
0.0
 40
0
 41
0
  0
VERTEX
  8
0
 10
1.19439
 20
2.45785
 30
0.0
 40
0
 41
0
  0
VERTEX
  8
0
 10
1.19439
 20
2.50282
 30
0.0
 40
0
 41
0
  0
VERTEX
  8
0
 10
1.19444
 20
2.50282
 30
0.0
 40
0
 41
0
  0
SEQEND
 8
0
  0
POLYLINE
  8
0
 62
     0
 66
     1
 10
0
 20
0
 30
0.0
 70
     1
 40
0
 41
0
  0
VERTEX
  8
0
 10
1.19401
 20
2.61806
 30
0.0
 40
0
 41
0
  0
VERTEX
  8
0
 10
1.19363
 20
2.63872
 30
0.0
 40
0
 41
0
  0
VERTEX
  8
0
 10
1.19358
 20
2.68425
 30
0.0
 40
0
 41
0
  0
VERTEX
  8
0
 10
1.19368
 20
2.74761
 30
0.0
 40
0
 41
0
  0
VERTEX
  8
0
 10
1.22249
 20
2.74832
 30
0.0
 40
0
 41
0
  0
VERTEX
  8
0
 10
1.24289
 20
2.74875
 30
0.0
 40
0
 41
0
  0
VERTEX
  8
0
 10
1.25163
 20
2.74869
 30
0.0
 40
0
 41
0
  0
VERTEX
  8
0
 10
1.25206
 20
2.72894
 30
0.0
 40
0
 41
0
  0
VERTEX
  8
0
 10
1.25271
 20
2.68181
 30
0.0
 40
0
 41
0
  0
VERTEX
  8
0
 10
1.25342
 20
2.61524
 30
0.0
 40
0
 41
0
  0
VERTEX
  8
0
 10
1.19461
 20
2.61524
 30
0.0
 40
0
 41
0
  0
VERTEX
  8
0
 10
1.19401
 20
2.61806
 30
0.0
 40
0
 41
0
  0
SEQEND
 8
0
  0
POLYLINE
  8
0
 62
     7
 66
     1
 10
0
 20
0
 30
0.0
 70
     1
 40
0
 41
0
  0
VERTEX
  8
0
 10
1.77653
 20
2.46024
 30
0.0
 40
0
 41
0
  0
VERTEX
  8
0
 10
1.78803
 20
2.46778
 30
0.0
 40
0
 41
0
  0
VERTEX
  8
0
 10
1.79471
 20
2.48232
 30
0.0
 40
0
 41
0
  0
VERTEX
  8
0
 10
1.79557
 20
2.48779
 30
0.0
 40
0
 41
0
  0
VERTEX
  8
0
 10
1.796
 20
2.49854
 30
0.0
 40
0
 41
0
  0
VERTEX
  8
0
 10
1.79617
 20
2.51867
 30
0.0
 40
0
 41
0
  0
VERTEX
  8
0
 10
1.79606
 20
2.55225
 30
0.0
 40
0
 41
0
  0
VERTEX
  8
0
 10
1.79585
 20
2.58669
 30
0.0
 40
0
 41
0
  0
VERTEX
  8
0
 10
1.79551
 20
2.60622
 30
0.0
 40
0
 41
0
  0
VERTEX
  8
0
 10
1.79492
 20
2.6155
 30
0.0
 40
0
 41
0
  0
VERTEX
  8
0
 10
1.794
 20
2.61897
 30
0.0
 40
0
 41
0
  0
VERTEX
  8
0
 10
1.78831
 20
2.62369
 30
0.0
 40
0
 41
0
  0
VERTEX
  8
0
 10
1.76932
 20
2.63336
 30
0.0
 40
0
 41
0
  0
VERTEX
  8
0
 10
1.74294
 20
2.64626
 30
0.0
 40
0
 41
0
  0
VERTEX
  8
0
 10
1.71669
 20
2.65944
 30
0.0
 40
0
 41
0
  0
VERTEX
  8
0
 10
1.69467
 20
2.67079
 30
0.0
 40
0
 41
0
  0
VERTEX
  8
0
 10
1.6811
 20
2.67811
 30
0.0
 40
0
 41
0
  0
VERTEX
  8
0
 10
1.67193
 20
2.68349
 30
0.0
 40
0
 41
0
  0
VERTEX
  8
0
 10
1.67122
 20
2.69
 30
0.0
 40
0
 41
0
  0
VERTEX
  8
0
 10
1.67106
 20
2.71685
 30
0.0
 40
0
 41
0
  0
VERTEX
  8
0
 10
1.67253
 20
2.74024
 30
0.0
 40
0
 41
0
  0
VERTEX
  8
0
 10
1.67438
 20
2.743
 30
0.0
 40
0
 41
0
  0
VERTEX
  8
0
 10
1.68072
 20
2.74397
 30
0.0
 40
0
 41
0
  0
VERTEX
  8
0
 10
1.69233
 20
2.74468
 30
0.0
 40
0
 41
0
  0
VERTEX
  8
0
 10
1.71024
 20
2.74539
 30
0.0
 40
0
 41
0
  0
VERTEX
  8
0
 10
1.73253
 20
2.74615
 30
0.0
 40
0
 41
0
  0
VERTEX
  8
0
 10
1.73253
 20
2.72244
 30
0.0
 40
0
 41
0
  0
VERTEX
  8
0
 10
1.73275
 20
2.70557
 30
0.0
 40
0
 41
0
  0
VERTEX
  8
0
 10
1.73329
 20
2.69829
 30
0.0
 40
0
 41
0
  0
VERTEX
  8
0
 10
1.74294
 20
2.69819
 30
0.0
 40
0
 41
0
  0
VERTEX
  8
0
 10
1.76519
 20
2.69835
 30
0.0
 40
0
 41
0
  0
VERTEX
  8
0
 10
1.79628
 20
2.69878
 30
0.0
 40
0
 41
0
  0
VERTEX
  8
0
 10
1.79628
 20
2.7399
 30
0.0
 40
0
 41
0
  0
VERTEX
  8
0
 10
1.79611
 20
2.76654
 30
0.0
 40
0
 41
0
  0
VERTEX
  8
0
 10
1.79542
 20
2.78174
 30
0.0
 40
0
 41
0
  0
VERTEX
  8
0
 10
1.79357
 20
2.79021
 30
0.0
 40
0
 41
0
  0
VERTEX
  8
0
 10
1.7901
 20
2.79671
 30
0.0
 40
0
 41
0
  0
VERTEX
  8
0
 10
1.78162
 20
2.80404
 30
0.0
 40
0
 41
0
  0
VERTEX
  8
0
 10
1.77621
 20
2.80658
 30
0.0
 40
0
 41
0
  0
VERTEX
  8
0
 10
1.70774
 20
2.80658
 30
0.0
 40
0
 41
0
  0
VERTEX
  8
0
 10
1.66906
 20
2.80658
 30
0.0
 40
0
 41
0
  0
VERTEX
  8
0
 10
1.64789
 20
2.80632
 30
0.0
 40
0
 41
0
  0
VERTEX
  8
0
 10
1.63797
 20
2.80572
 30
0.0
 40
0
 41
0
  0
VERTEX
  8
0
 10
1.63319
 20
2.80453
 30
0.0
 40
0
 41
0
  0
VERTEX
  8
0
 10
1.60813
 20
2.78211
 30
0.0
 40
0
 41
0
  0
VERTEX
  8
0
 10
1.60688
 20
2.77778
 30
0.0
 40
0
 41
0
  0
VERTEX
  8
0
 10
1.60633
 20
2.76915
 30
0.0
 40
0
 41
0
  0
VERTEX
  8
0
 10
1.60633
 20
2.75006
 30
0.0
 40
0
 41
0
  0
VERTEX
  8
0
 10
1.60682
 20
2.71397
 30
0.0
 40
0
 41
0
  0
VERTEX
  8
0
 10
1.60736
 20
2.67882
 30
0.0
 40
0
 41
0
  0
VERTEX
  8
0
 10
1.60786
 20
2.65972
 30
0.0
 40
0
 41
0
  0
VERTEX
  8
0
 10
1.60861
 20
2.65115
 30
0.0
 40
0
 41
0
  0
VERTEX
  8
0
 10
1.60986
 20
2.64751
 30
0.0
 40
0
 41
0
  0
VERTEX
  8
0
 10
1.61544
 20
2.64204
 30
0.0
 40
0
 41
0
  0
VERTEX
  8
0
 10
1.6345
 20
2.63363
 30
0.0
 40
0
 41
0
  0
VERTEX
  8
0
 10
1.66228
 20
2.61996
 30
0.0
 40
0
 41
0
  0
VERTEX
  8
0
 10
1.69151
 20
2.60482
 30
0.0
 40
0
 41
0
  0
VERTEX
  8
0
 10
1.71485
 20
2.59179
 30
0.0
 40
0
 41
0
  0
VERTEX
  8
0
 10
1.72765
 20
2.58296
 30
0.0
 40
0
 41
0
  0
VERTEX
  8
0
 10
1.73112
 20
2.57454
 30
0.0
 40
0
 41
0
  0
VERTEX
  8
0
 10
1.73193
 20
2.55078
 30
0.0
 40
0
 41
0
  0
VERTEX
  8
0
 10
1.73122
 20
2.52968
 30
0.0
 40
0
 41
0
  0
VERTEX
  8
0
 10
1.72868
 20
2.52626
 30
0.0
 40
0
 41
0
  0
VERTEX
  8
0
 10
1.71332
 20
2.52447
 30
0.0
 40
0
 41
0
  0
VERTEX
  8
0
 10
1.68782
 20
2.52442
 30
0.0
 40
0
 41
0
  0
VERTEX
  8
0
 10
1.67156
 20
2.52658
 30
0.0
 40
0
 41
0
  0
VERTEX
  8
0
 10
1.67096
 20
2.54867
 30
0.0
 40
0
 41
0
  0
VERTEX
  8
0
 10
1.67128
 20
2.56972
 30
0.0
 40
0
 41
0
  0
VERTEX
  8
0
 10
1.65332
 20
2.57036
 30
0.0
 40
0
 41
0
  0
VERTEX
  8
0
 10
1.62076
 20
2.57161
 30
0.0
 40
0
 41
0
  0
VERTEX
  8
0
 10
1.60622
 20
2.57226
 30
0.0
 40
0
 41
0
  0
VERTEX
  8
0
 10
1.60547
 20
2.5331
 30
0.0
 40
0
 41
0
  0
VERTEX
  8
0
 10
1.60508
 20
2.49935
 30
0.0
 40
0
 41
0
  0
VERTEX
  8
0
 10
1.6065
 20
2.4885
 30
0.0
 40
0
 41
0
  0
VERTEX
  8
0
 10
1.61817
 20
2.46972
 30
0.0
 40
0
 41
0
  0
VERTEX
  8
0
 10
1.63737
 20
2.45925
 30
0.0
 40
0
 41
0
  0
VERTEX
  8
0
 10
1.65506
 20
2.45828
 30
0.0
 40
0
 41
0
  0
VERTEX
  8
0
 10
1.70682
 20
2.45817
 30
0.0
 40
0
 41
0
  0
VERTEX
  8
0
 10
1.74149
 20
2.45839
 30
0.0
 40
0
 41
0
  0
VERTEX
  8
0
 10
1.76161
 20
2.45871
 30
0.0
 40
0
 41
0
  0
VERTEX
  8
0
 10
1.77169
 20
2.45925
 30
0.0
 40
0
 41
0
  0
VERTEX
  8
0
 10
1.77653
 20
2.46024
 30
0.0
 40
0
 41
0
  0
SEQEND
 8
0
  0
POLYLINE
  8
0
 62
     7
 66
     1
 10
0
 20
0
 30
0.0
 70
     1
 40
0
 41
0
  0
VERTEX
  8
0
 10
1.06125
 20
2.46446
 30
0.0
 40
0
 41
0
  0
VERTEX
  8
0
 10
1.0848
 20
2.48757
 30
0.0
 40
0
 41
0
  0
VERTEX
  8
0
 10
1.08816
 20
2.49436
 30
0.0
 40
0
 41
0
  0
VERTEX
  8
0
 10
1.08892
 20
2.57921
 30
0.0
 40
0
 41
0
  0
VERTEX
  8
0
 10
1.08963
 20
2.65483
 30
0.0
 40
0
 41
0
  0
VERTEX
  8
0
 10
1.09055
 20
2.71739
 30
0.0
 40
0
 41
0
  0
VERTEX
  8
0
 10
1.09147
 20
2.77072
 30
0.0
 40
0
 41
0
  0
VERTEX
  8
0
 10
1.08767
 20
2.7786
 30
0.0
 40
0
 41
0
  0
VERTEX
  8
0
 10
1.07796
 20
2.79243
 30
0.0
 40
0
 41
0
  0
VERTEX
  8
0
 10
1.06576
 20
2.80263
 30
0.0
 40
0
 41
0
  0
VERTEX
  8
0
 10
1.06103
 20
2.80524
 30
0.0
 40
0
 41
0
  0
VERTEX
  8
0
 10
0.998156
 20
2.80587
 30
0.0
 40
0
 41
0
  0
VERTEX
  8
0
 10
0.935275
 20
2.80647
 30
0.0
 40
0
 41
0
  0
VERTEX
  8
0
 10
0.929144
 20
2.8024
 30
0.0
 40
0
 41
0
  0
VERTEX
  8
0
 10
0.907769
 20
2.77815
 30
0.0
 40
0
 41
0
  0
VERTEX
  8
0
 10
0.903863
 20
2.77029
 30
0.0
 40
0
 41
0
  0
VERTEX
  8
0
 10
0.903157
 20
2.75271
 30
0.0
 40
0
 41
0
  0
VERTEX
  8
0
 10
0.902778
 20
2.73671
 30
0.0
 40
0
 41
0
  0
VERTEX
  8
0
 10
0.902289
 20
2.70611
 30
0.0
 40
0
 41
0
  0
VERTEX
  8
0
 10
0.901747
 20
2.66536
 30
0.0
 40
0
 41
0
  0
VERTEX
  8
0
 10
0.901258
 20
2.61882
 30
0.0
 40
0
 41
0
  0
VERTEX
  8
0
 10
0.900717
 20
2.56418
 30
0.0
 40
0
 41
0
  0
VERTEX
  8
0
 10
0.900553
 20
2.52735
 30
0.0
 40
0
 41
0
  0
VERTEX
  8
0
 10
0.900663
 20
2.50603
 30
0.0
 40
0
 41
0
  0
VERTEX
  8
0
 10
0.90115
 20
2.49756
 30
0.0
 40
0
 41
0
  0
VERTEX
  8
0
 10
0.910536
 20
2.47868
 30
0.0
 40
0
 41
0
  0
VERTEX
  8
0
 10
0.926107
 20
2.46446
 30
0.0
 40
0
 41
0
  0
VERTEX
  8
0
 10
0.931586
 20
2.46143
 30
0.0
 40
0
 41
0
  0
VERTEX
  8
0
 10
0.959364
 20
2.46089
 30
0.0
 40
0
 41
0
  0
VERTEX
  8
0
 10
0.988444
 20
2.46044
 30
0.0
 40
0
 41
0
  0
VERTEX
  8
0
 10
1.01948
 20
2.46012
 30
0.0
 40
0
 41
0
  0
VERTEX
  8
0
 10
1.05187
 20
2.4599
 30
0.0
 40
0
 41
0
  0
VERTEX
  8
0
 10
1.06125
 20
2.46446
 30
0.0
 40
0
 41
0
  0
SEQEND
 8
0
  0
POLYLINE
  8
0
 62
     0
 66
     1
 10
0
 20
0
 30
0.0
 70
     1
 40
0
 41
0
  0
VERTEX
  8
0
 10
0.996419
 20
2.52576
 30
0.0
 40
0
 41
0
  0
VERTEX
  8
0
 10
0.973525
 20
2.52664
 30
0.0
 40
0
 41
0
  0
VERTEX
  8
0
 10
0.967068
 20
2.52675
 30
0.0
 40
0
 41
0
  0
VERTEX
  8
0
 10
0.967068
 20
2.74599
 30
0.0
 40
0
 41
0
  0
VERTEX
  8
0
 10
0.997179
 20
2.74567
 30
0.0
 40
0
 41
0
  0
VERTEX
  8
0
 10
1.02723
 20
2.74539
 30
0.0
 40
0
 41
0
  0
VERTEX
  8
0
 10
1.02778
 20
2.52468
 30
0.0
 40
0
 41
0
  0
VERTEX
  8
0
 10
1.02034
 20
2.52485
 30
0.0
 40
0
 41
0
  0
VERTEX
  8
0
 10
0.996419
 20
2.52576
 30
0.0
 40
0
 41
0
  0
SEQEND
 8
0
  0
ENDSEC
  0
EOF
