<?xml version="1.0" encoding="UTF-8" standalone="no"?>
<!-- Created with Inkscape (http://www.inkscape.org/) -->

<svg
   xmlns:dc="http://purl.org/dc/elements/1.1/"
   xmlns:cc="http://creativecommons.org/ns#"
   xmlns:rdf="http://www.w3.org/1999/02/22-rdf-syntax-ns#"
   xmlns:svg="http://www.w3.org/2000/svg"
   xmlns="http://www.w3.org/2000/svg"
   xmlns:sodipodi="http://sodipodi.sourceforge.net/DTD/sodipodi-0.dtd"
   xmlns:inkscape="http://www.inkscape.org/namespaces/inkscape"
   width="2.9999998in"
   height="3.1975305in"
   viewBox="0 0 269.99999 287.77776"
   id="svg2"
   version="1.1"
   inkscape:version="0.91 r13725"
   sodipodi:docname="W88LogoClassDemo.svg">
  <defs
     id="defs4" />
  <sodipodi:namedview
     id="base"
     pagecolor="#ffffff"
     bordercolor="#666666"
     borderopacity="1.0"
     inkscape:pageopacity="0.0"
     inkscape:pageshadow="2"
     inkscape:zoom="1"
     inkscape:cx="35.98038"
     inkscape:cy="134.77272"
     inkscape:document-units="px"
     inkscape:current-layer="layer1"
     showgrid="false"
     fit-margin-top="0"
     fit-margin-left="0"
     fit-margin-right="0"
     fit-margin-bottom="0"
     inkscape:window-width="1366"
     inkscape:window-height="706"
     inkscape:window-x="-8"
     inkscape:window-y="-8"
     inkscape:window-maximized="1"
     units="in" />
  <metadata
     id="metadata7">
    <rdf:RDF>
      <cc:Work
         rdf:about="">
        <dc:format>image/svg+xml</dc:format>
        <dc:type
           rdf:resource="http://purl.org/dc/dcmitype/StillImage" />
        <dc:title></dc:title>
      </cc:Work>
    </rdf:RDF>
  </metadata>
  <g
     inkscape:label="Layer 1"
     inkscape:groupmode="layer"
     id="layer1"
     transform="translate(619.20797,-489.5409)">
    <path
       style="fill:none"
       d="m -619.20797,633.42978 0,-143.88888 135.00002,0 135,0 0,143.88888 0,143.8889 -135,0 -135.00002,0 0,-143.8889 z"
       id="path4191"
       inkscape:connector-curvature="0" />
    <path
       style="fill:none;fill-opacity:1;stroke:#00ff5a;stroke-width:0.97000015;stroke-miterlimit:4;stroke-dasharray:none;stroke-opacity:1"
       d="m -483.00425,774.72064 c 1.16564,-0.1872 2.82144,-0.65238 4.06598,-1.14244 1.09592,-0.43156 8.29392,-3.5747 17.13774,-7.48352 1.50228,-0.66396 3.77314,-1.6643 5.04628,-2.22292 1.27314,-0.5586 2.35648,-1.04812 2.40742,-1.08774 0.051,-0.0396 1.59258,-0.91726 3.42592,-1.95028 3.49226,-1.96766 9.84922,-5.67018 10.87964,-6.33666 0.33098,-0.21406 3.47684,-2.52844 6.99072,-5.143 6.09604,-4.53588 16.7646,-12.8651 19.07408,-14.89166 1.50986,-1.32488 6.47792,-6.32244 8.75844,-8.8104 3.35504,-3.66022 8.2826,-9.19976 10.8309,-12.17594 1.23874,-1.44678 3.35378,-4.09774 4.73704,-5.9374 2.8614,-3.80554 9.12654,-12.7109 10.0237,-14.24778 0.26754,-0.45834 1.73886,-3.1281 3.26952,-5.93282 2.4197,-4.43372 3.36558,-6.30142 7.24492,-14.30556 2.454,-5.06334 4.54452,-9.4144 4.64552,-9.66902 0.44452,-1.12048 4.94638,-14.23322 5.585,-16.26768 2.94904,-9.39472 5.1051,-18.81822 6.46796,-28.26936 0.44674,-3.09824 0.49534,-3.54572 0.70874,-6.52778 0.104,-1.4514 0.37482,-5.09048 0.60208,-8.08686 l 0.41322,-5.44798 0,-6.12884 0,-6.12884 -0.46426,-5.50652 c -0.7057,-8.36992 -1.00534,-11.70354 -1.11326,-12.386 -0.20796,-1.31486 -0.59244,-2.42074 -1.1787,-3.39024 l -0.33108,-0.54748 0.1692,-0.79512 c 0.32206,-1.51412 0.29636,-2.54108 -0.131,-5.23954 -1.62636,-10.26818 -3.57368,-18.9299 -5.79786,-25.7889 -1.63904,-5.05456 -3.55954,-9.85954 -6.65914,-16.66052 -0.7786,-1.70838 -2.06848,-4.54362 -2.86644,-6.30056 -2.286,-5.0334 -2.38566,-5.20992 -3.66082,-6.48508 -1.94956,-1.94956 -4.33408,-2.87266 -7.08687,-2.7435 -1.48956,0.0698 -2.16727,0.25416 -5.00002,1.35956 -13.25862,5.17378 -18.91326,6.64704 -29.12036,7.58702 -7.41158,0.68254 -11.5132,0.68204 -18.93518,-0.002 -10.61372,-0.97864 -19.34294,-3.0652 -27.36112,-6.54012 -4.39874,-1.90632 -8.6103,-4.1405 -16.91648,-8.97402 -1.69066,-0.9838 -3.33648,-1.89638 -3.6574,-2.02796 -1.99472,-0.8177 -4.71952,-0.90654 -6.77004,-0.22074 -0.84156,0.28146 -1.30444,0.52432 -4.41534,2.31672 -13.08919,7.54154 -20.02036,10.51528 -30.04628,12.89106 -9.18116,2.1756 -22.44943,3.44374 -30.74075,2.9381 -4.45128,-0.27146 -8.74247,-0.87378 -12.22204,-1.71548 -5.47102,-1.32342 -13.51356,-3.81128 -19.39836,-6.00064 -1.29862,-0.48314 -2.69444,-0.95646 -3.10186,-1.05182 -1.02996,-0.2411 -3.13472,-0.24136 -4.16666,-7.4e-4 -2.72466,0.63588 -4.77784,2.2086 -6.29524,4.82204 -1.11132,1.91408 -3.74972,7.45604 -5.5787,11.71808 -3.64624,8.49686 -5.99072,15.63826 -8.6329,26.2963 -1.2634,5.09634 -3.06788,13.49458 -3.52576,16.40928 -0.1396,0.88906 -0.0766,2.36008 0.1462,3.4136 l 0.1682,0.7951 -0.3321,0.5475 c -0.60368,0.99518 -1.06396,2.389 -1.2204,3.69564 -0.0304,0.25462 -0.1392,2.52544 -0.24142,5.04628 -0.1022,2.52084 -0.2684,5.79168 -0.36914,7.26852 -0.1648,2.41652 -0.1832,3.69052 -0.1834,12.73308 -1.8e-4,10.4998 0.029,11.54238 0.42188,15.091 0.64736,5.84664 1.76784,12.54654 4.11322,24.59498 1.50882,7.75094 2.22884,10.5033 4.67189,17.85872 2.67347,8.04934 4.97255,13.84764 7.67314,19.35186 2.40546,4.90274 7.23548,14.5008 7.64162,15.18518 0.37536,0.6325 4.12236,6.49832 8.54674,13.37962 l 3.0064,4.67594 4.11014,5.32406 c 6.04532,7.83078 5.98018,7.7475 6.84262,8.74522 3.2089,3.71206 8.79962,9.39418 13.34549,13.56366 0.63497,0.58238 2.34249,2.20738 3.79449,3.61112 3.67786,3.55554 6.89069,6.2673 11.52666,9.7287 9.57147,7.14652 26.13969,17.28612 35.97222,22.01466 2.83155,1.36174 4.16456,1.93074 10.49378,4.47952 6.14851,2.47604 7.15652,2.84234 8.48771,3.08452 0.8375,0.1524 3.23977,0.1788 4.07407,0.045 z"
       id="path4189"
       inkscape:connector-curvature="0" />
    <path
       style="fill:#d3d8da;fill-opacity:1;stroke:#7d82ff;stroke-width:0.37037036;stroke-opacity:1"
       d="m -486.43017,765.25354 c -0.48382,-0.173 -1.25462,-0.4713 -1.71296,-0.66278 -0.45834,-0.1914 -2.83334,-1.15116 -5.27778,-2.1326 -5.02882,-2.01904 -6.66594,-2.74778 -10.41666,-4.6369 -10.12933,-5.10172 -24.8006,-14.22592 -33.61112,-20.90302 -4.12305,-3.12472 -6.23556,-4.93052 -9.81482,-8.39012 -1.29862,-1.25518 -3.19444,-3.04952 -4.21296,-3.98738 -3.61548,-3.32924 -8.54168,-8.31606 -11.57044,-11.7128 -0.5449,-0.61112 -3.23394,-4.01164 -5.97562,-7.55674 -5.50156,-7.1137 -4.61204,-5.82904 -11.7573,-16.9803 -1.66418,-2.59722 -3.34704,-5.22222 -3.73967,-5.83334 -0.79998,-1.24512 -8.68297,-16.87938 -9.73408,-19.30556 -2.58478,-5.96616 -5.78851,-15.02674 -7.74292,-21.89814 -0.83776,-2.94546 -0.91946,-3.30722 -2.01764,-8.93518 -2.00412,-10.27084 -2.80628,-14.82384 -3.56436,-20.23148 -0.87101,-6.2131 -0.88605,-6.51688 -0.88728,-17.91668 -10e-4,-8.71856 0.018,-10.05712 0.1798,-12.4537 0.0994,-1.47684 0.24533,-4.39352 0.32423,-6.48148 0.0788,-2.08796 0.1678,-4.14006 0.1976,-4.56018 l 0.0542,-0.7639 c 82.08944,0 164.17888,0 246.26832,0 l 0.0536,0.39354 c 0.0544,0.39876 0.152,1.5295 0.97808,11.31944 l 0.46092,5.46296 0,5.62508 c 0,5.38196 -0.012,5.77816 -0.275,9.16668 -0.1512,1.94786 -0.42392,5.58324 -0.60588,8.0786 -0.22322,3.06142 -0.43616,5.2899 -0.65466,6.85186 -1.03956,7.43032 -2.58808,14.81054 -4.63354,22.08332 -1.24544,4.42832 -1.87418,6.37426 -4.62196,14.30556 l -2.34178,6.75926 -4.40192,9.0681 c -3.87303,7.97864 -4.75344,9.71148 -7.328,14.4233 l -2.92607,5.35522 -2.55673,3.67854 c -7.40171,10.64934 -9.2476,12.96764 -18.821,23.63762 -4.32586,4.82138 -8.44716,9.08378 -10.92598,11.3002 -1.22248,1.09306 -11.74492,9.40614 -14.56114,11.50376 -11.29192,8.4108 -10.18248,7.6286 -13.97222,9.85042 -1.90152,1.11482 -4.98461,2.89018 -6.85137,3.94526 -3.16237,1.78738 -3.66788,2.0388 -7.40741,3.68432 -15.38108,6.76824 -19.39522,8.51634 -20.17078,8.7842 -0.66526,0.22974 -1.08274,0.31304 -1.71296,0.3417 -0.76482,0.0348 -0.90566,0.012 -1.71295,-0.27666 z"
       id="path4187"
       inkscape:connector-curvature="0"
       sodipodi:nodetypes="ccsssscssscsssscccccccscsssssscsscssssssssccc" />
    <path
       style="fill:#000000;fill-opacity:1;stroke:#7d82ff;stroke-width:0.37037036;stroke-opacity:1"
       d="m -503.67365,711.11606 c 1.95978,-0.41366 4.22464,-1.40866 5.8503,-2.57014 2.786,-1.99044 5.08844,-5.0583 6.06618,-8.0827 0.63636,-1.96852 0.60492,-1.08126 0.60314,-17.02242 0,-14.0617 -0.089,-21.56472 -0.27396,-23.52954 -0.0796,-0.84508 -0.1398,-1.0701 -0.46044,-1.72078 -0.60344,-1.22456 -2.038,-3.11272 -3.9844,-5.24426 -1.08826,-1.19176 -1.25242,-1.55414 -1.24904,-2.75718 0,-0.43286 0.0464,-0.86332 0.1002,-0.95658 0.054,-0.0932 0.51108,-0.53234 1.016,-0.97574 1.62036,-1.42298 3.39824,-3.65572 4.2228,-5.30308 0.28694,-0.57326 0.39764,-0.9288 0.46798,-1.5031 0.14,-1.14312 0.1368,-28.14422 -0.004,-32.5578 -0.1928,-6.04352 -0.29668,-7.27954 -0.75374,-8.9606 -0.51918,-1.90938 -1.3877,-3.64502 -2.5397,-5.07534 -1.61694,-2.00752 -4.75164,-3.8067 -8.14968,-4.67754 -0.7458,-0.1912 -0.9091,-0.1932 -21.58484,-0.26664 -22.3842,-0.0796 -21.10626,-0.1002 -23.24686,0.37522 -1.11374,0.24734 -1.70674,0.56234 -3.74388,1.9888 -3.38594,2.3709 -5.33018,4.78548 -6.25846,7.77254 l -0.25866,0.83232 0.1634,20.637 0.1634,20.63698 0.44652,1.09982 c 0.24556,0.60488 0.64522,1.42286 0.88812,1.8177 0.62928,1.02294 2.04748,2.40162 3.37666,3.28266 0.8111,0.5376 1.10558,0.7877 1.22684,1.04204 0.182,0.3815 0.2049,0.84508 0.0608,1.22514 -0.0544,0.1434 -0.79582,0.96898 -1.64764,1.83472 -1.98462,2.01716 -2.76822,3.03978 -3.58176,4.67448 -0.77228,1.55174 -0.69842,-0.32442 -0.8092,20.557 -0.0764,14.4129 -0.0738,18.90952 0.012,19.76558 0.35824,3.58286 1.72772,7.00218 3.74062,9.33958 0.75772,0.87986 1.23606,1.2837 2.17698,1.83794 1.87978,1.10726 4.56352,2.02772 7.24512,2.48496 0.9121,0.1554 2.17452,0.1662 20.41666,0.173 18.96196,0.008 19.46574,0.002 20.30282,-0.174 z"
       id="path4185"
       inkscape:connector-curvature="0" />
    <path
       style="fill:#d3d8da;fill-opacity:1;stroke:#ff7975;stroke-width:0.37037036;stroke-opacity:1"
       d="m -532.95647,686.97904 c -0.66704,-0.20462 -0.96578,-0.45544 -1.2397,-1.04088 -0.23874,-0.51022 -0.24308,-0.55672 -0.30216,-3.2491 -0.033,-1.50234 -0.064,-6.33566 -0.069,-10.74076 l -0.01,-8.00926 0.218,-0.4681 c 0.26783,-0.57528 0.85126,-1.08934 1.52044,-1.3397 0.4957,-0.1854 0.64721,-0.1884 8.29438,-0.1628 7.6384,0.0256 7.79814,0.0298 8.23714,0.2176 0.90063,0.38516 1.34364,0.92164 1.54804,1.87474 0.0688,0.32096 0.056,2.44854 -0.0444,7.34102 -0.0778,3.789 -0.1658,8.49324 -0.1956,10.4539 -0.03,1.96064 -0.0962,3.75732 -0.1474,3.99262 -0.0606,0.27814 -0.1962,0.52756 -0.38778,0.7129 -0.62104,0.60102 -0.175,0.5729 -8.97214,0.5658 -6.89268,-0.006 -8.05246,-0.026 -8.45056,-0.148 z"
       id="path4183"
       inkscape:connector-curvature="0" />
    <path
       style="fill:#d3d8da;fill-opacity:1;stroke:#ff7975;stroke-width:0.37037036;stroke-opacity:1"
       d="m -532.65621,638.20544 c -0.73978,-0.26402 -1.17622,-0.75428 -1.3664,-1.53492 -0.0688,-0.2825 -0.1194,-3.80618 -0.1568,-10.9439 l -0.0552,-10.52722 0.24958,-0.51018 c 0.27814,-0.5685 0.59466,-0.87192 1.29504,-1.2414 l 0.47292,-0.24952 7.77778,0.006 c 6.94213,0.006 7.83249,0.022 8.28705,0.158 0.93557,0.28004 1.55999,0.93908 1.75652,1.85394 0.0776,0.36154 0.0668,2.32696 -0.0438,7.84354 -0.081,4.04862 -0.1766,8.88498 -0.21249,10.74752 l -0.0652,3.3864 -0.24852,0.37552 c -0.1498,0.2262 -0.40984,0.45364 -0.65426,0.57194 -0.40418,0.1956 -0.43582,0.1964 -8.54778,0.1924 -6.54783,-0.004 -8.20988,-0.0282 -8.48843,-0.1276 z"
       id="path4181"
       inkscape:connector-curvature="0" />
    <path
       style="fill:#000000;fill-opacity:1;stroke:#7d82ff;stroke-width:0.37037036;stroke-opacity:1"
       d="m -424.41439,711.11606 c 1.95978,-0.41366 4.22464,-1.40866 5.85028,-2.57014 2.78602,-1.99044 5.08846,-5.0583 6.0662,-8.0827 0.63636,-1.96852 0.60492,-1.08126 0.60314,-17.02242 0,-14.0617 -0.089,-21.56472 -0.27396,-23.52954 -0.0796,-0.84508 -0.1398,-1.0701 -0.46044,-1.72078 -0.60344,-1.22454 -2.038,-3.11272 -3.9844,-5.24426 -1.08826,-1.19176 -1.25242,-1.55414 -1.24904,-2.75718 0,-0.43286 0.0464,-0.86332 0.1002,-0.95658 0.054,-0.0932 0.51108,-0.53232 1.01598,-0.97574 1.62038,-1.42298 3.39826,-3.65572 4.22282,-5.30308 0.28692,-0.57326 0.39764,-0.9288 0.46798,-1.5031 0.14,-1.14312 0.1368,-28.14422 -0.004,-32.5578 -0.1928,-6.04352 -0.29668,-7.27954 -0.75374,-8.9606 -0.51918,-1.90938 -1.3877,-3.64502 -2.5397,-5.07534 -1.6169,-2.00746 -4.74954,-3.8055 -8.14968,-4.67772 -0.7461,-0.1914 -0.90126,-0.1934 -21.58484,-0.26616 -22.37404,-0.0788 -21.11234,-0.0992 -23.24686,0.37492 -1.11736,0.24816 -1.71188,0.5638 -3.74388,1.98768 -3.38686,2.37326 -5.33042,4.78738 -6.25846,7.77366 l -0.25866,0.83232 0.1634,20.637 0.1634,20.63698 0.44652,1.09982 c 0.24556,0.60488 0.64522,1.42286 0.88814,1.8177 0.62926,1.02294 2.04746,2.40164 3.37666,3.28266 0.81108,0.5376 1.10556,0.7877 1.22686,1.04204 0.182,0.3815 0.2049,0.84508 0.0606,1.22514 -0.0544,0.1434 -0.7958,0.96898 -1.64762,1.83472 -1.98464,2.01716 -2.76822,3.03978 -3.58178,4.67448 -0.77225,1.55174 -0.6984,-0.32442 -0.80913,20.557 -0.0764,14.4129 -0.0738,18.90952 0.012,19.76558 0.35822,3.58286 1.72768,7.00218 3.7406,9.33958 0.7577,0.87986 1.23604,1.2837 2.177,1.83794 1.87978,1.10726 4.56348,2.02772 7.24508,2.48496 0.9121,0.1556 2.17453,0.1662 20.41666,0.173 18.96196,0.008 19.46574,0.002 20.30282,-0.174 z"
       id="path4179"
       inkscape:connector-curvature="0" />
    <path
       style="fill:#d3d8da;fill-opacity:1;stroke:#ff7975;stroke-width:0.37037036;stroke-opacity:1"
       d="m -453.69721,686.97904 c -0.66704,-0.20462 -0.96578,-0.45544 -1.2397,-1.04088 -0.23874,-0.51022 -0.24308,-0.55672 -0.30216,-3.2491 -0.033,-1.50234 -0.064,-6.33566 -0.069,-10.74076 l -0.01,-8.00926 0.218,-0.4681 c 0.26784,-0.57528 0.8513,-1.08934 1.52044,-1.3397 0.4957,-0.1854 0.64722,-0.1884 8.29438,-0.1628 7.63841,0.0256 7.79814,0.0298 8.23714,0.2176 0.90064,0.38516 1.34364,0.92164 1.54804,1.87474 0.0688,0.32096 0.056,2.44854 -0.0444,7.34102 -0.0776,3.789 -0.1658,8.49324 -0.1956,10.4539 -0.03,1.96064 -0.0962,3.75732 -0.1474,3.99262 -0.0606,0.27814 -0.19619,0.52756 -0.38778,0.7129 -0.62104,0.60102 -0.17499,0.5729 -8.97213,0.5658 -6.89269,-0.006 -8.05246,-0.026 -8.45056,-0.148 z"
       id="path4177"
       inkscape:connector-curvature="0" />
    <path
       style="fill:#d3d8da;fill-opacity:1;stroke:#ff7975;stroke-width:0.37037036;stroke-opacity:1"
       d="m -453.39695,638.20544 c -0.73978,-0.26402 -1.17618,-0.75428 -1.3664,-1.53492 -0.0688,-0.2825 -0.1194,-3.80618 -0.1568,-10.9439 l -0.0554,-10.52722 0.24964,-0.51018 c 0.2781,-0.5685 0.59466,-0.87192 1.295,-1.2414 l 0.47292,-0.24952 7.77778,0.006 c 6.94212,0.006 7.83248,0.022 8.28704,0.158 0.9356,0.28004 1.56,0.93908 1.75652,1.85394 0.0776,0.36154 0.0668,2.32696 -0.0436,7.84354 -0.081,4.04862 -0.1766,8.88498 -0.21248,10.74752 l -0.0652,3.3864 -0.24852,0.37552 c -0.1498,0.2262 -0.40985,0.45364 -0.65426,0.57194 -0.40418,0.1956 -0.43582,0.1964 -8.54778,0.1924 -6.5478,-0.004 -8.20988,-0.0282 -8.48843,-0.1276 z"
       id="path4175"
       inkscape:connector-curvature="0" />
    <path
       style="fill:#000000;fill-opacity:1;stroke:#7d82ff;stroke-width:0.37037036;stroke-opacity:1"
       d="m -606.47645,561.55478 c 0.1548,-0.97278 1.29052,-6.55366 1.79482,-8.81944 2.94536,-13.23298 5.81006,-22.43468 9.90822,-31.82606 1.91314,-4.38416 4.94496,-10.62764 5.16078,-10.62764 0.066,0 0.34032,0.0872 0.60956,0.194 3.49024,1.38268 10.37569,3.6782 14.93398,4.9788 8.40026,2.39684 12.29014,3.14848 19.2593,3.72154 1.93066,0.1588 9.07266,0.21852 11.38888,0.0952 8.62882,-0.45906 17.291,-1.66362 24.37786,-3.38998 7.3563,-1.792 13.3778,-4.01054 20.39066,-7.5126 3.71352,-1.85446 5.46532,-2.80182 10.43362,-5.64232 1.99542,-1.14086 3.67848,-2.07428 3.74016,-2.07428 0.0616,0 1.44988,0.77786 3.08488,1.72858 9.8227,5.71162 14.46996,8.09102 20.19504,10.33992 8.412,3.30436 17.88014,5.3592 28.8426,6.25964 4.5131,0.3707 5.46582,0.41746 8.47222,0.41578 5.85358,-0.004 12.81462,-0.56342 18.47222,-1.4864 7.12874,-1.16302 12.66674,-2.8244 23.55164,-7.0654 1.31684,-0.51308 2.44948,-0.93286 2.51692,-0.93286 0.0674,0 0.1518,0.092 0.1876,0.20438 0.0608,0.1916 0.87548,1.98942 4.43888,9.79562 3.41608,7.48338 5.28166,12.24872 6.94262,17.7335 1.54186,5.09166 2.9218,11.08702 4.11352,17.87224 0.3663,2.08556 1.02668,6.16442 1.02668,6.34144 -87.01728,0.145 -146.70556,0.0898 -243.90518,0.0898 l 0.0626,-0.39352 z"
       id="path4173"
       inkscape:connector-curvature="0"
       sodipodi:nodetypes="cssscssssssscsscssscssscccc" />
    <path
       style="fill:#e1e1e1;fill-opacity:1"
       d="m -490.59683,551.2944 0,-4.91316 0.62498,-0.72662 c 0.34376,-0.39964 0.66086,-0.71842 0.70468,-0.70842 0.0438,0.01 1.20022,2.51332 2.56974,5.56292 1.36952,3.04958 2.50034,5.55168 2.51292,5.5602 0.0512,0.0348 6.29292,-0.1288 6.33,-0.1658 0.0222,-0.022 -0.67254,-1.74394 -1.54362,-3.82636 -0.87112,-2.08244 -2.05444,-4.91124 -2.62972,-6.28624 -0.57522,-1.375 -1.55346,-3.71566 -2.17384,-5.20146 l -1.12792,-2.70146 3.80154,-6.63616 c 2.0909,-3.64988 3.8016,-6.6738 3.8016,-6.71984 0,-0.0462 -0.636,-0.0836 -1.42026,-0.0836 -0.78114,0 -2.29502,-0.0272 -3.36418,-0.0606 l -1.94396,-0.0606 -2.96403,5.20174 -2.96404,5.20174 -0.0606,-1.12796 c -0.0334,-0.62038 -0.0606,-2.98048 -0.0606,-5.24468 l 0,-4.1167 -0.6713,0.055 c -0.36922,0.0302 -1.69766,0.0822 -2.95208,0.1154 l -2.28079,0.0604 -0.0562,5.1039 c -0.0306,2.80714 -0.0712,9.94764 -0.0896,15.86778 l -0.0334,10.76388 2.9954,0 2.99542,0 0,-4.91316 z"
       id="path4171"
       inkscape:connector-curvature="0" />
    <path
       style="fill:#e1e1e1;fill-opacity:1"
       d="m -448.08265,549.7724 -0.0322,-6.4352 2.55526,0 2.55522,0 0,6.44982 0,6.44984 3.07492,-0.0648 c 1.69122,-0.0358 3.07926,-0.0736 3.08452,-0.084 0.006,-0.01 -0.0642,-6.06088 -0.1546,-13.44514 -0.0902,-7.38426 -0.1762,-14.44676 -0.191,-15.69444 l -0.0266,-2.26852 -2.80092,-0.0246 -2.80094,-0.0244 -0.01,1.13562 c -0.063,7.21812 -0.1422,11.27768 -0.2216,11.35078 -0.051,0.047 -1.20714,0.11 -2.56944,0.1402 l -2.47686,0.0548 0,-6.28496 0,-6.28494 -2.89352,-0.0342 c -1.5914,-0.018 -2.91952,-0.0232 -2.95132,-0.01 -0.0318,0.014 -0.0844,6.57734 -0.117,14.58638 -0.0326,8.00904 -0.0842,15.09316 -0.1146,15.74246 l -0.0554,1.18056 3.08902,2e-5 3.08902,0 -0.0322,-6.4352 z"
       id="path4169"
       inkscape:connector-curvature="0" />
    <path
       style="fill:#e1e1e1;fill-opacity:1"
       d="m -419.77729,556.06654 c 1.57516,-0.29874 2.68356,-1.1497 3.34612,-2.56892 0.66152,-1.41698 0.62292,-0.5215 0.58062,-13.4726 l -0.0382,-11.6918 -0.30234,-0.7702 c -0.55412,-1.41136 -1.04544,-1.9316 -2.42729,-2.57002 l -0.81018,-0.37432 -5.00544,0.021 c -4.65908,0.02 -5.04356,0.0334 -5.556,0.1996 -1.39626,0.45306 -2.26352,1.45404 -2.81844,3.25292 -0.1948,0.63174 -0.1958,0.68916 -0.1958,12.0991 l 0,11.46436 0.2884,0.81756 c 0.66574,1.88712 1.36578,2.83542 2.51896,3.41234 l 0.64978,0.32506 4.53081,-0.006 c 3.55504,-0.004 4.68335,-0.034 5.23901,-0.1392 z"
       id="path4167"
       inkscape:connector-curvature="0" />
    <path
       style="fill:#000000;fill-opacity:1"
       d="m -426.88499,550.12174 -0.22334,-0.042 0.0648,-9.91796 c 0.0356,-5.45486 0.079,-9.9322 0.0964,-9.94958 0.018,-0.018 1.22416,-0.002 2.68168,0.0334 l 2.65002,0.065 0,9.93924 0,9.93924 -2.52314,-0.012 c -1.38774,-0.008 -2.62366,-0.0316 -2.74648,-0.0546 z"
       id="path4165"
       inkscape:connector-curvature="0" />
    <path
       style="fill:#e1e1e1;fill-opacity:1"
       d="m -405.85735,552.00958 -0.0288,-4.1981 2.01974,-0.061 c 1.11088,-0.0336 2.7104,-0.061 3.55448,-0.0612 1.39196,-2e-4 1.59778,-0.0216 2.21282,-0.23086 1.37514,-0.46772 2.26704,-1.28458 2.92948,-2.68302 l 0.41396,-0.87392 -0.027,-8.08798 -0.027,-8.08798 -0.34984,-0.70784 c -0.55672,-1.12622 -1.43634,-1.78046 -2.95338,-2.19664 -0.66652,-0.1828 -0.89382,-0.188 -7.211,-0.165 l -6.52282,0.0238 -0.0464,15.69444 c -0.0256,8.63194 -0.0334,15.72568 -0.018,15.76388 0.016,0.0382 1.39076,0.0694 3.05556,0.0694 l 3.02696,6e-5 -0.0288,-4.1981 z"
       id="path4163"
       inkscape:connector-curvature="0" />
    <path
       style="fill:#000000;fill-opacity:1"
       d="m -405.87477,535.9615 0,-5.80162 2.37226,0.064 2.37226,0.0642 0.40552,0.279 0.40552,0.279 0,3.62982 c 0,1.9964 -0.0274,4.34226 -0.0604,5.21304 l -0.06,1.58322 -0.40642,0.24548 -0.40635,0.24548 -2.31105,0 -2.31104,0 0,-5.80164 z"
       id="path4161"
       inkscape:connector-curvature="0" />
    <path
       style="fill:#e1e1e1;fill-opacity:1"
       d="m -557.17105,556.07408 c 0,-0.0224 0.0818,-0.74124 0.18181,-1.59722 0.1,-0.85598 0.22443,-1.93134 0.27657,-2.38966 0.44957,-3.9496 1.76938,-15.30722 1.79149,-15.41668 0.016,-0.0764 0.0808,0.25696 0.1454,0.74074 0.1244,0.933 1.82038,14.22734 2.15732,16.91088 l 0.1992,1.5868 3.15654,0.066 c 1.73612,0.0364 3.30234,0.0514 3.48054,0.0336 l 0.324,-0.0324 1.77968,-12.96296 c 2.2546,-16.42214 2.51406,-18.32994 2.49516,-18.34846 -0.057,-0.0558 -5.98762,-0.1364 -5.98762,-0.0814 0,0.038 -0.27216,2.59614 -0.60478,5.68468 -0.59456,5.5207 -0.91694,8.52564 -1.38726,12.93034 -0.1306,1.22222 -0.2496,2.26386 -0.2646,2.31474 -0.0356,0.1202 0.02,0.61322 -1.21838,-10.8308 -0.60466,-5.58824 -1.11388,-9.93098 -1.16844,-9.96468 -0.112,-0.0692 -5.8098,-0.21724 -5.87448,-0.1526 -0.0498,0.0498 -0.31136,2.10398 -1.65844,13.0257 -0.53662,4.351 -0.9863,7.9215 -0.99924,7.93446 -0.012,0.012 -0.1638,-1.56778 -0.33534,-3.51276 -1.06208,-12.0463 -1.55354,-17.38166 -1.60598,-17.43408 -0.0328,-0.0328 -1.39948,-0.0288 -3.03698,0.008 l -2.97728,0.0688 0.0546,0.34182 c 0.0528,0.33088 0.83838,6.28152 1.49188,11.30228 0.1756,1.34954 0.50686,3.8912 0.736,5.64814 0.6606,5.0652 1.81158,14.02226 1.81158,14.09782 0,0.0378 1.58334,0.0688 3.51852,0.0688 1.9352,0 3.51854,-0.018 3.51854,-0.041 z"
       id="path4159"
       inkscape:connector-curvature="0" />
    <path
       style="fill:#e1e1e1;fill-opacity:1"
       d="m -511.70683,552.06404 c 0,-2.228 0.0248,-4.1386 0.0536,-4.24576 0.0472,-0.1754 0.1416,-0.20078 0.94782,-0.25436 0.70388,-0.0468 0.91534,-0.0324 0.98812,0.0672 0.051,0.0698 0.79962,1.98628 1.6638,4.259 l 1.57126,4.13222 1.57688,-0.012 c 0.8673,-0.006 2.2909,-0.0374 3.16354,-0.0694 l 1.58662,-0.0582 -1.74704,-4.07408 c -0.96086,-2.24074 -1.74758,-4.09492 -1.7483,-4.12038 0,-0.0254 0.27517,-0.1892 0.61304,-0.36396 0.977,-0.50522 1.59034,-1.13958 2.09882,-2.17072 l 0.43435,-0.88072 -0.004,-8.26914 -0.004,-8.26914 -0.22213,-0.54028 c -0.45303,-1.10168 -0.78205,-1.4208 -2.31,-2.24018 l -0.81934,-0.43936 -6.49338,0.064 c -3.57134,0.0352 -6.6226,0.086 -6.78056,0.113 l -0.28723,0.049 -0.0596,6.17282 c -0.0484,5.0223 -0.1034,24.87464 -0.0696,25.13118 0.006,0.0382 1.32166,0.0694 2.9258,0.0694 l 2.91668,0 0,-4.05094 z"
       id="path4157"
       inkscape:connector-curvature="0" />
    <path
       style="fill:#000000;fill-opacity:1"
       d="m -511.74495,541.69368 c -0.0286,-0.14 -0.0472,-2.82102 -0.0416,-5.95772 l 0.01,-5.7031 2.59396,-0.0628 c 1.42672,-0.0346 2.60696,-0.0498 2.62286,-0.0338 0.016,0.016 0.0582,2.72514 0.094,6.02056 l 0.0652,5.99168 -2.6464,0 -2.64642,0 -0.0514,-0.25464 z"
       id="path4155"
       inkscape:connector-curvature="0" />
    <path
       style="fill:#e1e1e1;fill-opacity:1"
       d="m -459.32253,555.89896 c 0.8808,-0.2933 1.34418,-0.85614 1.6378,-1.98928 0.1302,-0.50244 0.1454,-1.28506 0.1228,-6.29074 -0.0236,-5.21402 -0.04,-5.74268 -0.186,-6.00952 -0.1352,-0.24712 -0.48068,-0.4477 -2.22222,-1.2904 -2.99042,-1.44696 -6.98404,-3.4754 -7.93842,-4.03206 l -0.82534,-0.48142 -0.0628,-0.58622 c -0.0818,-0.76412 0.006,-4.16226 0.1172,-4.521 0.0822,-0.26562 0.1144,-0.28036 0.73612,-0.33648 0.35762,-0.0324 1.55262,-0.0894 2.65562,-0.127 l 2.00542,-0.0684 0,2.13548 c 0,1.1745 0.0312,2.15112 0.0694,2.17022 0.0382,0.02 1.32984,0.018 2.87036,-0.004 l 2.80092,-0.0394 0,-3.70258 c 0,-4.0631 -0.0218,-4.26362 -0.5589,-5.11034 -0.20548,-0.32402 -0.40068,-0.49358 -0.7615,-0.66156 l -0.48514,-0.2259 -6.16608,-7.4e-4 c -5.93096,-7.4e-4 -6.18662,0.006 -6.70556,0.1848 -1.15902,0.39876 -1.9044,1.06368 -2.2575,2.01382 -0.1974,0.53106 -0.1976,0.5425 -0.1162,6.13628 0.0786,5.41018 0.0882,5.61736 0.27426,5.98212 0.1308,0.25624 0.29122,0.41486 0.4986,0.49282 1.47718,0.55522 6.79506,3.24304 8.94678,4.52192 1.21932,0.72474 1.37088,0.88528 1.46592,1.5528 0.0946,0.66474 0.1,3.69252 0.008,4.03496 -0.0364,0.1344 -0.1396,0.2732 -0.22912,0.30836 -0.0896,0.0352 -0.70984,0.1078 -1.37844,0.1614 -1.27926,0.1024 -3.58496,-0.014 -3.7614,-0.1912 -0.0528,-0.0528 -0.0754,-0.85454 -0.0558,-1.98532 l 0.033,-1.89676 -1.62037,-0.0578 c -0.89118,-0.0318 -2.20852,-0.0828 -2.92736,-0.1134 l -1.30702,-0.0556 -0.0684,3.52232 c -0.0622,3.20132 -0.054,3.56722 0.0916,4.0152 0.43048,1.3262 1.45507,2.29812 2.77606,2.63332 0.35442,0.09 1.82018,0.1124 6.25002,0.096 5.23213,-0.02 5.83375,-0.037 6.27444,-0.1838 z"
       id="path4153"
       inkscape:connector-curvature="0" />
    <path
       style="fill:#e1e1e1;fill-opacity:1"
       d="m -523.69331,555.51754 c 0.99696,-0.48498 1.6327,-1.10916 2.11692,-2.07838 l 0.30538,-0.61122 0.0638,-7.6389 c 0.0352,-4.20138 0.102,-9.79784 0.14881,-12.43658 l 0.085,-4.7977 -0.34414,-0.71058 c -0.39166,-0.80868 -1.27752,-1.77962 -1.97239,-2.16184 l -0.42452,-0.23352 -5.65996,-0.0568 -5.65999,-0.0568 -0.55148,0.36828 c -0.781,0.52152 -1.51575,1.3543 -1.92436,2.18108 l -0.34978,0.70776 -0.0642,1.5843 c -0.0352,0.87138 -0.1132,6.29266 -0.17281,12.04728 -0.0802,7.73842 -0.0816,10.58068 -0.006,10.91502 0.25513,1.11094 1.24599,2.42598 2.24483,2.97932 l 0.4916,0.27234 2.5,0.0492 c 1.375,0.027 3.8106,0.0582 5.4124,0.0696 l 2.91242,0.0202 0.8474,-0.41224 z"
       id="path4151"
       inkscape:connector-curvature="0" />
    <path
       style="fill:#000000;fill-opacity:1"
       d="m -529.53217,549.99968 c -0.81482,-0.0348 -1.74192,-0.069 -2.06018,-0.0758 l -0.5787,-0.012 0,-9.86614 0,-9.86614 2.70832,0.0282 2.70834,0.0282 0.0236,9.93056 0.0236,9.93056 -0.67174,-0.016 c -0.36944,-0.01 -1.33836,-0.0452 -2.15318,-0.08 z"
       id="path4147"
       inkscape:connector-curvature="0" />
  </g>
</svg>
