<?xml version="1.0" encoding="UTF-8" standalone="no"?>
<!-- Created with Inkscape (http://www.inkscape.org/) -->

<svg
   xmlns:dc="http://purl.org/dc/elements/1.1/"
   xmlns:cc="http://creativecommons.org/ns#"
   xmlns:rdf="http://www.w3.org/1999/02/22-rdf-syntax-ns#"
   xmlns:svg="http://www.w3.org/2000/svg"
   xmlns="http://www.w3.org/2000/svg"
   xmlns:sodipodi="http://sodipodi.sourceforge.net/DTD/sodipodi-0.dtd"
   xmlns:inkscape="http://www.inkscape.org/namespaces/inkscape"
   id="svg2"
   version="1.1"
   inkscape:version="0.91 r13725"
   width="359.95853"
   height="384.53494"
   sodipodi:docname="Workshop88logoForEtching.svg">
  <metadata
     id="metadata8">
    <rdf:RDF>
      <cc:Work
         rdf:about="">
        <dc:format>image/svg+xml</dc:format>
        <dc:type
           rdf:resource="http://purl.org/dc/dcmitype/StillImage" />
        <dc:title></dc:title>
      </cc:Work>
    </rdf:RDF>
  </metadata>
  <defs
     id="defs6" />
  <sodipodi:namedview
     pagecolor="#ffffff"
     bordercolor="#666666"
     borderopacity="1"
     objecttolerance="10"
     gridtolerance="10"
     guidetolerance="10"
     inkscape:pageopacity="0"
     inkscape:pageshadow="2"
     inkscape:window-width="1366"
     inkscape:window-height="746"
     id="namedview4"
     showgrid="false"
     inkscape:zoom="1.5864701"
     inkscape:cx="53.448283"
     inkscape:cy="183.88994"
     inkscape:window-x="-8"
     inkscape:window-y="-8"
     inkscape:window-maximized="1"
     inkscape:current-layer="svg2"
     fit-margin-top="0"
     fit-margin-left="0"
     fit-margin-right="0"
     fit-margin-bottom="0" />
  <path
     style="fill:#000000"
     d="m 125.2484,277.71993 c -0.0499,-0.0143 -0.23347,-0.084 -0.40801,-0.15515 -0.17455,-0.0711 -0.68048,-0.27498 -1.1243,-0.45298 -0.96476,-0.38692 -1.22374,-0.50161 -1.91187,-0.84662 -1.26235,-0.63291 -2.70889,-1.47557 -4.35731,-2.53829 -1.87203,-1.20689 -3.12505,-2.16517 -4.20324,-3.21457 -0.21942,-0.21355 -0.55394,-0.53191 -0.74338,-0.70744 -1.00644,-0.93253 -1.70984,-1.64491 -2.42797,-2.45896 -0.0968,-0.10971 -0.61081,-0.76254 -1.14228,-1.45073 l -0.96629,-1.25125 -0.77994,-1.21497 c -0.74884,-1.16652 -1.27123,-1.98263 -1.37167,-2.14293 -0.088,-0.14041 -1.67533,-3.33111 -1.79824,-3.61463 -0.58142,-1.34123 -1.32807,-3.5097 -1.65778,-4.81459 -0.0578,-0.22857 -0.44506,-2.2032 -0.59932,-3.05558 -0.18509,-1.02269 -0.33481,-1.97753 -0.41658,-2.65665 -0.10077,-0.83687 -0.0973,-0.74355 -0.10519,-2.79264 -0.007,-1.79754 -0.005,-1.95749 0.0299,-2.46622 0.0205,-0.29921 0.0541,-0.96429 0.0746,-1.47793 0.0205,-0.51364 0.0407,-0.9441 0.0449,-0.95657 0.006,-0.0181 4.844,-0.0227 24.10889,-0.0227 19.26459,0 24.10289,0.004 24.10937,0.0227 0.008,0.0235 0.14889,1.62766 0.24444,2.79094 0.0519,0.63216 0.0546,0.71321 0.0546,1.65475 0,0.93052 -0.003,1.03171 -0.0539,1.68364 -0.0296,0.38148 -0.0866,1.13426 -0.12651,1.67284 -0.0556,0.7503 -0.0895,1.09583 -0.1449,1.47793 -0.24486,1.68897 -0.59356,3.25221 -1.09013,4.88713 -0.20666,0.68041 -0.27362,0.88178 -0.73963,2.22448 l -0.41962,1.20899 -0.85574,1.765 c -0.75497,1.55715 -0.92392,1.88991 -1.43478,2.82583 -0.57834,1.05958 -0.57954,1.06158 -1.00702,1.6774 -1.46399,2.10905 -1.85322,2.60424 -3.4566,4.3975 -1.06037,1.18596 -1.64786,1.80762 -2.17023,2.29651 -0.42053,0.39356 -0.2299,0.2358 -1.56648,1.2964 -0.67208,0.53333 -1.59895,1.24415 -2.36186,1.81137 l -1.25567,0.93357 -0.61213,0.35966 c -0.33667,0.19781 -0.94262,0.54633 -1.34656,0.77448 -0.71094,0.40155 -0.76226,0.42707 -1.60486,0.79816 -2.92374,1.28766 -3.71877,1.63282 -3.88068,1.68479 -0.21352,0.0685 -0.39426,0.0848 -0.52589,0.0473 z m -3.51209,-10.63695 c 0.093,-0.0197 0.25501,-0.0645 0.35999,-0.0996 0.98484,-0.32956 1.78416,-1.18418 2.05098,-2.19288 l 0.0484,-0.18286 0.006,-2.43903 c 0.006,-2.39371 -0.0161,-4.61113 -0.0504,-5.0594 -0.0165,-0.21571 -0.0212,-0.23457 -0.098,-0.38988 -0.12422,-0.25137 -0.36164,-0.56616 -0.76681,-1.01674 -0.20558,-0.22861 -0.24274,-0.3017 -0.2554,-0.50229 -0.0116,-0.18361 0.0211,-0.27182 0.13165,-0.35496 0.3088,-0.2323 0.77139,-0.80265 0.93822,-1.15678 0.0552,-0.11724 0.0594,-0.14054 0.0711,-0.39657 0.0194,-0.426 0.0171,-5.24777 -0.003,-6.06583 -0.0302,-1.23513 -0.0563,-1.57825 -0.1451,-1.90482 -0.16925,-0.62241 -0.46099,-1.06129 -0.92465,-1.39091 -0.37777,-0.26857 -0.93605,-0.50315 -1.3101,-0.5505 -0.0994,-0.0126 -1.52312,-0.02 -4.2389,-0.0222 l -4.08923,-0.003 -0.2193,0.0476 c -0.12061,0.0262 -0.27043,0.0705 -0.33293,0.0985 -0.13778,0.0618 -0.77211,0.50453 -0.94595,0.66018 -0.3433,0.30738 -0.66839,0.80818 -0.7773,1.1975 l -0.038,0.13601 0.0292,4.01668 c 0.0288,3.96187 0.0297,4.0183 0.0665,4.13457 0.0487,0.15397 0.17626,0.42701 0.25124,0.53782 0.15753,0.23286 0.37183,0.4321 0.68518,0.63704 0.0832,0.0544 0.16677,0.12442 0.1858,0.15564 0.039,0.0639 0.0467,0.20807 0.0145,0.27102 -0.0111,0.0218 -0.15268,0.17425 -0.31453,0.33881 -0.47525,0.48324 -0.75694,0.90926 -0.82718,1.25101 -0.0249,0.1212 -0.0566,7.36293 -0.0332,7.58027 0.0989,0.91785 0.53321,1.77738 1.07302,2.12363 0.37347,0.23958 1.02041,0.46997 1.5185,0.54077 0.0748,0.0106 0.15639,0.0223 0.18134,0.0259 0.0249,0.004 1.74268,0.008 3.81721,0.009 3.68678,0.002 3.77569,0.002 3.941,-0.0335 z m -5.74514,-4.73226 c -0.12267,-0.0423 -0.20387,-0.1266 -0.24828,-0.25761 -0.0307,-0.0907 -0.0331,-0.22578 -0.0378,-2.17435 -0.006,-2.30983 -0.0146,-2.13921 0.11861,-2.28685 0.0372,-0.0412 0.11655,-0.0982 0.17639,-0.12652 l 0.10881,-0.0516 1.50512,0 c 1.57214,0 1.59508,0.002 1.74359,0.0781 0.0886,0.0459 0.18566,0.17209 0.21821,0.2839 0.0268,0.0922 0.0267,0.23489 -0.002,1.78669 -0.0172,0.92755 -0.0368,1.88291 -0.0434,2.123 -0.012,0.43404 -0.0125,0.43697 -0.0608,0.51009 -0.0293,0.0443 -0.0803,0.0888 -0.12813,0.11201 -0.0791,0.0383 -0.0857,0.0385 -1.665,0.0379 -1.50819,0 -1.59039,-0.002 -1.68508,-0.035 z m 0.19928,-9.51756 c -0.18037,-0.022 -0.30041,-0.11238 -0.36778,-0.27701 l -0.0402,-0.0983 -0.005,-2.08086 -0.005,-2.08086 0.0393,-0.0914 c 0.049,-0.11377 0.16827,-0.22156 0.29975,-0.27075 0.0961,-0.036 0.13446,-0.0369 1.56219,-0.0365 1.58225,0 1.60703,0.002 1.76978,0.0971 0.0948,0.0555 0.18064,0.17295 0.2136,0.29208 0.0148,0.0535 0.0145,0.36438 0,1.16993 -0.0114,0.60341 -0.0294,1.55001 -0.0397,2.10354 -0.0184,0.97949 -0.02,1.00863 -0.0587,1.08802 -0.0431,0.0885 -0.12489,0.15301 -0.22946,0.18117 -0.059,0.0159 -3.00943,0.0194 -3.13792,0.004 z m 21.06859,14.24982 c 0.093,-0.0197 0.25502,-0.0645 0.36,-0.0996 0.98484,-0.32956 1.78415,-1.18418 2.05098,-2.19288 l 0.0484,-0.18286 0.006,-2.43903 c 0.006,-2.39371 -0.0161,-4.61113 -0.0504,-5.0594 -0.0165,-0.21571 -0.0213,-0.23457 -0.098,-0.38988 -0.12423,-0.25137 -0.36165,-0.56616 -0.76682,-1.01674 -0.20557,-0.22861 -0.24274,-0.3017 -0.2554,-0.50229 -0.0116,-0.18361 0.0211,-0.27182 0.13165,-0.35496 0.30881,-0.2323 0.77139,-0.80265 0.93823,-1.15678 0.0552,-0.11724 0.0594,-0.14054 0.0711,-0.39657 0.0194,-0.426 0.0171,-5.24777 -0.003,-6.06583 -0.0302,-1.23513 -0.0563,-1.57825 -0.1451,-1.90482 -0.16924,-0.62241 -0.46099,-1.06129 -0.92463,-1.39091 -0.3779,-0.26864 -0.93643,-0.5033 -1.31012,-0.55042 -0.099,-0.0124 -1.53387,-0.02 -4.2389,-0.0222 l -4.08923,-0.003 -0.2193,0.0476 c -0.12061,0.0262 -0.27043,0.0705 -0.33293,0.0986 -0.13778,0.0618 -0.77211,0.50453 -0.94595,0.66018 -0.3433,0.30737 -0.66839,0.80818 -0.7773,1.1975 l -0.038,0.136 0.0292,4.01669 c 0.0288,3.96186 0.0297,4.0183 0.0665,4.13456 0.0487,0.15398 0.17628,0.42701 0.25124,0.53783 0.15753,0.23286 0.37183,0.4321 0.68519,0.63703 0.0832,0.0544 0.16677,0.12443 0.18579,0.15565 0.039,0.0639 0.0467,0.20807 0.0146,0.27102 -0.0111,0.0218 -0.15268,0.17424 -0.31453,0.33881 -0.47526,0.48324 -0.75694,0.90925 -0.82718,1.25101 -0.0249,0.1212 -0.0566,7.36292 -0.0332,7.58027 0.0989,0.91784 0.53319,1.77737 1.073,2.12362 0.37347,0.23958 1.02041,0.46998 1.51851,0.54077 0.0748,0.0106 0.1564,0.0223 0.18134,0.026 0.0249,0.004 1.74267,0.008 3.8172,0.009 3.68678,0.002 3.77571,0.002 3.941,-0.0335 z m -5.74513,-4.73226 c -0.12267,-0.0423 -0.20388,-0.1266 -0.24828,-0.25761 -0.0308,-0.0907 -0.0331,-0.22578 -0.0378,-2.17435 -0.006,-2.30983 -0.0145,-2.13921 0.11862,-2.28685 0.0372,-0.0412 0.11656,-0.0982 0.1764,-0.12652 l 0.10879,-0.0516 1.50515,0 c 1.57212,0 1.59506,0.002 1.74357,0.0781 0.0887,0.0459 0.18566,0.17209 0.2182,0.2839 0.0268,0.0922 0.0267,0.23489 -0.002,1.78669 -0.0172,0.92755 -0.0368,1.88291 -0.0434,2.123 -0.012,0.43404 -0.0124,0.43697 -0.0608,0.51009 -0.0293,0.0443 -0.0803,0.0888 -0.12813,0.11201 -0.0791,0.0383 -0.0857,0.0385 -1.665,0.0379 -1.5082,0 -1.59039,-0.002 -1.68508,-0.035 z m 0.19928,-9.51756 c -0.18038,-0.022 -0.30039,-0.11238 -0.36778,-0.27701 l -0.0402,-0.0983 -0.005,-2.08086 -0.005,-2.08086 0.0393,-0.0914 c 0.0489,-0.11377 0.16826,-0.22156 0.29973,-0.27075 0.0961,-0.036 0.13447,-0.0369 1.5622,-0.0365 1.58225,0 1.60704,0.002 1.76978,0.0971 0.0948,0.0555 0.18063,0.17295 0.21359,0.29208 0.0148,0.0535 0.0146,0.36438 0,1.16993 -0.0116,0.60341 -0.0294,1.55001 -0.0398,2.10354 -0.0184,0.97949 -0.02,1.00863 -0.0587,1.08802 -0.0432,0.0885 -0.12489,0.15301 -0.22956,0.1812 -0.0591,0.0159 -3.0091,0.0194 -3.13782,0.004 z M 101.63522,237.8233 c -0.0328,-0.0856 0.45666,-2.33566 0.76499,-3.51615 0.48855,-1.87046 0.95202,-3.21189 1.64516,-4.76163 0.3705,-0.82835 0.83105,-1.76764 0.87424,-1.78294 0.0102,-0.004 0.17779,0.0532 0.37229,0.1264 1.18003,0.44396 2.62233,0.89253 3.88975,1.20975 1.75039,0.4381 3.66012,0.54691 5.91839,0.33721 1.59337,-0.14796 2.91705,-0.37533 4.17207,-0.71663 1.22039,-0.33189 2.27552,-0.74008 3.51913,-1.36142 0.65313,-0.32632 1.00935,-0.51964 1.98911,-1.07956 0.66626,-0.38075 0.73239,-0.41458 0.77068,-0.39433 0.023,0.0122 0.26225,0.15033 0.53155,0.30698 0.76525,0.44518 1.34375,0.77296 1.77179,1.00396 2.70502,1.45978 5.03829,2.08788 8.63714,2.32507 1.45413,0.0958 3.71689,-0.0802 5.27144,-0.41022 1.06155,-0.22533 2.11227,-0.5643 3.84281,-1.23979 0.24542,-0.0958 0.46315,-0.17415 0.48387,-0.17415 0.0223,0 0.0426,0.0155 0.0497,0.038 0.007,0.0209 0.12613,0.28812 0.26558,0.59389 0.13942,0.30575 0.39673,0.87008 0.57177,1.25406 0.59419,1.3034 0.91735,2.09708 1.20319,2.95491 0.33789,1.01409 0.64201,2.22042 0.88712,3.51896 0.10752,0.56963 0.27218,1.57156 0.27719,1.68671 l 0.004,0.0995 -23.85136,0.004 c -21.34302,0.004 -23.85248,0.002 -23.86196,-0.0231 z m 22.67929,-2.05136 0.009,-0.96371 0.11752,-0.13805 c 0.0646,-0.0759 0.12585,-0.1353 0.13601,-0.13197 0.0102,0.003 0.14655,0.29105 0.30306,0.63934 0.15651,0.3483 0.37568,0.83524 0.487,1.08209 l 0.20242,0.44882 0.23091,0 c 0.12699,0 0.40428,-0.005 0.6162,-0.012 0.37834,-0.0118 0.38514,-0.0128 0.37706,-0.0499 -0.005,-0.0208 -0.33233,-0.81242 -0.72847,-1.75908 -0.61312,-1.46523 -0.71744,-1.72729 -0.70151,-1.76226 0.0104,-0.0226 0.34147,-0.60432 0.73597,-1.29272 0.39449,-0.6884 0.71727,-1.25954 0.71727,-1.2692 0,-0.0267 -0.17487,-0.0369 -0.75843,-0.0445 l -0.53174,-0.007 -0.0304,0.0462 c -0.0167,0.0254 -0.27551,0.47507 -0.57506,0.99925 -0.29956,0.52416 -0.55253,0.95303 -0.56217,0.95303 -0.011,0 -0.0209,-0.37464 -0.0266,-0.99737 l -0.009,-0.99738 -0.53425,0.006 c -0.29382,0.004 -0.55157,0.0131 -0.57275,0.0211 l -0.0385,0.0147 -0.0122,1.69106 c -0.0156,2.18633 -0.0155,4.46826 0,4.48399 0.007,0.007 0.26589,0.0102 0.57577,0.007 l 0.5634,-0.005 0.009,-0.96373 z m 8.32352,-0.2966 0.009,-1.26031 0.48262,-0.005 c 0.38929,-0.004 0.48658,-4e-5 0.5031,0.0199 0.0147,0.0176 0.0218,0.37667 0.0251,1.26514 l 0.005,1.24048 0.57122,-0.007 c 0.31416,-0.004 0.57839,-0.0134 0.58715,-0.0214 0.0155,-0.0144 -0.0324,-5.12062 -0.0544,-5.79751 l -0.0108,-0.33095 -0.53192,0 c -0.29256,0 -0.53564,0.006 -0.54017,0.0137 -0.004,0.008 -0.0143,0.55005 -0.0216,1.20572 -0.009,0.84026 -0.0194,1.19699 -0.0336,1.20868 -0.0111,0.009 -0.23649,0.0194 -0.50079,0.0228 l -0.48055,0.006 -0.0142,-1.20591 c -0.008,-0.66326 -0.0178,-1.21612 -0.0221,-1.22858 -0.006,-0.0174 -0.13431,-0.0227 -0.55924,-0.0227 l -0.5515,0 -0.0111,0.64829 c -0.0178,1.03877 -0.0351,5.4754 -0.0214,5.49758 0.009,0.0143 0.17951,0.0188 0.58702,0.0154 l 0.57452,-0.005 0.009,-1.26033 z m 5.6145,1.22276 c 0.26438,-0.0689 0.45652,-0.2238 0.5719,-0.46115 0.13356,-0.27475 0.12424,-0.0774 0.12424,-2.63228 l 0,-2.29933 -0.0433,-0.11496 c -0.0685,-0.18191 -0.1174,-0.26618 -0.2137,-0.36801 -0.10546,-0.1115 -0.30414,-0.21719 -0.46232,-0.24594 -0.073,-0.0132 -0.40409,-0.0144 -1.06791,-0.004 l -0.96211,0.0155 -0.12127,0.0616 c -0.20587,0.10455 -0.33029,0.26187 -0.42325,0.53512 l -0.0428,0.12595 0,2.2876 0,2.28759 0.0454,0.13331 c 0.12146,0.35713 0.25542,0.5375 0.48583,0.65414 l 0.14885,0.0754 0.92999,-0.0123 c 0.72011,-0.009 0.95267,-0.0182 1.03051,-0.0385 z m -1.05637,-1.12753 c -0.30514,-0.004 -0.42463,-0.0112 -0.43783,-0.0276 -0.0211,-0.026 0.003,-3.84323 0.0247,-3.87805 0.01,-0.0162 0.13591,-0.0188 0.50953,-0.0105 0.27293,0.006 0.50299,0.0152 0.51126,0.0203 0.008,0.005 0.021,0.87498 0.0283,1.93304 0.0102,1.48883 0.008,1.92968 -0.009,1.95004 -0.0148,0.0179 -0.0515,0.025 -0.11479,0.0221 -0.0511,-0.002 -0.28183,-0.006 -0.51265,-0.009 z m 3.70192,0.34906 0,-0.81604 0.15413,-0.0118 c 0.0848,-0.006 0.38962,-0.0126 0.67742,-0.0136 0.4124,-0.002 0.54656,-0.008 0.63324,-0.0303 0.28329,-0.0734 0.49229,-0.24761 0.63058,-0.52556 l 0.0807,-0.16224 0.005,-1.10617 c 0.003,-0.60839 -0.002,-1.33481 -0.009,-1.61422 -0.0143,-0.50749 -0.0143,-0.50819 -0.0654,-0.61263 -0.0693,-0.14158 -0.20703,-0.27291 -0.36418,-0.34719 -0.23608,-0.11158 -0.20477,-0.10953 -1.60401,-0.10535 -0.7021,0.002 -1.2806,0.008 -1.28556,0.0128 -0.005,0.005 -0.0132,1.38806 -0.0181,3.07357 l -0.009,3.06455 0.23383,0.006 c 0.1286,0.003 0.39296,0.006 0.58744,0.005 l 0.35362,-0.002 0,-0.81603 z m 0.003,-2.0159 c -0.007,-0.007 -0.0122,-0.51159 -0.0122,-1.12209 0,-0.86627 0.005,-1.11398 0.0227,-1.1281 0.0148,-0.0118 0.17839,-0.0128 0.4756,-0.003 l 0.45293,0.0153 0.073,0.0513 0.0729,0.0513 0.005,0.98744 c 0.003,0.5431 0.002,1.00377 -0.004,1.02372 -0.005,0.0199 -0.0448,0.0587 -0.0885,0.0861 l -0.0795,0.0499 -0.45297,0 c -0.24913,0 -0.4584,-0.005 -0.46505,-0.0122 z m -29.63372,2.80019 c 0.004,-0.0124 0.1024,-0.84277 0.21747,-1.84514 0.11507,-1.00235 0.21404,-1.84287 0.21992,-1.8678 0.01,-0.0428 0.0116,-0.0433 0.0266,-0.009 0.009,0.02 0.11796,0.84413 0.24274,1.83153 0.12477,0.9874 0.2311,1.81364 0.23628,1.83608 l 0.009,0.0408 0.51375,0 c 0.28256,0 0.57413,0.005 0.64794,0.0101 0.0766,0.006 0.14545,0.002 0.16043,-0.008 0.0196,-0.0134 0.13072,-0.77711 0.43889,-3.01583 0.22697,-1.64886 0.41305,-3.02444 0.41354,-3.05686 l 0.002,-0.0589 -0.43976,-1.2e-4 c -0.24186,-8e-5 -0.49279,-0.005 -0.55761,-0.01 -0.0648,-0.005 -0.12716,-0.003 -0.13849,0.005 -0.0128,0.009 -0.10126,0.77 -0.23261,2.00026 -0.11661,1.09213 -0.21572,1.99725 -0.22027,2.01139 -0.005,0.0152 -0.0145,0.0189 -0.0235,0.009 -0.008,-0.009 -0.11106,-0.90611 -0.22811,-1.99325 -0.11704,-1.08713 -0.21883,-1.98313 -0.22619,-1.9911 -0.0185,-0.02 -1.1269,-0.0544 -1.1457,-0.0356 -0.008,0.008 -0.12615,0.91246 -0.26186,2.00921 -0.1357,1.09674 -0.25004,1.99747 -0.25411,2.00163 -0.004,0.004 -0.0128,0.002 -0.0193,-0.004 -0.006,-0.006 -0.0914,-0.90603 -0.18849,-1.99888 -0.0971,-1.09284 -0.18202,-1.99239 -0.18862,-1.99899 -0.0156,-0.0156 -1.13959,-0.005 -1.15527,0.0111 -0.007,0.007 -0.005,0.057 0.004,0.11187 0.019,0.11901 0.36278,2.74946 0.60674,4.64231 0.0958,0.74304 0.17977,1.3567 0.18664,1.36366 0.0183,0.0186 0.20098,0.0251 0.80645,0.0291 0.41817,0.003 0.54192,-0.002 0.5483,-0.0191 z m 8.90154,-0.006 c 0.006,-0.0158 0.011,-0.38658 0.011,-0.82403 0,-0.5766 0.006,-0.79886 0.0207,-0.80815 0.0114,-0.007 0.0952,-0.0167 0.18631,-0.0214 0.12694,-0.007 0.17018,-0.003 0.18521,0.0162 0.0108,0.0136 0.15587,0.38374 0.32243,0.8223 0.16655,0.43857 0.30715,0.8017 0.31242,0.80696 0.0145,0.0146 1.19233,-0.002 1.20811,-0.0158 0.007,-0.007 -0.13381,-0.35532 -0.31421,-0.77363 -0.18038,-0.4183 -0.33221,-0.77805 -0.3374,-0.79944 -0.008,-0.033 0.01,-0.0491 0.12056,-0.1072 0.19594,-0.10296 0.29094,-0.1983 0.3914,-0.39282 l 0.0863,-0.16708 0.009,-1.61663 0.009,-1.61663 -0.0511,-0.13392 c -0.0709,-0.18581 -0.19108,-0.30339 -0.44077,-0.43118 l -0.18761,-0.096 -1.30602,0.0183 c -0.71834,0.01 -1.31269,0.0251 -1.32079,0.0334 -0.008,0.008 -0.0207,1.38766 -0.0278,3.06522 l -0.0131,3.05012 0.1161,0.006 c 0.0639,0.004 0.31721,0.008 0.56299,0.0101 0.39284,0.003 0.4482,2e-5 0.45788,-0.0252 z m 0.30116,-2.74514 -0.2992,-0.01 -0.005,-1.15047 c -0.002,-0.63276 0.002,-1.15677 0.009,-1.16447 0.008,-0.008 0.23499,-0.0196 0.50509,-0.0265 0.37152,-0.009 0.49434,-0.007 0.50443,0.009 0.0218,0.0352 0.0454,2.31069 0.0242,2.33691 -0.0193,0.0239 -0.14082,0.0247 -0.73919,0.005 z m 9.80467,2.7543 c 0.14647,-0.0202 0.27819,-0.0676 0.33809,-0.12171 0.0494,-0.0446 0.11392,-0.17943 0.14697,-0.30696 0.0244,-0.0941 0.0285,-0.26502 0.0284,-1.17741 0,-0.69343 -0.007,-1.09145 -0.0193,-1.13626 -0.0294,-0.10575 -0.0994,-0.16462 -0.30705,-0.25801 -0.2823,-0.12699 -1.35236,-0.66329 -1.61991,-0.81187 -0.12794,-0.0711 -0.24107,-0.14498 -0.25138,-0.16426 -0.0291,-0.0544 -0.0241,-0.83376 0.006,-0.94552 0.0239,-0.0886 0.0263,-0.0909 0.1061,-0.10285 0.0449,-0.007 0.27615,-0.0182 0.51393,-0.0256 0.36304,-0.0112 0.43495,-0.009 0.44855,0.0122 0.009,0.0141 0.0163,0.20308 0.0165,0.42002 l 0,0.39441 0.5339,0 c 0.321,0 0.53816,-0.007 0.54462,-0.0174 0.006,-0.01 0.0158,-0.32695 0.0221,-0.70531 0.0122,-0.73483 0.009,-0.77306 -0.0772,-0.94563 -0.0472,-0.0945 -0.12078,-0.16936 -0.19829,-0.20182 -0.0744,-0.0312 -2.40415,-0.047 -2.52272,-0.0172 -0.2256,0.0568 -0.39462,0.18191 -0.47995,0.35524 l -0.0574,0.11661 0.009,1.10215 c 0.006,0.71774 0.0162,1.1237 0.029,1.16398 0.0263,0.0824 0.085,0.14213 0.15433,0.15689 0.0312,0.007 0.35452,0.16199 0.71855,0.34521 0.9832,0.49484 1.23971,0.64773 1.27498,0.75985 0.0207,0.0657 0.0273,0.79573 0.008,0.86509 -0.0194,0.0692 -0.0958,0.0867 -0.43053,0.0989 -0.34279,0.0124 -0.59433,-0.0116 -0.63021,-0.0601 -0.02,-0.027 -0.0223,-0.10075 -0.0122,-0.38212 0.0105,-0.28991 0.008,-0.35004 -0.0124,-0.35679 -0.0432,-0.0139 -1.09443,-0.0438 -1.10736,-0.0315 -0.007,0.006 -0.0143,0.3299 -0.0167,0.71887 l -0.004,0.70723 0.0547,0.11786 c 0.0761,0.16409 0.19881,0.29381 0.34672,0.36668 l 0.12078,0.0595 0.65326,0.01 c 1.20869,0.018 1.52949,0.0176 1.67201,-0.002 z m -12.44387,-0.0969 c 0.17373,-0.0845 0.30181,-0.20602 0.39743,-0.37707 l 0.0681,-0.12172 0.0173,-1.66449 c 0.01,-0.91544 0.0246,-2.01536 0.0334,-2.44423 l 0.016,-0.77976 -0.0742,-0.15263 c -0.0859,-0.17667 -0.22276,-0.32802 -0.3757,-0.41557 l -0.0997,-0.0571 -1.10716,0 -1.10716,0 -0.0835,0.053 c -0.12757,0.0809 -0.22111,0.17264 -0.31212,0.30616 -0.16145,0.2368 -0.15031,0.11179 -0.17183,1.92599 -0.0105,0.88255 -0.0238,1.93106 -0.0295,2.33001 -0.0114,0.7956 -0.007,0.83914 0.0963,1.03176 0.0623,0.1158 0.23956,0.29723 0.35755,0.36606 l 0.0907,0.0529 0.87949,0.0102 c 1.33263,0.0155 1.2338,0.02 1.40469,-0.0632 z m -1.3098,-1.07988 c -0.19489,-0.007 -0.33927,-0.0201 -0.3507,-0.0315 -0.0138,-0.0138 -0.015,-0.57905 -0.004,-1.93911 l 0.0152,-1.91968 0.51683,0.006 c 0.38481,0.005 0.52299,0.0123 0.54099,0.0293 0.02,0.019 0.0216,0.35221 0.009,1.94303 l -0.0151,1.92005 -0.19042,0.002 c -0.10473,0.002 -0.33948,-0.004 -0.52167,-0.0104 z"
     id="path3000"
     inkscape:connector-curvature="0" />
  <path
     style="fill:none;stroke:#a053d6;stroke-width:0.12693827;stroke-miterlimit:4;stroke-opacity:1"
     d="m 125.42919,223.23132 c -0.73096,0.30248 -1.50238,0.73157 -2.00855,1.02085 -0.96789,0.55313 -1.23707,0.69923 -1.86101,1.01097 -1.12514,0.56214 -1.97403,0.88905 -3.03915,1.17871 -1.08992,0.2964 -2.24848,0.49883 -3.72994,0.63639 -2.04129,0.18955 -3.62947,0.0842 -5.0458,-0.2703 -1.15853,-0.28997 -2.53914,-0.71981 -3.60528,-1.12092 -0.87058,-0.33911 -1.52966,-0.6753 -2.20283,-1.10552 -0.48034,0.52604 -1.0119,1.56668 -1.34519,2.11196 -0.0632,0.10416 -0.0989,0.17111 -0.13885,0.24594 -0.0799,0.14966 -0.16064,0.31094 -0.25217,0.49755 -0.18306,0.37321 -0.39982,0.83301 -0.59955,1.27959 -0.74512,1.66592 -1.27397,3.20103 -1.787349,5.1665 -0.336834,1.28965 -0.800748,3.26237 -0.952023,4.64855 -0.135555,0.88392 -0.170584,1.49467 -0.190974,2.00608 -0.0196,0.49111 -0.05465,1.17594 -0.07028,1.40368 -0.03697,0.5388 -0.04323,0.85421 -0.03625,2.65437 0.008,2.0466 0.02529,2.27278 0.124112,3.09356 0.0922,0.76582 0.247888,1.74897 0.439746,2.80907 0.08233,0.4549 0.217387,1.16149 0.342277,1.79868 0.124889,0.63716 0.167389,0.92937 0.294112,1.43088 0.390659,1.54612 1.128579,3.6778 1.793569,5.21184 0.13531,0.31212 0.20117,0.42887 0.37175,0.77637 0.17057,0.3475 0.38462,0.78013 0.59786,1.20874 0.21322,0.42862 0.42559,0.85246 0.59218,1.18268 0.0833,0.16511 0.15494,0.30571 0.21251,0.41765 0.0576,0.11194 -0.0474,-0.029 0.20628,0.37572 0.14359,0.22912 0.63673,0.99931 1.38668,2.16758 l 0.78033,1.21497 c 0.0408,0.0632 0.0843,0.12472 0.13033,0.18418 l 0.96622,1.25125 c 0,0 0,0 0,0 0.27057,0.35037 0.53549,0.69037 0.74916,0.96167 0.21367,0.27129 0.27153,0.35925 0.50152,0.61995 0.77742,0.88126 1.56239,1.67503 2.61017,2.64587 0.16028,0.14852 0.49958,0.47144 0.69702,0.6636 1.23266,1.19973 2.65331,2.27632 4.60832,3.5367 1.70463,1.09897 3.22342,1.98695 4.60094,2.6776 0.71554,0.35875 1.12954,0.54247 2.10978,0.93561 0.44155,0.17708 0.9601,0.37587 1.11072,0.44711 0.14733,0.0697 0.5918,0.25068 1.54046,0.58102 0.49704,-0.15953 1.72145,-0.61626 2.31642,-0.87456 0.59497,-0.25829 1.5257,-0.66699 2.98872,-1.31131 0.84767,-0.37334 1.11946,-0.50964 1.8355,-0.91407 0.42218,-0.23847 1.02371,-0.58427 1.38442,-0.79621 0,0 0,0 0,0 l 0.61146,-0.3587 c 0.0811,-0.0476 0.15968,-0.0997 0.23517,-0.15584 l 1.25579,-0.9339 c 0.78809,-0.58594 1.72349,-1.30311 2.42656,-1.86101 1.33271,-1.05753 1.34039,-1.07277 1.72727,-1.43485 0.61465,-0.57525 1.25416,-1.25629 2.33191,-2.4617 1.6227,-1.81486 2.17573,-2.51891 3.65402,-4.64854 0.42768,-0.61613 0.5748,-0.85459 1.15321,-1.91428 0.51956,-0.95187 0.73469,-1.37441 1.49266,-2.93771 l 0.8557,-1.76467 c 0.0444,-0.0915 0.0834,-0.18558 0.11674,-0.28164 l 0.41991,-1.20932 c 0.46714,-1.34592 0.56069,-1.62844 0.77125,-2.32173 0.53213,-1.75196 0.91283,-3.45896 1.17533,-5.26964 0.066,-0.45517 0.10737,-0.89091 0.16433,-1.65926 0.0396,-0.53365 0.0971,-1.28705 0.12637,-1.66323 0.0516,-0.66435 0.0618,-0.94898 0.0618,-1.88537 0,-0.94715 -0.0112,-1.22584 -0.064,-1.86781 -0.0951,-1.15738 -0.21502,-2.67466 -0.38874,-3.75374 l 0,0 -0.1326,-0.90897 c -0.0307,-0.20992 -0.1679,-1.11889 -0.29525,-1.79358 -0.26333,-1.39502 -0.58961,-2.70169 -0.97528,-3.85915 -0.31991,-0.96012 -0.70292,-1.86531 -1.3045,-3.21142 -0.24393,-0.5458 -0.79451,-1.74936 -0.79451,-1.74936 -0.005,-0.0104 -0.007,-0.0164 -0.004,-0.009 -0.3992,-0.53423 -0.98092,-1.478 -1.51572,-2.15667 -0.0719,0.0199 -1.7588,0.63548 -1.79432,0.64701 -0.19648,0.0652 -0.4038,0.14412 -0.57632,0.21138 -1.67302,0.65302 -2.55244,0.93045 -3.4364,1.11808 -1.2369,0.26254 -3.49155,0.4297 -4.56014,0.35928 -3.37168,-0.22223 -5.14352,-0.70765 -7.57266,-2.01855 -0.38385,-0.20714 -0.94587,-0.52528 -1.69893,-0.96337 -0.13758,-0.08 -0.26719,-0.15486 -0.36722,-0.21251 -0.0999,-0.0576 0.0468,0.0151 -0.25615,-0.14506 0,0 0,0 0,0 -0.55495,-0.25073 -0.75587,-0.37804 -1.26917,-0.58621 z"
     id="path3855"
     inkscape:connector-curvature="0"
     sodipodi:nodetypes="ccsssscccsssscscssssssssssccccccscsssssscssscccscsssssccccsssssscccssssccccsssccccc" />
</svg>
