  0
SECTION
  2
HEADER
  9
$ACADVER
  1
AC1014
  9
$HANDSEED
  5
FFFF
  9
$MEASUREMENT
 70
     1
  0
ENDSEC
  0
SECTION
  2
TABLES
  0
TABLE
  2
VPORT
  5
8
330
0
100
AcDbSymbolTable
 70
     4
  0
VPORT
  5
2E
330
8
100
AcDbSymbolTableRecord
100
AcDbViewportTableRecord
  2
*ACTIVE
 70
     0
 10
0.0
 20
0.0
 11
1.0
 21
1.0
 12
210.0
 22
148.5
 13
0.0
 23
0.0
 14
10.0
 24
10.0
 15
10.0
 25
10.0
 16
0.0
 26
0.0
 36
1.0
 17
0.0
 27
0.0
 37
0.0
 40
341.0
 41
1.24
 42
50.0
 43
0.0
 44
0.0
 50
0.0
 51
0.0
 71
     0
 72
   100
 73
     1
 74
     3
 75
     0
 76
     0
 77
     0
 78
     0
  0
ENDTAB
  0
TABLE
  2
LTYPE
  5
5
330
0
100
AcDbSymbolTable
 70
     1
  0
LTYPE
  5
14
330
5
100
AcDbSymbolTableRecord
100
AcDbLinetypeTableRecord
  2
BYBLOCK
 70
     0
  3

 72
    65
 73
     0
 40
0.0
  0
LTYPE
  5
15
330
5
100
AcDbSymbolTableRecord
100
AcDbLinetypeTableRecord
  2
BYLAYER
 70
     0
  3

 72
    65
 73
     0
 40
0.0
  0
LTYPE
  5
16
330
5
100
AcDbSymbolTableRecord
100
AcDbLinetypeTableRecord
  2
CONTINUOUS
 70
     0
  3
Solid line
 72
    65
 73
     0
 40
0.0
  0
ENDTAB
  0
TABLE
  2
LAYER
  5
2
100
AcDbSymbolTable
 70
2
  0
LAYER
  5
50
100
AcDbSymbolTableRecord
100
AcDbLayerTableRecord
  2
0
 70
0
  6
CONTINUOUS
  0
LAYER
  5
51
100
AcDbSymbolTableRecord
100
AcDbLayerTableRecord
  2
Layer_1
 70
0
  6
CONTINUOUS
  0
ENDTAB
  0
TABLE
  2
STYLE
  5
3
330
0
100
AcDbSymbolTable
 70
     1
  0
STYLE
  5
11
330
3
100
AcDbSymbolTableRecord
100
AcDbTextStyleTableRecord
  2
STANDARD
 70
     0
 40
0.0
 41
1.0
 50
0.0
 71
     0
 42
2.5
  3
txt
  4

  0
ENDTAB
  0
TABLE
  2
VIEW
  5
6
330
0
100
AcDbSymbolTable
 70
     0
  0
ENDTAB
  0
TABLE
  2
UCS
  5
7
330
0
100
AcDbSymbolTable
 70
     0
  0
ENDTAB
  0
TABLE
  2
APPID
  5
9
330
0
100
AcDbSymbolTable
 70
     2
  0
APPID
  5
12
330
9
100
AcDbSymbolTableRecord
100
AcDbRegAppTableRecord
  2
ACAD
 70
     0
  0
ENDTAB
  0
TABLE
  2
DIMSTYLE
  5
A
330
0
100
AcDbSymbolTable
 70
     1
  0
DIMSTYLE
105
27
330
A
100
AcDbSymbolTableRecord
100
AcDbDimStyleTableRecord
  2
ISO-25
 70
     0
  3

  4

  5

  6

  7

 40
1.0
 41
2.5
 42
0.625
 43
3.75
 44
1.25
 45
0.0
 46
0.0
 47
0.0
 48
0.0
140
2.5
141
2.5
142
0.0
143
0.03937007874016
144
1.0
145
0.0
146
1.0
147
0.625
 71
     0
 72
     0
 73
     0
 74
     0
 75
     0
 76
     0
 77
     1
 78
     8
170
     0
171
     3
172
     1
173
     0
174
     0
175
     0
176
     0
177
     0
178
     0
270
     2
271
     2
272
     2
273
     2
274
     3
340
11
275
     0
280
     0
281
     0
282
     0
283
     0
284
     8
285
     0
286
     0
287
     3
288
     0
  0
ENDTAB
  0
TABLE
  2
BLOCK_RECORD
  5
1
330
0
100
AcDbSymbolTable
 70
     1
  0
BLOCK_RECORD
  5
1F
330
1
100
AcDbSymbolTableRecord
100
AcDbBlockTableRecord
  2
*MODEL_SPACE
  0
BLOCK_RECORD
  5
1B
330
1
100
AcDbSymbolTableRecord
100
AcDbBlockTableRecord
  2
*PAPER_SPACE
  0
ENDTAB
  0
ENDSEC
  0
SECTION
  2
BLOCKS
  0
BLOCK
  5
20
330
1F
100
AcDbEntity
  8
0
100
AcDbBlockBegin
  2
*MODEL_SPACE
 70
     0
 10
0.0
 20
0.0
 30
0.0
  3
*MODEL_SPACE
  1

  0
ENDBLK
  5
21
330
1F
100
AcDbEntity
  8
0
100
AcDbBlockEnd
  0
BLOCK
  5
1C
330
1B
100
AcDbEntity
 67
     1
  8
0
100
AcDbBlockBegin
  2
*PAPER_SPACE
  1

  0
ENDBLK
  5
1D
330
1B
100
AcDbEntity
 67
     1
  8
0
100
AcDbBlockEnd
  0
ENDSEC
  0
SECTION
  2
ENTITIES
  0
SPLINE
  5
100
100
AcDbEntity
  8
Layer_1
 62
7
100
AcDbSpline
 70
8
 71
3
 72
8
 73
4
 74
0
 40
0
 40
0
 40
0
 40
0
 40
1
 40
1
 40
1
 40
1
 10
420.037248
 20
610.272324
 30
0.0
 10
401.004760
 20
617.885492
 30
0.0
 10
384.466592
 20
628.910668
 30
0.0
 10
370.319232
 20
643.416868
 30
0.0
  0
SPLINE
  5
101
100
AcDbEntity
  8
Layer_1
 62
7
100
AcDbSpline
 70
8
 71
3
 72
8
 73
4
 74
0
 40
0
 40
0
 40
0
 40
0
 40
1
 40
1
 40
1
 40
1
 10
370.319232
 20
643.416868
 30
0.0
 10
350.725136
 20
663.507948
 30
0.0
 10
339.335168
 20
692.489588
 30
0.0
 10
334.257280
 20
735.176028
 30
0.0
  0
SPLINE
  5
102
100
AcDbEntity
  8
Layer_1
 62
7
100
AcDbSpline
 70
8
 71
3
 72
8
 73
4
 74
0
 40
0
 40
0
 40
0
 40
0
 40
1
 40
1
 40
1
 40
1
 10
334.257280
 20
735.176028
 30
0.0
 10
331.810960
 20
755.740604
 30
0.0
 10
331.336440
 20
773.196158
 30
0.0
 10
333.223832
 20
773.192046
 30
0.0
  0
SPLINE
  5
103
100
AcDbEntity
  8
Layer_1
 62
7
100
AcDbSpline
 70
8
 71
3
 72
8
 73
4
 74
0
 40
0
 40
0
 40
0
 40
0
 40
1
 40
1
 40
1
 40
1
 10
333.223832
 20
773.192046
 30
0.0
 10
334.131048
 20
773.190046
 30
0.0
 10
349.190384
 20
769.768304
 30
0.0
 10
366.689024
 20
765.588124
 30
0.0
  0
SPLINE
  5
104
100
AcDbEntity
  8
Layer_1
 62
7
100
AcDbSpline
 70
8
 71
3
 72
8
 73
4
 74
0
 40
0
 40
0
 40
0
 40
0
 40
1
 40
1
 40
1
 40
1
 10
366.689024
 20
765.588124
 30
0.0
 10
384.187664
 20
761.407940
 30
0.0
 10
400.088808
 20
757.987796
 30
0.0
 10
402.024912
 20
757.987796
 30
0.0
  0
SPLINE
  5
105
100
AcDbEntity
  8
Layer_1
 62
7
100
AcDbSpline
 70
8
 71
3
 72
8
 73
4
 74
0
 40
0
 40
0
 40
0
 40
0
 40
1
 40
1
 40
1
 40
1
 10
402.024912
 20
757.987796
 30
0.0
 10
403.961008
 20
757.987796
 30
0.0
 10
411.372152
 20
760.877724
 30
0.0
 10
418.494112
 20
764.409850
 30
0.0
  0
SPLINE
  5
106
100
AcDbEntity
  8
Layer_1
 62
7
100
AcDbSpline
 70
8
 71
3
 72
8
 73
4
 74
0
 40
0
 40
0
 40
0
 40
0
 40
1
 40
1
 40
1
 40
1
 10
444.392152
 20
764.409850
 30
0.0
 10
451.514112
 20
760.877724
 30
0.0
 10
458.914160
 20
757.987796
 30
0.0
 10
460.836696
 20
757.987796
 30
0.0
  0
SPLINE
  5
107
100
AcDbEntity
  8
Layer_1
 62
7
100
AcDbSpline
 70
8
 71
3
 72
8
 73
4
 74
0
 40
0
 40
0
 40
0
 40
0
 40
1
 40
1
 40
1
 40
1
 10
460.836696
 20
757.987796
 30
0.0
 10
462.759240
 20
757.987796
 30
0.0
 10
478.891456
 20
761.409556
 30
0.0
 10
496.686080
 20
765.591717
 30
0.0
  0
SPLINE
  5
108
100
AcDbEntity
  8
Layer_1
 62
7
100
AcDbSpline
 70
8
 71
3
 72
8
 73
4
 74
0
 40
0
 40
0
 40
0
 40
0
 40
1
 40
1
 40
1
 40
1
 10
496.686080
 20
765.591717
 30
0.0
 10
514.480704
 20
769.773874
 30
0.0
 10
529.769848
 20
773.195640
 30
0.0
 10
530.661952
 20
773.195640
 30
0.0
  0
SPLINE
  5
109
100
AcDbEntity
  8
Layer_1
 62
7
100
AcDbSpline
 70
8
 71
3
 72
8
 73
4
 74
0
 40
0
 40
0
 40
0
 40
0
 40
1
 40
1
 40
1
 40
1
 10
530.661952
 20
773.195640
 30
0.0
 10
533.508760
 20
773.195640
 30
0.0
 10
530.841624
 20
734.460204
 30
0.0
 10
526.527888
 20
713.155380
 30
0.0
  0
SPLINE
  5
10a
100
AcDbEntity
  8
Layer_1
 62
7
100
AcDbSpline
 70
8
 71
3
 72
8
 73
4
 74
0
 40
0
 40
0
 40
0
 40
0
 40
1
 40
1
 40
1
 40
1
 10
526.527888
 20
713.155380
 30
0.0
 10
517.875856
 20
670.424508
 30
0.0
 10
503.221528
 20
646.532556
 30
0.0
 10
472.704344
 20
625.403156
 30
0.0
  0
SPLINE
  5
10b
100
AcDbEntity
  8
Layer_1
 62
7
100
AcDbSpline
 70
8
 71
3
 72
8
 73
4
 74
0
 40
0
 40
0
 40
0
 40
0
 40
1
 40
1
 40
1
 40
1
 10
472.704344
 20
625.403156
 30
0.0
 10
461.690568
 20
617.777492
 30
0.0
 10
437.441032
 20
605.928692
 30
0.0
 10
432.963912
 20
605.985236
 30
0.0
  0
SPLINE
  5
10c
100
AcDbEntity
  8
Layer_1
 62
7
100
AcDbSpline
 70
8
 71
3
 72
8
 73
4
 74
0
 40
0
 40
0
 40
0
 40
0
 40
1
 40
1
 40
1
 40
1
 10
432.963912
 20
605.985236
 30
0.0
 10
431.709272
 20
606.001076
 30
0.0
 10
425.892264
 20
607.930268
 30
0.0
 10
420.037248
 20
610.272324
 30
0.0
  0
LWPOLYLINE
  5
10d
100
AcDbEntity
  8
Layer_1
 62
7
100
AcDbPolyline
 90
3
 70
1
 10
418.494112
 20
764.409850
 30
0.0
 10
431.443128
 20
770.831905
 30
0.0
 10
444.392152
 20
764.409850
 30
0.0
  0
SPLINE
  5
10e
100
AcDbEntity
  8
Layer_1
 62
7
100
AcDbSpline
 70
8
 71
3
 72
8
 73
4
 74
0
 40
0
 40
0
 40
0
 40
0
 40
1
 40
1
 40
1
 40
1
 10
411.368256
 20
658.231924
 30
0.0
 10
425.438256
 20
665.552524
 30
0.0
 10
429.106728
 20
683.447284
 30
0.0
 10
418.916704
 20
695.053084
 30
0.0
  0
SPLINE
  5
10f
100
AcDbEntity
  8
Layer_1
 62
7
100
AcDbSpline
 70
8
 71
3
 72
8
 73
4
 74
0
 40
0
 40
0
 40
0
 40
0
 40
1
 40
1
 40
1
 40
1
 10
418.916704
 20
695.053084
 30
0.0
 10
416.432200
 20
697.882780
 30
0.0
 10
415.137088
 20
700.197988
 30
0.0
 10
416.038688
 20
700.197988
 30
0.0
  0
SPLINE
  5
110
100
AcDbEntity
  8
Layer_1
 62
7
100
AcDbSpline
 70
8
 71
3
 72
8
 73
4
 74
0
 40
0
 40
0
 40
0
 40
0
 40
1
 40
1
 40
1
 40
1
 10
416.038688
 20
700.197988
 30
0.0
 10
418.911608
 20
700.197988
 30
0.0
 10
422.318424
 20
708.928812
 30
0.0
 10
422.318424
 20
716.291388
 30
0.0
  0
SPLINE
  5
111
100
AcDbEntity
  8
Layer_1
 62
7
100
AcDbSpline
 70
8
 71
3
 72
8
 73
4
 74
0
 40
0
 40
0
 40
0
 40
0
 40
1
 40
1
 40
1
 40
1
 10
422.318424
 20
716.291388
 30
0.0
 10
422.318424
 20
730.471436
 30
0.0
 10
412.271048
 20
739.148292
 30
0.0
 10
397.289840
 20
737.905940
 30
0.0
  0
SPLINE
  5
112
100
AcDbEntity
  8
Layer_1
 62
7
100
AcDbSpline
 70
8
 71
3
 72
8
 73
4
 74
0
 40
0
 40
0
 40
0
 40
0
 40
1
 40
1
 40
1
 40
1
 10
397.289840
 20
737.905940
 30
0.0
 10
384.247720
 20
736.824380
 30
0.0
 10
376.694896
 20
728.877412
 30
0.0
 10
376.694896
 20
716.236252
 30
0.0
  0
SPLINE
  5
113
100
AcDbEntity
  8
Layer_1
 62
7
100
AcDbSpline
 70
8
 71
3
 72
8
 73
4
 74
0
 40
0
 40
0
 40
0
 40
0
 40
1
 40
1
 40
1
 40
1
 10
376.694896
 20
716.236252
 30
0.0
 10
376.694896
 20
708.920020
 30
0.0
 10
380.109984
 20
700.197988
 30
0.0
 10
382.974624
 20
700.197988
 30
0.0
  0
SPLINE
  5
114
100
AcDbEntity
  8
Layer_1
 62
7
100
AcDbSpline
 70
8
 71
3
 72
8
 73
4
 74
0
 40
0
 40
0
 40
0
 40
0
 40
1
 40
1
 40
1
 40
1
 10
382.974624
 20
700.197988
 30
0.0
 10
383.876224
 20
700.197988
 30
0.0
 10
382.499832
 20
697.790196
 30
0.0
 10
379.915976
 20
694.847348
 30
0.0
  0
SPLINE
  5
115
100
AcDbEntity
  8
Layer_1
 62
7
100
AcDbSpline
 70
8
 71
3
 72
8
 73
4
 74
0
 40
0
 40
0
 40
0
 40
0
 40
1
 40
1
 40
1
 40
1
 10
379.915976
 20
694.847348
 30
0.0
 10
369.754048
 20
683.273548
 30
0.0
 10
372.166416
 20
668.798740
 30
0.0
 10
385.804136
 20
659.516996
 30
0.0
  0
SPLINE
  5
116
100
AcDbEntity
  8
Layer_1
 62
7
100
AcDbSpline
 70
8
 71
3
 72
8
 73
4
 74
0
 40
0
 40
0
 40
0
 40
0
 40
1
 40
1
 40
1
 40
1
 10
385.804136
 20
659.516996
 30
0.0
 10
391.731256
 20
655.483028
 30
0.0
 10
404.820376
 20
654.825060
 30
0.0
 10
411.368256
 20
658.231924
 30
0.0
  0
LWPOLYLINE
  5
117
100
AcDbEntity
  8
Layer_1
 62
7
100
AcDbPolyline
 90
2
 70
1
 10
420.037248
 20
610.272324
 30
0.0
 10
420.037248
 20
610.272324
 30
0.0
  0
SPLINE
  5
118
100
AcDbEntity
  8
Layer_1
 62
7
100
AcDbSpline
 70
8
 71
3
 72
8
 73
4
 74
0
 40
0
 40
0
 40
0
 40
0
 40
1
 40
1
 40
1
 40
1
 10
395.287040
 20
667.825332
 30
0.0
 10
387.214864
 20
669.359716
 30
0.0
 10
384.213696
 20
682.226292
 30
0.0
 10
390.393576
 20
688.804484
 30
0.0
  0
SPLINE
  5
119
100
AcDbEntity
  8
Layer_1
 62
7
100
AcDbSpline
 70
8
 71
3
 72
8
 73
4
 74
0
 40
0
 40
0
 40
0
 40
0
 40
1
 40
1
 40
1
 40
1
 10
390.393576
 20
688.804484
 30
0.0
 10
398.173392
 20
697.085716
 30
0.0
 10
411.672936
 20
691.650116
 30
0.0
 10
411.672936
 20
680.236332
 30
0.0
  0
SPLINE
  5
11a
100
AcDbEntity
  8
Layer_1
 62
7
100
AcDbSpline
 70
8
 71
3
 72
8
 73
4
 74
0
 40
0
 40
0
 40
0
 40
0
 40
1
 40
1
 40
1
 40
1
 10
411.672936
 20
680.236332
 30
0.0
 10
411.672936
 20
675.191540
 30
0.0
 10
407.310104
 20
668.261508
 30
0.0
 10
404.134152
 20
668.261508
 30
0.0
  0
SPLINE
  5
11b
100
AcDbEntity
  8
Layer_1
 62
7
100
AcDbSpline
 70
8
 71
3
 72
8
 73
4
 74
0
 40
0
 40
0
 40
0
 40
0
 40
1
 40
1
 40
1
 40
1
 10
404.134152
 20
668.261508
 30
0.0
 10
403.398712
 20
668.261508
 30
0.0
 10
401.885576
 20
668.015420
 30
0.0
 10
400.771624
 20
667.714652
 30
0.0
  0
SPLINE
  5
11c
100
AcDbEntity
  8
Layer_1
 62
7
100
AcDbSpline
 70
8
 71
3
 72
8
 73
4
 74
0
 40
0
 40
0
 40
0
 40
0
 40
1
 40
1
 40
1
 40
1
 10
400.771624
 20
667.714652
 30
0.0
 10
399.657680
 20
667.413884
 30
0.0
 10
397.189616
 20
667.463692
 30
0.0
 10
395.287040
 20
667.825364
 30
0.0
  0
LWPOLYLINE
  5
11d
100
AcDbEntity
  8
Layer_1
 62
7
100
AcDbPolyline
 90
2
 70
1
 10
411.368256
 20
658.231924
 30
0.0
 10
411.368256
 20
658.231924
 30
0.0
  0
SPLINE
  5
11e
100
AcDbEntity
  8
Layer_1
 62
7
100
AcDbSpline
 70
8
 71
3
 72
8
 73
4
 74
0
 40
0
 40
0
 40
0
 40
0
 40
1
 40
1
 40
1
 40
1
 10
395.651896
 20
704.700788
 30
0.0
 10
383.775680
 20
709.460292
 30
0.0
 10
386.791064
 20
726.558252
 30
0.0
 10
399.506656
 20
726.558252
 30
0.0
  0
SPLINE
  5
11f
100
AcDbEntity
  8
Layer_1
 62
7
100
AcDbSpline
 70
8
 71
3
 72
8
 73
4
 74
0
 40
0
 40
0
 40
0
 40
0
 40
1
 40
1
 40
1
 40
1
 10
399.506656
 20
726.558252
 30
0.0
 10
406.220616
 20
726.558252
 30
0.0
 10
412.342576
 20
719.854236
 30
0.0
 10
410.927800
 20
714.051220
 30
0.0
  0
SPLINE
  5
120
100
AcDbEntity
  8
Layer_1
 62
7
100
AcDbSpline
 70
8
 71
3
 72
8
 73
4
 74
0
 40
0
 40
0
 40
0
 40
0
 40
1
 40
1
 40
1
 40
1
 10
410.927800
 20
714.051220
 30
0.0
 10
409.135840
 20
706.701060
 30
0.0
 10
401.825784
 20
702.226548
 30
0.0
 10
395.651896
 20
704.700788
 30
0.0
  0
LWPOLYLINE
  5
121
100
AcDbEntity
  8
Layer_1
 62
7
100
AcDbPolyline
 90
2
 70
1
 10
395.287040
 20
667.825364
 30
0.0
 10
395.287040
 20
667.825332
 30
0.0
  0
SPLINE
  5
122
100
AcDbEntity
  8
Layer_1
 62
7
100
AcDbSpline
 70
8
 71
3
 72
8
 73
4
 74
0
 40
0
 40
0
 40
0
 40
0
 40
1
 40
1
 40
1
 40
1
 10
478.742752
 20
659.529276
 30
0.0
 10
481.584840
 20
661.417996
 30
0.0
 10
485.488736
 20
666.037380
 30
0.0
 10
487.418056
 20
669.794564
 30
0.0
  0
SPLINE
  5
123
100
AcDbEntity
  8
Layer_1
 62
7
100
AcDbSpline
 70
8
 71
3
 72
8
 73
4
 74
0
 40
0
 40
0
 40
0
 40
0
 40
1
 40
1
 40
1
 40
1
 10
487.418056
 20
669.794564
 30
0.0
 10
491.874176
 20
678.472468
 30
0.0
 10
490.936528
 20
686.494140
 30
0.0
 10
484.530816
 20
694.495044
 30
0.0
  0
SPLINE
  5
124
100
AcDbEntity
  8
Layer_1
 62
7
100
AcDbSpline
 70
8
 71
3
 72
8
 73
4
 74
0
 40
0
 40
0
 40
0
 40
0
 40
1
 40
1
 40
1
 40
1
 10
484.530816
 20
694.495044
 30
0.0
 10
482.019568
 20
697.631660
 30
0.0
 10
480.533960
 20
700.197988
 30
0.0
 10
481.229464
 20
700.197988
 30
0.0
  0
SPLINE
  5
125
100
AcDbEntity
  8
Layer_1
 62
7
100
AcDbSpline
 70
8
 71
3
 72
8
 73
4
 74
0
 40
0
 40
0
 40
0
 40
0
 40
1
 40
1
 40
1
 40
1
 10
481.229464
 20
700.197988
 30
0.0
 10
483.985168
 20
700.197988
 30
0.0
 10
487.712160
 20
709.378348
 30
0.0
 10
487.712160
 20
716.166220
 30
0.0
  0
SPLINE
  5
126
100
AcDbEntity
  8
Layer_1
 62
7
100
AcDbSpline
 70
8
 71
3
 72
8
 73
4
 74
0
 40
0
 40
0
 40
0
 40
0
 40
1
 40
1
 40
1
 40
1
 10
487.712160
 20
716.166220
 30
0.0
 10
487.712160
 20
728.878212
 30
0.0
 10
480.186552
 20
736.822124
 30
0.0
 10
467.117208
 20
737.905940
 30
0.0
  0
SPLINE
  5
127
100
AcDbEntity
  8
Layer_1
 62
7
100
AcDbSpline
 70
8
 71
3
 72
8
 73
4
 74
0
 40
0
 40
0
 40
0
 40
0
 40
1
 40
1
 40
1
 40
1
 10
467.117208
 20
737.905940
 30
0.0
 10
453.384856
 20
739.044732
 30
0.0
 10
443.808064
 20
731.805852
 30
0.0
 10
441.374224
 20
718.447396
 30
0.0
  0
SPLINE
  5
128
100
AcDbEntity
  8
Layer_1
 62
7
100
AcDbSpline
 70
8
 71
3
 72
8
 73
4
 74
0
 40
0
 40
0
 40
0
 40
0
 40
1
 40
1
 40
1
 40
1
 10
441.374224
 20
718.447396
 30
0.0
 10
440.638432
 20
714.408876
 30
0.0
 10
441.332544
 20
711.300820
 30
0.0
 10
444.251144
 20
705.565372
 30
0.0
  0
LWPOLYLINE
  5
129
100
AcDbEntity
  8
Layer_1
 62
7
100
AcDbPolyline
 90
2
 70
1
 10
395.651896
 20
704.700788
 30
0.0
 10
395.651896
 20
704.700788
 30
0.0
  0
SPLINE
  5
12a
100
AcDbEntity
  8
Layer_1
 62
7
100
AcDbSpline
 70
8
 71
3
 72
8
 73
4
 74
0
 40
0
 40
0
 40
0
 40
0
 40
1
 40
1
 40
1
 40
1
 10
444.005208
 20
693.734292
 30
0.0
 10
440.526376
 20
690.103172
 30
0.0
 10
439.904688
 20
688.118196
 30
0.0
 10
439.860008
 20
680.499092
 30
0.0
  0
SPLINE
  5
12b
100
AcDbEntity
  8
Layer_1
 62
7
100
AcDbSpline
 70
8
 71
3
 72
8
 73
4
 74
0
 40
0
 40
0
 40
0
 40
0
 40
1
 40
1
 40
1
 40
1
 10
439.860008
 20
680.499092
 30
0.0
 10
439.801048
 20
670.447900
 30
0.0
 10
442.514088
 20
665.427132
 30
0.0
 10
451.197864
 20
659.516996
 30
0.0
  0
SPLINE
  5
12c
100
AcDbEntity
  8
Layer_1
 62
7
100
AcDbSpline
 70
8
 71
3
 72
8
 73
4
 74
0
 40
0
 40
0
 40
0
 40
0
 40
1
 40
1
 40
1
 40
1
 10
451.197864
 20
659.516996
 30
0.0
 10
458.226160
 20
654.733588
 30
0.0
 10
471.535256
 20
654.739516
 30
0.0
 10
478.742752
 20
659.529156
 30
0.0
  0
LWPOLYLINE
  5
12d
100
AcDbEntity
  8
Layer_1
 62
7
100
AcDbPolyline
 90
3
 70
1
 10
444.251144
 20
705.565372
 30
0.0
 10
448.097840
 20
698.006084
 30
0.0
 10
444.005208
 20
693.734292
 30
0.0
  0
SPLINE
  5
12e
100
AcDbEntity
  8
Layer_1
 62
7
100
AcDbSpline
 70
8
 71
3
 72
8
 73
4
 74
0
 40
0
 40
0
 40
0
 40
0
 40
1
 40
1
 40
1
 40
1
 10
460.390464
 20
668.105476
 30
0.0
 10
455.485072
 20
669.451420
 30
0.0
 10
450.600968
 20
677.780924
 30
0.0
 10
451.834744
 20
682.696660
 30
0.0
  0
SPLINE
  5
12f
100
AcDbEntity
  8
Layer_1
 62
7
100
AcDbSpline
 70
8
 71
3
 72
8
 73
4
 74
0
 40
0
 40
0
 40
0
 40
0
 40
1
 40
1
 40
1
 40
1
 10
451.834744
 20
682.696660
 30
0.0
 10
454.163088
 20
691.973540
 30
0.0
 10
465.329768
 20
695.522412
 30
0.0
 10
473.059608
 20
689.442116
 30
0.0
  0
SPLINE
  5
130
100
AcDbEntity
  8
Layer_1
 62
7
100
AcDbSpline
 70
8
 71
3
 72
8
 73
4
 74
0
 40
0
 40
0
 40
0
 40
0
 40
1
 40
1
 40
1
 40
1
 10
473.059608
 20
689.442116
 30
0.0
 10
483.421488
 20
681.291460
 30
0.0
 10
473.462312
 20
664.518796
 30
0.0
 10
460.390464
 20
668.105476
 30
0.0
  0
LWPOLYLINE
  5
131
100
AcDbEntity
  8
Layer_1
 62
7
100
AcDbPolyline
 90
2
 70
1
 10
478.742752
 20
659.529156
 30
0.0
 10
478.742752
 20
659.529276
 30
0.0
  0
SPLINE
  5
132
100
AcDbEntity
  8
Layer_1
 62
7
100
AcDbSpline
 70
8
 71
3
 72
8
 73
4
 74
0
 40
0
 40
0
 40
0
 40
0
 40
1
 40
1
 40
1
 40
1
 10
461.045632
 20
704.700788
 30
0.0
 10
449.358784
 20
709.384396
 30
0.0
 10
452.510272
 20
726.558252
 30
0.0
 10
465.056584
 20
726.558252
 30
0.0
  0
SPLINE
  5
133
100
AcDbEntity
  8
Layer_1
 62
7
100
AcDbSpline
 70
8
 71
3
 72
8
 73
4
 74
0
 40
0
 40
0
 40
0
 40
0
 40
1
 40
1
 40
1
 40
1
 10
465.056584
 20
726.558252
 30
0.0
 10
471.612296
 20
726.558252
 30
0.0
 10
477.718032
 20
719.779284
 30
0.0
 10
476.321544
 20
714.051220
 30
0.0
  0
SPLINE
  5
134
100
AcDbEntity
  8
Layer_1
 62
7
100
AcDbSpline
 70
8
 71
3
 72
8
 73
4
 74
0
 40
0
 40
0
 40
0
 40
0
 40
1
 40
1
 40
1
 40
1
 10
476.321544
 20
714.051220
 30
0.0
 10
474.529568
 20
706.701060
 30
0.0
 10
467.219520
 20
702.226548
 30
0.0
 10
461.045632
 20
704.700788
 30
0.0
  0
LWPOLYLINE
  5
135
100
AcDbEntity
  8
Layer_1
 62
7
100
AcDbPolyline
 90
2
 70
1
 10
460.390464
 20
668.105476
 30
0.0
 10
460.390464
 20
668.105476
 30
0.0
  0
LWPOLYLINE
  5
136
100
AcDbEntity
  8
Layer_1
 62
7
100
AcDbPolyline
 90
2
 70
1
 10
461.045632
 20
704.700788
 30
0.0
 10
461.045632
 20
704.700788
 30
0.0
  0
SPLINE
  5
137
100
AcDbEntity
  8
Layer_1
 62
7
100
AcDbSpline
 70
8
 71
3
 72
8
 73
4
 74
0
 40
0
 40
0
 40
0
 40
0
 40
1
 40
1
 40
1
 40
1
 10
418.928736
 20
772.260412
 30
0.0
 10
411.625744
 20
768.592629
 30
0.0
 10
404.439280
 20
765.587833
 30
0.0
 10
402.958808
 20
765.583085
 30
0.0
  0
SPLINE
  5
138
100
AcDbEntity
  8
Layer_1
 62
7
100
AcDbSpline
 70
8
 71
3
 72
8
 73
4
 74
0
 40
0
 40
0
 40
0
 40
0
 40
1
 40
1
 40
1
 40
1
 10
402.958808
 20
765.583085
 30
0.0
 10
401.478344
 20
765.578365
 30
0.0
 10
385.040200
 20
769.169399
 30
0.0
 10
366.429600
 20
773.563224
 30
0.0
  0
LWPOLYLINE
  5
139
100
AcDbEntity
  8
Layer_1
 62
7
100
AcDbPolyline
 90
3
 70
1
 10
446.411112
 20
771.795321
 30
0.0
 10
432.206896
 20
778.929105
 30
0.0
 10
418.928736
 20
772.260412
 30
0.0
  0
SPLINE
  5
13a
100
AcDbEntity
  8
Layer_1
 62
7
100
AcDbSpline
 70
8
 71
3
 72
8
 73
4
 74
0
 40
0
 40
0
 40
0
 40
0
 40
1
 40
1
 40
1
 40
1
 10
342.857440
 20
806.199953
 30
0.0
 10
368.945144
 20
822.286545
 30
0.0
 10
403.094720
 20
832.414961
 30
0.0
 10
431.443128
 20
832.473567
 30
0.0
  0
SPLINE
  5
13b
100
AcDbEntity
  8
Layer_1
 62
7
100
AcDbSpline
 70
8
 71
3
 72
8
 73
4
 74
0
 40
0
 40
0
 40
0
 40
0
 40
1
 40
1
 40
1
 40
1
 10
431.443128
 20
832.473567
 30
0.0
 10
460.506952
 20
832.533655
 30
0.0
 10
501.228552
 20
820.065135
 30
0.0
 10
524.971376
 20
803.836223
 30
0.0
  0
SPLINE
  5
13c
100
AcDbEntity
  8
Layer_1
 62
7
100
AcDbSpline
 70
8
 71
3
 72
8
 73
4
 74
0
 40
0
 40
0
 40
0
 40
0
 40
1
 40
1
 40
1
 40
1
 10
524.971376
 20
803.836223
 30
0.0
 10
530.797928
 20
799.853605
 30
0.0
 10
531.072960
 20
799.296105
 30
0.0
 10
531.491784
 20
790.619086
 30
0.0
  0
LWPOLYLINE
  5
13d
100
AcDbEntity
  8
Layer_1
 62
7
100
AcDbPolyline
 90
5
 70
1
 10
366.429600
 20
773.563224
 30
0.0
 10
332.592144
 20
781.551996
 30
0.0
 10
332.592144
 20
790.711004
 30
0.0
 10
332.592144
 20
799.870013
 30
0.0
 10
342.857440
 20
806.199953
 30
0.0
  0
LWPOLYLINE
  5
13e
100
AcDbEntity
  8
Layer_1
 62
7
100
AcDbPolyline
 90
6
 70
1
 10
531.491784
 20
790.619086
 30
0.0
 10
531.929040
 20
781.559954
 30
0.0
 10
496.272184
 20
773.110746
 30
0.0
 10
460.615328
 20
764.661538
 30
0.0
 10
446.411112
 20
771.795321
 30
0.0
 10
446.411112
 20
771.795321
 30
0.0
  0
LWPOLYLINE
  5
13f
100
AcDbEntity
  8
Layer_1
 62
7
100
AcDbPolyline
 90
36
 70
0
 10
111.333608
 20
311.748804
 30
0.0
 10
97.525306
 20
318.099510
 30
0.0
 10
84.642672
 20
325.736189
 30
0.0
 10
72.676001
 20
334.665311
 30
0.0
 10
61.615587
 20
344.893348
 30
0.0
 10
48.428726
 20
361.703859
 30
0.0
 10
38.141033
 20
382.299664
 30
0.0
 10
30.575129
 20
407.132099
 30
0.0
 10
25.553635
 20
436.652500
 30
0.0
 10
23.411769
 20
463.373766
 30
0.0
 10
23.541406
 20
471.622142
 30
0.0
 10
24.520187
 20
474.668516
 30
0.0
 10
57.985379
 20
467.064596
 30
0.0
 10
93.321264
 20
459.464268
 30
0.0
 10
109.790472
 20
465.886324
 30
0.0
 10
122.739488
 20
472.308380
 30
0.0
 10
135.688512
 20
465.886324
 30
0.0
 10
152.133056
 20
459.464268
 30
0.0
 10
187.982440
 20
467.068188
 30
0.0
 10
221.958312
 20
474.672108
 30
0.0
 10
223.119981
 20
468.286809
 30
0.0
 10
222.576484
 20
452.641289
 30
0.0
 10
220.690385
 20
433.001114
 30
0.0
 10
217.824248
 20
414.631852
 30
0.0
 10
210.055722
 20
385.864807
 30
0.0
 10
205.038503
 20
373.659519
 30
0.0
 10
199.111908
 20
362.655195
 30
0.0
 10
192.160384
 20
352.663439
 30
0.0
 10
184.068378
 20
343.495857
 30
0.0
 10
174.720336
 20
334.964055
 30
0.0
 10
164.000704
 20
326.879636
 30
0.0
 10
141.679242
 20
314.289848
 30
0.0
 10
130.809687
 20
309.399552
 30
0.0
 10
124.260272
 20
307.461716
 30
0.0
 10
111.333608
 20
311.748804
 30
0.0
 10
111.333608
 20
311.748804
 30
0.0
  0
LWPOLYLINE
  5
140
100
AcDbEntity
  8
Layer_1
 62
7
100
AcDbPolyline
 90
34
 70
0
 10
102.664608
 20
359.708404
 30
0.0
 10
107.446537
 20
362.916356
 30
0.0
 10
111.212811
 20
366.918021
 30
0.0
 10
115.536348
 20
376.512030
 30
0.0
 10
115.311129
 20
386.909513
 30
0.0
 10
113.391458
 20
391.915522
 30
0.0
 10
110.213064
 20
396.529556
 30
0.0
 10
107.504267
 20
400.163144
 30
0.0
 10
107.335048
 20
401.674460
 30
0.0
 10
109.528270
 20
403.153691
 30
0.0
 10
111.552261
 20
406.960194
 30
0.0
 10
113.614784
 20
417.767860
 30
0.0
 10
111.810800
 20
427.302047
 30
0.0
 10
106.718444
 20
434.358536
 30
0.0
 10
98.817110
 20
438.523325
 30
0.0
 10
88.586192
 20
439.382412
 30
0.0
 10
79.866089
 20
437.317903
 30
0.0
 10
73.397928
 20
432.882418
 30
0.0
 10
69.375163
 20
426.279508
 30
0.0
 10
67.991251
 20
417.712724
 30
0.0
 10
70.056875
 20
406.950005
 30
0.0
 10
72.081252
 20
403.151593
 30
0.0
 10
74.270979
 20
401.674460
 30
0.0
 10
74.048701
 20
400.102708
 30
0.0
 10
71.212331
 20
396.323820
 30
0.0
 10
65.927488
 20
387.226002
 30
0.0
 10
65.231543
 20
377.799127
 30
0.0
 10
68.998032
 20
368.802012
 30
0.0
 10
77.100491
 20
360.993476
 30
0.0
 10
82.674591
 20
358.611763
 30
0.0
 10
89.649763
 20
357.560628
 30
0.0
 10
96.741329
 20
357.904649
 30
0.0
 10
102.664608
 20
359.708404
 30
0.0
 10
102.664608
 20
359.708404
 30
0.0
  0
LWPOLYLINE
  5
141
100
AcDbEntity
  8
Layer_1
 62
7
100
AcDbPolyline
 90
17
 70
0
 10
86.583392
 20
369.301812
 30
0.0
 10
81.544295
 20
372.302063
 30
0.0
 10
78.792141
 20
377.899956
 30
0.0
 10
78.712247
 20
384.443563
 30
0.0
 10
81.689928
 20
390.280956
 30
0.0
 10
84.837934
 20
392.758556
 30
0.0
 10
88.296938
 20
394.040890
 30
0.0
 10
95.247039
 20
393.382511
 30
0.0
 10
100.738425
 20
389.031316
 30
0.0
 10
102.374035
 20
385.697631
 30
0.0
 10
102.969288
 20
381.712804
 30
0.0
 10
100.390878
 20
373.833599
 30
0.0
 10
97.948294
 20
370.899629
 30
0.0
 10
95.430504
 20
369.737988
 30
0.0
 10
92.067976
 20
369.191132
 30
0.0
 10
86.583392
 20
369.301844
 30
0.0
 10
86.583392
 20
369.301812
 30
0.0
  0
LWPOLYLINE
  5
142
100
AcDbEntity
  8
Layer_1
 62
7
100
AcDbPolyline
 90
18
 70
0
 10
86.948248
 20
406.177260
 30
0.0
 10
83.182572
 20
408.482946
 30
0.0
 10
80.752147
 20
411.600404
 30
0.0
 10
79.596136
 20
415.184677
 30
0.0
 10
79.653702
 20
418.890806
 30
0.0
 10
80.864009
 20
422.373833
 30
0.0
 10
83.166220
 20
425.288800
 30
0.0
 10
86.499499
 20
427.290750
 30
0.0
 10
90.803008
 20
428.034724
 30
0.0
 10
95.618968
 20
426.896549
 30
0.0
 10
99.561859
 20
423.957339
 30
0.0
 10
101.980611
 20
419.930063
 30
0.0
 10
102.224152
 20
415.527692
 30
0.0
 10
99.949512
 20
410.617898
 30
0.0
 10
96.229423
 20
407.168326
 30
0.0
 10
91.687723
 20
405.560829
 30
0.0
 10
86.948248
 20
406.177260
 30
0.0
 10
86.948248
 20
406.177260
 30
0.0
  0
LWPOLYLINE
  5
143
100
AcDbEntity
  8
Layer_1
 62
7
100
AcDbPolyline
 90
34
 70
0
 10
170.039112
 20
361.005756
 30
0.0
 10
174.719052
 20
365.437726
 30
0.0
 10
178.714416
 20
371.271044
 30
0.0
 10
181.044014
 20
377.666353
 30
0.0
 10
181.343983
 20
383.875152
 30
0.0
 10
179.607359
 20
389.957015
 30
0.0
 10
175.827176
 20
395.971516
 30
0.0
 10
172.525824
 20
401.674460
 30
0.0
 10
174.701308
 20
403.214952
 30
0.0
 10
176.800561
 20
407.113124
 30
0.0
 10
179.008520
 20
417.642692
 30
0.0
 10
177.628435
 20
426.249983
 30
0.0
 10
173.612048
 20
432.873118
 30
0.0
 10
167.145159
 20
437.315970
 30
0.0
 10
158.413568
 20
439.382412
 30
0.0
 10
148.940150
 20
438.700975
 30
0.0
 10
141.305134
 20
435.089608
 30
0.0
 10
135.788590
 20
428.760007
 30
0.0
 10
132.670584
 20
419.923868
 30
0.0
 10
132.738647
 20
414.119204
 30
0.0
 10
135.547504
 20
407.041844
 30
0.0
 10
139.394200
 20
399.482556
 30
0.0
 10
135.301568
 20
395.210764
 30
0.0
 10
131.941161
 20
390.088658
 30
0.0
 10
131.156368
 20
381.975564
 30
0.0
 10
131.681878
 20
375.287882
 30
0.0
 10
133.546770
 20
369.931627
 30
0.0
 10
137.050925
 20
365.351818
 30
0.0
 10
142.494224
 20
360.993476
 30
0.0
 10
148.749621
 20
358.303832
 30
0.0
 10
156.199468
 20
357.409663
 30
0.0
 10
163.682915
 20
358.310440
 30
0.0
 10
170.039112
 20
361.005636
 30
0.0
 10
170.039112
 20
361.005756
 30
0.0
  0
LWPOLYLINE
  5
144
100
AcDbEntity
  8
Layer_1
 62
7
100
AcDbPolyline
 90
18
 70
0
 10
151.686824
 20
369.581956
 30
0.0
 10
148.107031
 20
371.738372
 30
0.0
 10
145.106776
 20
375.538872
 30
0.0
 10
143.257615
 20
380.008708
 30
0.0
 10
143.131104
 20
384.173132
 30
0.0
 10
146.342750
 20
389.995835
 30
0.0
 10
151.717975
 20
393.304801
 30
0.0
 10
158.105980
 20
393.734296
 30
0.0
 10
164.355968
 20
390.918588
 30
0.0
 10
167.322734
 20
387.514540
 30
0.0
 10
168.586061
 20
383.641804
 30
0.0
 10
168.347611
 20
379.640006
 30
0.0
 10
166.809044
 20
375.848771
 30
0.0
 10
164.172021
 20
372.607723
 30
0.0
 10
160.638203
 20
370.256488
 30
0.0
 10
156.409250
 20
369.134690
 30
0.0
 10
151.686824
 20
369.581956
 30
0.0
 10
151.686824
 20
369.581956
 30
0.0
  0
LWPOLYLINE
  5
145
100
AcDbEntity
  8
Layer_1
 62
7
100
AcDbPolyline
 90
18
 70
0
 10
152.341992
 20
406.177260
 30
0.0
 10
148.644339
 20
408.461155
 30
0.0
 10
146.273989
 20
411.568386
 30
0.0
 10
145.167151
 20
415.151324
 30
0.0
 10
145.260033
 20
418.862345
 30
0.0
 10
146.488845
 20
422.353821
 30
0.0
 10
148.789794
 20
425.278127
 30
0.0
 10
152.099091
 20
427.287637
 30
0.0
 10
156.352944
 20
428.034724
 30
0.0
 10
161.075166
 20
426.886009
 30
0.0
 10
164.967499
 20
423.929232
 30
0.0
 10
167.368794
 20
419.898443
 30
0.0
 10
167.617904
 20
415.527692
 30
0.0
 10
165.343256
 20
410.617898
 30
0.0
 10
161.623165
 20
407.168326
 30
0.0
 10
157.081466
 20
405.560829
 30
0.0
 10
152.341992
 20
406.177260
 30
0.0
 10
152.341992
 20
406.177260
 30
0.0
  0
LWPOLYLINE
  5
146
100
AcDbEntity
  8
Layer_1
 62
7
100
AcDbPolyline
 90
24
 70
0
 10
137.707472
 20
473.271796
 30
0.0
 10
123.503256
 20
480.405580
 30
0.0
 10
110.225096
 20
473.736884
 30
0.0
 10
94.255160
 20
467.059556
 30
0.0
 10
57.725955
 20
475.039692
 30
0.0
 10
23.888499
 20
483.028468
 30
0.0
 10
23.888499
 20
492.187476
 30
0.0
 10
23.888499
 20
501.346484
 30
0.0
 10
34.153795
 20
507.676428
 30
0.0
 10
55.014564
 20
518.559969
 30
0.0
 10
77.598875
 20
526.823729
 30
0.0
 10
100.607069
 20
532.082240
 30
0.0
 10
122.739488
 20
533.950036
 30
0.0
 10
146.275743
 20
531.782988
 30
0.0
 10
171.498987
 20
525.739736
 30
0.0
 10
195.724544
 20
516.642298
 30
0.0
 10
216.267736
 20
505.312692
 30
0.0
 10
221.555838
 20
500.464527
 30
0.0
 10
222.788144
 20
492.095556
 30
0.0
 10
223.225400
 20
483.036428
 30
0.0
 10
187.568544
 20
474.587220
 30
0.0
 10
151.911688
 20
466.138012
 30
0.0
 10
137.707472
 20
473.271796
 30
0.0
 10
137.707472
 20
473.271796
 30
0.0
  0
ENDSEC
  0
SECTION
  2
OBJECTS
  0
DICTIONARY
  5
C
330
0
100
AcDbDictionary
  3
ACAD_GROUP
350
D
  3
ACAD_MLINESTYLE
350
17
  0
DICTIONARY
  5
D
330
C
100
AcDbDictionary
  0
DICTIONARY
  5
1A
330
C
100
AcDbDictionary
  0
DICTIONARY
  5
17
330
C
100
AcDbDictionary
  3
STANDARD
350
18
  0
DICTIONARY
  5
19
330
C
100
AcDbDictionary
  0
ENDSEC
  0
EOF
